<?xml version="1.0" encoding="utf-8"?>
<!-- Generator: Adobe Illustrator 24.3.0, SVG Export Plug-In . SVG Version: 6.00 Build 0)  -->
<svg version="1.1" id="Layer_1" xmlns="http://www.w3.org/2000/svg" xmlns:xlink="http://www.w3.org/1999/xlink" x="0px" y="0px"
	 viewBox="0 0 24 22" style="enable-background:new 0 0 24 22;" xml:space="preserve">
<style type="text/css">
	.st0{clip-path:url(#SVGID_2_);}
</style>
<g>
	<defs>
		<rect id="SVGID_1_" width="24" height="22"/>
	</defs>
	<clipPath id="SVGID_2_">
		<use xlink:href="#SVGID_1_"  style="overflow:visible;"/>
	</clipPath>
	<path class="st0" d="M19.3,10.1h-1v1h1V10.1z M7.4,10.1h-1v1h1L7.4,10.1L7.4,10.1z M20.7,10.1h-0.8v1h0.8v9.7h-4.3v-9.7h1.3v-1
		h-1.3v-9h4.3V10.1z M9,10.1H8v1h1v5.2H4.9v-5.2h0.8v-1H4.9V5.6H9L9,10.1L9,10.1z M21.7,10.1v-10h-6.4v10H10V4.6H3.9v5.5H0v1h3.9
		v6.2H10v-6.1h5.4v10.7h6.4V11.1H24v-1H21.7z"/>
</g>
</svg>
