<?xml version="1.0" encoding="utf-8"?>
<!-- Generator: Adobe Illustrator 24.3.0, SVG Export Plug-In . SVG Version: 6.00 Build 0)  -->
<svg version="1.1" id="Layer_1" xmlns="http://www.w3.org/2000/svg" xmlns:xlink="http://www.w3.org/1999/xlink" x="0px" y="0px"
	 viewBox="0 0 24 24" style="enable-background:new 0 0 24 24;" xml:space="preserve">
<style type="text/css">
	.st0{clip-path:url(#SVGID_2_);}
</style>
<g>
	<defs>
		<rect id="SVGID_1_" width="24" height="24"/>
	</defs>
	<clipPath id="SVGID_2_">
		<use xlink:href="#SVGID_1_"  style="overflow:visible;"/>
	</clipPath>
	<path class="st0" d="M11.1,9.8h1.5c0.9,0,1.5,0.4,1.5,1.2s-0.6,1.2-1.5,1.2h-1.5V9.8z M11.1,12.8h1.6c1.1,0,2-0.7,2-1.8
		s-0.9-1.8-2-1.8h-2.2v5.5h0.6V12.8z M6.9,10l1.3,2.9H5.6L6.9,10z M5.3,13.5h3.1l0.6,1.2h0.7L7.2,9.3H6.5l-2.4,5.5h0.7L5.3,13.5z
		 M16.3,9.8h1.5c0.9,0,1.5,0.4,1.5,1.2s-0.6,1.2-1.5,1.2h-1.5V9.8z M16.3,12.8h1.6c1.1,0,2-0.7,2-1.8s-0.9-1.8-2-1.8h-2.2v5.5h0.6
		V12.8z M23,23H1V1h22V23z M0,0v24h24V0H0z"/>
</g>
</svg>
