<?xml version="1.0" encoding="utf-8"?>
<!-- Generator: Adobe Illustrator 24.3.0, SVG Export Plug-In . SVG Version: 6.00 Build 0)  -->
<svg version="1.1" id="Layer_1" xmlns="http://www.w3.org/2000/svg" xmlns:xlink="http://www.w3.org/1999/xlink" x="0px" y="0px"
	 viewBox="0 0 31 31" style="enable-background:new 0 0 31 31;" xml:space="preserve">
<style type="text/css">
	.st0{clip-path:url(#SVGID_2_);fill:#231E21;}
</style>
<g>
	<defs>
		<rect id="SVGID_1_" width="31" height="31"/>
	</defs>
	<clipPath id="SVGID_2_">
		<use xlink:href="#SVGID_1_"  style="overflow:visible;"/>
	</clipPath>
	<path class="st0" d="M19.3,10.4h-0.8v-2h-2.3V7.2h3.1V10.4z M23.9,10.6v-0.1h-3.6V6.2H2.6v21.9h22.1l0-17.6H23.9z M23.7,24v3.2
		h-3.4V24H23.7z M23.7,19.8V23h-3.4v-1.6h2.4v-1.6H23.7z M23.7,15.6v3.2h-1v-2.5h-2.4v-0.7H23.7z M23.7,14.6h-3.4v-3.2h3.4V14.6z
		 M16.2,24h3.1v3.2h-3.1V24z M16.2,19.8h3.1V23h-3.1V19.8z M16.2,14.6v-1.2h2.3v-2h0.8v3.2H16.2z M16.2,15.6h3.1v3.2h-3.1V15.6z
		 M12,10.4V7.2h3.1v3.2H12z M11,10.4h-0.9v-2H7.9V7.2H11V10.4z M12,23v-1.6h2.3v-1.6h0.8V23H12z M12,24h3.1v3.2H12V24z M12,14.6
		v-3.2h3.1v3.2H12z M12,15.6h3.1v3.2h-0.8v-2.5H12V15.6z M6.9,10.4H3.6V7.2h3.4V10.4z M7.9,19.8H11V23H7.9V19.8z M6.9,19.8V23H3.6
		v-3.2H6.9z M7.9,14.6v-1.2h2.2v-2H11v3.2H7.9z M7.9,15.6H11v3.2H7.9V15.6z M6.9,15.6v3.2H3.6v-3.2H6.9z M6.9,14.6H3.6v-3.2h3.4
		V14.6z M21,4.8v4.5h4.5v19.9h-24V4.8H21z M26.5,25.6V8.8l-4.3-4.6l-0.3-0.3H21v0H4.7V1.2h24.8v24.4H26.5z M26.5,26.6h4V0.2H3.7v3.6
		H0.5v26.4h26V26.6z M22,8.3V5.4l2.7,2.9H22z"/>
</g>
</svg>
