<?xml version="1.0" encoding="utf-8"?>
<!-- Generator: Adobe Illustrator 24.3.0, SVG Export Plug-In . SVG Version: 6.00 Build 0)  -->
<svg version="1.1" id="Layer_1" xmlns="http://www.w3.org/2000/svg" xmlns:xlink="http://www.w3.org/1999/xlink" x="0px" y="0px"
	 viewBox="0 0 24 24" style="enable-background:new 0 0 24 24;" xml:space="preserve">
<style type="text/css">
	.st0{clip-path:url(#SVGID_2_);fill:#231E21;}
</style>
<g>
	<defs>
		<rect id="SVGID_1_" width="24" height="24"/>
	</defs>
	<clipPath id="SVGID_2_">
		<use xlink:href="#SVGID_1_"  style="overflow:visible;"/>
	</clipPath>
	<path class="st0" d="M13,13.9l0.3,1l3.5-1l-0.3-1L13,13.9z M13,10.9l0.3,1l3.5-1l-0.3-1L13,10.9z M13,8l0.3,1l3.5-1l-0.3-1L13,8z
		 M13,5l0.3,1l3.5-1l-0.3-1L13,5z M5,16c1.3-0.5,2.8-0.5,4.1,0L9.5,15c-1.6-0.6-3.3-0.6-4.9,0L5,16z M5,13.1c1.3-0.5,2.8-0.5,4.1,0
		l0.4-0.9c-1.6-0.6-3.3-0.6-4.9,0L5,13.1z M5,10.2c1.3-0.5,2.8-0.5,4.1,0l0.4-0.9c-1.6-0.6-3.3-0.6-4.9,0L5,10.2z M9.1,7.3l0.4-0.9
		c-1.6-0.6-3.3-0.6-4.9,0L5,7.3C6.3,6.8,7.8,6.8,9.1,7.3z M23.7,8h-1v14.8H12.6v-1.6c2.7-1.4,5.8-1.3,8.5,0.1l0.7,0.4v-18h-2.4v1
		h1.4V20c-2.8-1.3-6-1.2-8.7,0.2C9.3,18.9,6,18.8,3.2,20V4.8c2.4-1.3,5.3-1.3,7.7,0v13.9l8-2.1V0.3l-5.6,1.6l0.3,1l4.3-1.2v14.3
		l-6,1.5V4.3l-0.2-0.1c-2.8-1.8-6.4-1.8-9.3,0L2.2,4.3v17.4l0.7-0.4c2.7-1.4,5.9-1.5,8.7-0.1v1.6H1.3V8h-1v15.8h23.4V8z"/>
</g>
</svg>
