<?xml version="1.0" encoding="utf-8"?>
<!-- Generator: Adobe Illustrator 24.3.0, SVG Export Plug-In . SVG Version: 6.00 Build 0)  -->
<svg version="1.1" id="Layer_1" xmlns="http://www.w3.org/2000/svg" xmlns:xlink="http://www.w3.org/1999/xlink" x="0px" y="0px"
	 viewBox="0 0 24 22" style="enable-background:new 0 0 24 22;" xml:space="preserve">
<style type="text/css">
	.st0{clip-path:url(#SVGID_2_);}
</style>
<g>
	<defs>
		<rect id="SVGID_1_" width="24" height="22"/>
	</defs>
	<clipPath id="SVGID_2_">
		<use xlink:href="#SVGID_1_"  style="overflow:visible;"/>
	</clipPath>
	<path class="st0" d="M15.8,1.6h-8v1.1h8V1.6z M17.5,0.5h-1v2.7h1V0.5z M18.1,1.6v1H23v18.3H1V2.6h4.5v-1H0v20.3h24V1.6H18.1z
		 M7.2,0.5h-1v2.7h1V0.5z M18.5,18.1h1.9v-1.9h-1.9V18.1z M13.4,18.1h1.9v-1.9h-1.9V18.1z M8.4,18.1h1.9v-1.9H8.4V18.1z M3.3,18.1
		h1.9v-1.9H3.3V18.1z M20.4,6.1h-1.9V8h1.9V6.1z M15.3,6.1h-1.9V8h1.9V6.1z M10.3,6.1H8.4V8h1.9V6.1z M5.2,6.1H3.3V8h1.9V6.1z
		 M18.5,13.1h1.9v-1.9h-1.9V13.1z M15.3,11.2h-1.9v1.9h1.9V11.2z M10.3,11.2H8.4v1.9h1.9V11.2z M5.2,11.2H3.3v1.9h1.9V11.2z"/>
</g>
</svg>
