<?xml version="1.0" encoding="utf-8"?>
<!-- Generator: Adobe Illustrator 24.3.0, SVG Export Plug-In . SVG Version: 6.00 Build 0)  -->
<svg version="1.1" id="Layer_1" xmlns="http://www.w3.org/2000/svg" xmlns:xlink="http://www.w3.org/1999/xlink" x="0px" y="0px"
	 viewBox="0 0 31 13" style="enable-background:new 0 0 31 13;" xml:space="preserve">
<style type="text/css">
	.st0{clip-path:url(#SVGID_2_);fill:#231E21;}
</style>
<g>
	<defs>
		<rect id="SVGID_1_" width="31" height="13"/>
	</defs>
	<clipPath id="SVGID_2_">
		<use xlink:href="#SVGID_1_"  style="overflow:visible;"/>
	</clipPath>
	<path class="st0" d="M6,11.8L6,11.8c-0.7,0-1.3-0.4-1.6-1C4.2,10.2,4.4,9.4,4.8,9s1.2-0.6,1.8-0.4c0.6,0.3,1,0.9,1,1.6
		C7.7,11.1,7,11.8,6,11.8z M6,7.5c-1.4,0-2.6,1.1-2.7,2.5c-0.1,1.4,0.9,2.7,2.3,2.8c1.4,0.2,2.7-0.8,3-2.2h12.1v-1H8.7
		C8.4,8.4,7.3,7.5,6,7.5z M26.2,11.8L26.2,11.8c-0.7,0-1.3-0.4-1.6-1c-0.3-0.6-0.1-1.4,0.4-1.8c0.5-0.5,1.2-0.6,1.8-0.4
		c0.6,0.3,1,0.9,1,1.6C27.9,11.1,27.2,11.8,26.2,11.8z M31,8c-0.1-0.7-0.2-1.4-0.2-2.2c0.1-1-0.1-1.7-0.5-2c-2.3-1.2-4.7-2-7.2-2.6
		C21.4,1,19.8,1,18.2,1c-0.6,0-1.4,0-1.9,0.1C13,1.6,9.8,2.8,7.1,4.7C3.5,4.9,1.1,6,0.2,7.7C0,8.2-0.1,8.8,0.1,9.3
		c0,0.1,0,0.2,0,0.3c0,0.3,0.1,0.7,0.3,1c0.3,0.4,0.9,0.6,2.2,0.6l0-1c-0.5,0-0.9,0-1.3-0.1C1.2,9.9,1.2,9.8,1.2,9.6
		c0-0.2,0-0.4-0.1-0.6C1,8.8,1,8.5,1.1,8.2C1.9,6.7,4,5.9,7.3,5.6l0.1,0l0.1-0.1c2.7-1.8,5.7-3,8.9-3.5c0.4,0,1-0.1,1.8-0.1
		c1.5,0,3.1,0.1,4.6,0.2c2.3,0.6,4.6,1.4,6.8,2.4c0.1,0.1,0.2,0.4,0.1,1.1c0,0.8,0.1,1.6,0.3,2.4c0,0.4-0.1,0.8-0.4,1.1
		c-0.2,0.2-0.5,0.4-0.8,0.5c-0.2-1.4-1.5-2.3-2.8-2.2c-1.4,0.1-2.4,1.2-2.5,2.6c0,1.4,1,2.6,2.3,2.7c1.4,0.2,2.6-0.7,2.9-2.1
		c0.6-0.1,1.2-0.4,1.6-0.9C30.9,9.3,31.1,8.6,31,8z"/>
</g>
</svg>
