<?xml version="1.0" encoding="utf-8"?>
<!-- Generator: Adobe Illustrator 24.3.0, SVG Export Plug-In . SVG Version: 6.00 Build 0)  -->
<svg version="1.1" id="Layer_1" xmlns="http://www.w3.org/2000/svg" xmlns:xlink="http://www.w3.org/1999/xlink" x="0px" y="0px"
	 viewBox="0 0 23 30" style="enable-background:new 0 0 23 30;" xml:space="preserve">
<style type="text/css">
	.st0{clip-path:url(#SVGID_2_);fill:#231E21;}
</style>
<g>
	<defs>
		<rect id="SVGID_1_" width="23" height="30"/>
	</defs>
	<clipPath id="SVGID_2_">
		<use xlink:href="#SVGID_1_"  style="overflow:visible;"/>
	</clipPath>
	<path class="st0" d="M3.1,1.6H12l1.2,3.1h1.1l-1.5-4.1H2.4L0.9,4.6H2L3.1,1.6z M4.6,27.1h3v-1h-3V27.1z M7.6,23h-3v1h3L7.6,23
		L7.6,23z M7.6,20h-3v1h3V20z M10.6,17H4.6v1h6.1V17z M10.6,14H4.6v1h6.1V14z M10.6,10.9H4.6v1h6.1V10.9z M10.6,7.9H4.6v1h6.1V7.9z
		 M2.4,6.6h10.3v12.6h1V5.6H1.4V30H8v-1H2.4V6.6z M21.8,22.2H9.8v-1.4h11.9V22.2z M21.8,29H9.8v-5.8h11.9V29z M8.8,19.9V30h13.9
		V19.9H8.8z"/>
</g>
</svg>
