<?xml version="1.0" encoding="utf-8"?>
<!-- Generator: Adobe Illustrator 24.3.0, SVG Export Plug-In . SVG Version: 6.00 Build 0)  -->
<svg version="1.1" id="Layer_1" xmlns="http://www.w3.org/2000/svg" xmlns:xlink="http://www.w3.org/1999/xlink" x="0px" y="0px"
	 viewBox="0 0 24 18" style="enable-background:new 0 0 24 18;" xml:space="preserve">
<style type="text/css">
	.st0{clip-path:url(#SVGID_2_);}
</style>
<g>
	<defs>
		<rect id="SVGID_1_" width="24" height="18"/>
	</defs>
	<clipPath id="SVGID_2_">
		<use xlink:href="#SVGID_1_"  style="overflow:visible;"/>
	</clipPath>
	<path class="st0" d="M12.9,5.2l3.5-2l3.5,2v4l-3.5,2l-3.5-2V5.2z M12,4.9v4.5c0,0.2,0.1,0.3,0.2,0.4l3.9,2.3c0.1,0.1,0.3,0.1,0.4,0
		l3.9-2.3c0.1-0.1,0.2-0.2,0.2-0.4V4.9c0-0.2-0.1-0.3-0.2-0.4l-3.9-2.3c-0.1-0.1-0.3-0.1-0.4,0l-3.9,2.3C12.1,4.6,12,4.8,12,4.9z
		 M23.8,11l-1.8-1l-1,0.6l2.1,1.2v4.3c0,0.5-0.4,0.9-0.9,0.9H1.9C1.4,17,1,16.6,1,16.1v-4.3l4.2-2.4l4.2,2.4v1.5
		c0,0.3,0.2,0.5,0.5,0.5c0.3,0,0.5-0.2,0.5-0.5v-1.5l1.6-0.9c0,0,0.1,0,0.1-0.1l0.1-0.1l-1-0.6l-1.3,0.8L5.7,8.5l0-4.8l4.2-2.4
		l2.5,1.4c0.2,0.1,0.5,0.1,0.7-0.2c0.1-0.2,0.1-0.5-0.2-0.7l-2.8-1.6c-0.2-0.1-0.3-0.1-0.5,0L4.9,3C4.8,3,4.7,3.2,4.7,3.4l0,5.1
		L0.2,11C0.1,11.1,0,11.3,0,11.4v4.6C0,17.1,0.9,18,1.9,18h20.1c1.1,0,1.9-0.9,1.9-1.9v-4.6C24,11.3,23.9,11.1,23.8,11z"/>
</g>
</svg>
