<?xml version="1.0" encoding="utf-8"?>
<!-- Generator: Adobe Illustrator 24.3.0, SVG Export Plug-In . SVG Version: 6.00 Build 0)  -->
<svg version="1.1" id="Layer_1" xmlns="http://www.w3.org/2000/svg" xmlns:xlink="http://www.w3.org/1999/xlink" x="0px" y="0px"
	 viewBox="0 0 26 24" style="enable-background:new 0 0 26 24;" xml:space="preserve">
<style type="text/css">
	.st0{clip-path:url(#SVGID_2_);fill:#231E21;}
</style>
<g>
	<defs>
		<rect id="SVGID_1_" width="26" height="24"/>
	</defs>
	<clipPath id="SVGID_2_">
		<use xlink:href="#SVGID_1_"  style="overflow:visible;"/>
	</clipPath>
	<path class="st0" d="M24.5,13.5c-0.2,0.1-0.5,0.1-0.8,0.2c-0.4,0.1-0.8,0.2-1.1,0.2l-0.2,0l-0.1,0.2c-0.1,0.2-0.3,0.6-0.6,1.3
		c-0.2,0.6-0.4,0.8-0.5,0.9l-0.3,0.3l0.2,0.3c0.1,0.1,0.3,0.4,0.6,1c0.2,0.3,0.3,0.5,0.4,0.7c-0.3,0.3-0.9,0.9-2.1,2.1
		c-0.6-0.3-1.2-0.6-1.8-1L18,19.6l-0.3,0.1c-0.8,0.4-1.5,0.7-2.2,0.8l-0.2,0l-0.1,0.2c-0.2,0.3-0.4,0.7-0.5,1.3
		c-0.1,0.4-0.2,0.7-0.2,0.8h-3c-0.1-0.2-0.1-0.4-0.2-0.8c-0.1-0.6-0.3-1-0.4-1.2l-0.1-0.2l-0.2-0.1c-1.9-0.8-2.2-0.9-2.2-1l-0.2-0.1
		l-0.2,0.1c-0.4,0.1-0.8,0.3-1.3,0.6c-0.4,0.2-0.6,0.3-0.8,0.4c-0.3-0.2-0.9-0.8-2.1-2c0.1-0.3,0.4-0.8,1-1.7l0.1-0.2l-0.1-0.2
		c0-0.1-0.1-0.3-0.5-1.2c-0.2-0.4-0.3-0.8-0.4-1.1l-0.1-0.4l-0.4,0c-0.3,0-0.7-0.1-1.2-0.2c-0.3-0.1-0.6-0.2-0.8-0.2v-2.8
		c0.2-0.1,0.5-0.1,0.8-0.2c0.4-0.1,0.8-0.2,1.1-0.2l0.2,0l0.1-0.2c0.1-0.2,0.3-0.6,0.6-1.2c0.3-0.6,0.4-0.9,0.6-1l0.2-0.3L4.9,7
		C4.5,6.2,4.1,5.7,3.9,5.3C4.1,5,4.8,4.4,6,3.2c0.8,0.4,1.4,0.7,1.8,1L8,4.4l0.3-0.1c1.8-0.7,2.2-0.8,2.3-0.8l0.3,0L11,3.1
		c0-0.1,0.2-0.6,0.4-1.3c0.1-0.3,0.2-0.6,0.2-0.8h3C14.7,1.4,14.8,2,15.1,3l0.1,0.2l0.2,0.1c0.2,0.1,0.6,0.2,1.2,0.5
		c0.6,0.2,0.9,0.4,1,0.5l0.2,0.1l0.2-0.1c0.4-0.1,0.8-0.3,1.3-0.6c0.4-0.2,0.6-0.4,0.8-0.4c0.3,0.2,0.7,0.5,1.1,1
		c0.4,0.4,0.8,0.8,1.1,1c-0.4,0.8-0.8,1.3-1,1.7l-0.2,0.2l0.1,0.2c1,2.8,1,2.8,1.4,2.8h0.1c0.3,0,0.6,0.1,1,0.2
		c0.3,0.1,0.6,0.2,0.8,0.2L24.5,13.5L24.5,13.5z M25.1,9.8c-0.2,0-0.6-0.1-1.1-0.3c-0.4-0.1-0.7-0.2-1-0.2c-0.1-0.3-0.3-0.8-0.7-1.9
		c0.3-0.4,0.7-1.1,1.2-1.9L23.6,5l-0.4-0.3c-0.3-0.2-0.7-0.6-1.3-1.2c-0.6-0.6-1.1-1-1.5-1.3l-0.2-0.1L20,2.3
		c-0.2,0.1-0.6,0.3-1.2,0.6c-0.3,0.2-0.6,0.3-0.8,0.4c-0.3-0.2-0.6-0.3-1-0.5c-0.4-0.2-0.7-0.3-0.9-0.3c-0.3-1.1-0.5-1.8-0.7-2.1
		l-0.1-0.3h-4.4l-0.1,0.3c-0.1,0.3-0.2,0.7-0.4,1.2c-0.1,0.4-0.2,0.7-0.3,0.9c-0.3,0.1-0.9,0.3-2,0.7C7.6,3,6.9,2.6,6.1,2.2L5.8,2
		L5.5,2.3C3.4,4.3,3,4.8,2.8,5L2.6,5.3l0.3,0.3C3,5.8,3.3,6.2,3.9,7.3c-0.1,0.2-0.3,0.6-0.5,1C3.2,8.6,3.1,8.9,3,9.1
		C2.7,9.2,2.4,9.2,2,9.3C1.5,9.5,1.1,9.6,0.9,9.6L0.5,9.7v4.4l0.4,0.1c0.2,0,0.6,0.1,1.2,0.3c0.4,0.1,0.7,0.2,0.9,0.2
		c0.1,0.3,0.2,0.7,0.4,1c0.2,0.4,0.3,0.7,0.4,0.9c-0.9,1.4-1,1.8-1.1,2L2.6,19l0.2,0.2c2,1.9,2.5,2.4,2.8,2.5l0.2,0.1l0.2-0.1
		c0.2-0.1,0.6-0.3,1.1-0.6c0.3-0.2,0.6-0.3,0.9-0.4c0.2,0.1,0.8,0.3,1.9,0.8c0.1,0.2,0.1,0.5,0.2,0.9c0.1,0.6,0.3,1,0.4,1.3l0.1,0.3
		h4.3l0.1-0.3c0.1-0.3,0.3-0.7,0.4-1.3c0.1-0.4,0.2-0.7,0.3-0.9c0.6-0.1,1.3-0.4,2-0.7c0.7,0.4,1.3,0.8,2,1.1l0.3,0.1l0.2-0.2
		c2.1-2,2.6-2.5,2.7-2.7l0.2-0.3l-0.2-0.3c-0.2-0.2-0.4-0.5-0.6-0.9c-0.2-0.3-0.3-0.6-0.4-0.7c0.2-0.2,0.3-0.6,0.5-1
		c0.2-0.5,0.3-0.7,0.4-0.9c0.3-0.1,0.6-0.1,1-0.2c0.6-0.2,0.9-0.3,1.1-0.3l0.4-0.1V9.8L25.1,9.8z M13,4.6c-4.1,0-7.4,3.3-7.4,7.4h1
		c0-3.6,2.9-6.4,6.4-6.4s6.4,2.9,6.4,6.4c0,3.6-2.9,6.4-6.4,6.4v1c4.1,0,7.4-3.3,7.4-7.4C20.4,7.9,17.1,4.6,13,4.6z"/>
</g>
</svg>
