<?xml version="1.0" encoding="utf-8"?>
<!-- Generator: Adobe Illustrator 24.3.0, SVG Export Plug-In . SVG Version: 6.00 Build 0)  -->
<svg version="1.1" id="Layer_1" xmlns="http://www.w3.org/2000/svg" xmlns:xlink="http://www.w3.org/1999/xlink" x="0px" y="0px"
	 viewBox="0 0 25 25" style="enable-background:new 0 0 25 25;" xml:space="preserve">
<style type="text/css">
	.st0{clip-path:url(#SVGID_2_);fill:#231E21;}
</style>
<g>
	<defs>
		<rect id="SVGID_1_" width="25" height="25"/>
	</defs>
	<clipPath id="SVGID_2_">
		<use xlink:href="#SVGID_1_"  style="overflow:visible;"/>
	</clipPath>
	<path class="st0" d="M16.7,9.7h0.8c0.2,0,0.3,0,0.5,0.1c0.1,0.1,0.2,0.2,0.2,0.4c0,0.1-0.1,0.3-0.2,0.4c-0.1,0.1-0.3,0.1-0.5,0.1
		h-0.8V9.7z M16.7,11.4h0.9c0.2,0,0.5-0.1,0.7-0.2c0.2-0.1,0.4-0.2,0.5-0.4c0.2-0.4,0.2-0.9,0-1.3c-0.1-0.2-0.3-0.3-0.5-0.4
		C18,9,17.8,8.9,17.5,8.9h-1.6v3.6h0.8V11.4z M12.1,10.3l1.1,2.1l1.1-2.1v2.3h0.8V8.9h-0.8L13.2,11l-1.1-2.1h-0.8v3.6h0.8V10.3z
		 M8.4,12.4c0.3,0.2,0.6,0.3,1,0.3c0.5,0,1-0.2,1.4-0.6l-0.6-0.5c-0.1,0.1-0.2,0.2-0.4,0.3c-0.1,0.1-0.3,0.1-0.5,0.1
		c-0.2,0-0.4-0.1-0.6-0.2c-0.2-0.1-0.3-0.3-0.4-0.4c-0.2-0.4-0.2-0.8,0-1.2C8.5,10,8.7,9.9,8.8,9.8C9,9.6,9.2,9.6,9.4,9.6
		c0.2,0,0.3,0,0.5,0.1c0.1,0.1,0.3,0.2,0.4,0.3l0.6-0.5c-0.2-0.2-0.4-0.3-0.6-0.4C9.9,8.9,9.7,8.9,9.4,8.9c-0.3,0-0.7,0.1-1,0.3
		C8.2,9.3,7.9,9.5,7.7,9.8c-0.4,0.6-0.4,1.3,0,1.9C7.9,12,8.1,12.2,8.4,12.4z M5.6,10l1-0.2l-0.2-1C6.3,8.2,6.5,7.5,7,7.1
		c0.5-0.5,1.1-0.7,1.8-0.5l1.2,0.2l0-1.2c0-0.5,0.6-0.6,0.9-0.6c0.2,0,0.3,0,0.5,0.1l0.8,0.5l0.5-0.8c0.6-0.9,1.5-1.4,2.6-1.4
		c0.8-0.1,1.5,0.2,2.1,0.7c0.6,0.5,0.9,1.3,0.9,2v0.1l0,0.8l0.7,0.2c1.6,0.5,2.7,2,2.4,3.7c-0.2,1.7-1.7,2.9-3.3,2.9H6
		c-1,0-1.8-0.8-1.9-1.8C4,11.1,4.7,10.2,5.6,10z M6,14.9h12.1c2.2,0,4-1.6,4.3-3.8c0.3-2.2-1-4.2-3.1-4.8c0,0,0-0.1,0-0.1
		c0-1-0.5-2-1.2-2.8c-0.8-0.7-1.8-1.1-2.8-1c-1.4,0-2.6,0.7-3.4,1.8c-0.3-0.2-0.7-0.3-1-0.3C10.4,3.9,9.9,4,9.6,4.3
		C9.2,4.6,9,5.1,9,5.5C8.1,5.4,7.2,5.6,6.5,6.2C5.8,6.8,5.4,7.6,5.4,8.5c0,0.2,0,0.3,0,0.5C4,9.3,2.9,10.7,3.1,12.2
		C3.2,13.7,4.5,14.9,6,14.9L6,14.9z M19.2,15.8h-1v1.4h-1.7v1h1.7v4.7h1v-4.7h1.7v-1h-1.7V15.8z M7.3,15.8h-1v1.4H4.6v1h1.7v4.7h1
		v-4.7H9v-1H7.3V15.8z M13.3,15.8h-1v4.7h-1.7v1h1.7v1.4h1v-1.4H15v-1h-1.7V15.8z M23.8,23.8h-22v-22h22V23.8z M0.8,0.8v24h24v-24
		H0.8z"/>
</g>
</svg>
