<?xml version="1.0" encoding="utf-8"?>
<!-- Generator: Adobe Illustrator 24.3.0, SVG Export Plug-In . SVG Version: 6.00 Build 0)  -->
<svg version="1.1" id="Layer_1" xmlns="http://www.w3.org/2000/svg" xmlns:xlink="http://www.w3.org/1999/xlink" x="0px" y="0px"
	 viewBox="0 0 25 25" style="enable-background:new 0 0 25 25;" xml:space="preserve">
<style type="text/css">
	.st0{clip-path:url(#SVGID_2_);fill:#231E21;}
</style>
<g>
	<defs>
		<rect id="SVGID_1_" width="25" height="25"/>
	</defs>
	<clipPath id="SVGID_2_">
		<use xlink:href="#SVGID_1_"  style="overflow:visible;"/>
	</clipPath>
	<path class="st0" d="M3.8,5.7V8h-3v0.8h3v2.3h-3v0.8h3v2.3h-3v0.8h3v2.3h-3v0.8h3v2.3h-3v0.8h3v1h4.1v3h0.7v-3h2.3v3h0.8v-3h2.3v3
		h0.8v-3H17v3h0.8v-3H20v3h0.8v-3h1v-4.1h3v-0.8h-3V3.9h-18v1h-3v0.8H3.8z M18,18.2v1.7h1.7v-1.7H18z M18,6v1.7h1.7V6H18z M15,18.2
		v1.7h1.7v-1.7H15z M15,6v1.7h1.7V6H15z M11.9,18.2v1.7h1.7v-1.7H11.9z M11.9,6v1.7h1.7V6H11.9z M8.8,18.2v1.7h1.7v-1.7H8.8z M8.8,6
		v1.7h1.7V6H8.8z M5.8,18.2v1.7h1.7v-1.7H5.8z M18,15.1v1.7h1.7v-1.7H18z M18,9v1.7h1.7V9H18z M18,12.1v1.7h1.7v-1.7H18z M5.8,15.1
		v1.7h1.7v-1.7H5.8z M5.8,9v1.7h1.7V9H5.8z M5.8,12.1v1.7h1.7v-1.7H5.8z M5.8,6v1.7h1.7V6H5.8z M4.8,22v3h0.8v-3H4.8z M21.8,14.1
		v0.8h3v-0.8H21.8z M21.8,11.1v0.8h3v-0.8H21.8z M21.8,8v0.8h3V8H21.8z M21.8,5v0.8h3V5H21.8z M20,0.9v3h0.8v-3H20z M21.8,20.2v0.8
		h3v-0.8H21.8z M17,0.9v3h0.8v-3H17z M13.9,0.9v3h0.8v-3H13.9z M10.9,0.9v3h0.8v-3H10.9z M7.8,0.9v3h0.7v-3H7.8z M4.8,0.9v3h0.8v-3
		H4.8z M20.8,4.9v16h-16v-16H20.8z"/>
</g>
</svg>
