<?xml version="1.0" encoding="utf-8"?>
<!-- Generator: Adobe Illustrator 24.3.0, SVG Export Plug-In . SVG Version: 6.00 Build 0)  -->
<svg version="1.1" id="Layer_1" xmlns="http://www.w3.org/2000/svg" xmlns:xlink="http://www.w3.org/1999/xlink" x="0px" y="0px"
	 viewBox="0 0 22 31" style="enable-background:new 0 0 22 31;" xml:space="preserve">
<style type="text/css">
	.st0{clip-path:url(#SVGID_2_);fill:#231E21;}
</style>
<g>
	<defs>
		<rect id="SVGID_1_" width="22" height="31"/>
	</defs>
	<clipPath id="SVGID_2_">
		<use xlink:href="#SVGID_1_"  style="overflow:visible;"/>
	</clipPath>
	<path class="st0" d="M2.2,1.7h8.9l1.2,3.1h1.1l-1.5-4.1H1.5L0,4.8h1.1L2.2,1.7z M3.7,27.2h3v-1h-3V27.2z M6.7,23.2h-3v1h3L6.7,23.2
		L6.7,23.2z M9.7,20.2H3.7v1h6.1V20.2z M9.7,17.2H3.7v1h6.1V17.2z M9.7,14.1H3.7v1h6.1V14.1z M9.7,11.1H3.7v1h6.1V11.1z M9.7,8.1
		H3.7v1h6.1V8.1z M1.5,6.8h10.4v13.4h1V5.8H0.5v24.4h6.6v-1H1.5V6.8z M14.5,26.3c-3.2,0-5.6-1.1-5.6-2.1s2.4-2.1,5.6-2.1
		s5.6,1.1,5.6,2.1S17.7,26.3,14.5,26.3z M20.1,27.1c0,1-2.4,2.1-5.6,2.1s-5.6-1.1-5.6-2.1v-1.2c1.1,0.9,3.2,1.4,5.6,1.4
		c2.4,0,4.5-0.6,5.6-1.4V27.1z M14.5,21.1c-3.8,0-6.6,1.3-6.6,3.1v2.9c0,1.8,2.8,3.1,6.6,3.1s6.6-1.3,6.6-3.1v-2.9
		C21.1,22.4,18.3,21.1,14.5,21.1z"/>
</g>
</svg>
