<?xml version="1.0" encoding="utf-8"?>
<!-- Generator: Adobe Illustrator 24.3.0, SVG Export Plug-In . SVG Version: 6.00 Build 0)  -->
<svg version="1.1" id="Layer_1" xmlns="http://www.w3.org/2000/svg" xmlns:xlink="http://www.w3.org/1999/xlink" x="0px" y="0px"
	 viewBox="0 0 22 26" style="enable-background:new 0 0 22 26;" xml:space="preserve">
<style type="text/css">
	.st0{clip-path:url(#SVGID_2_);fill:#231E21;}
</style>
<g>
	<defs>
		<rect id="SVGID_1_" width="22" height="26"/>
	</defs>
	<clipPath id="SVGID_2_">
		<use xlink:href="#SVGID_1_"  style="overflow:visible;"/>
	</clipPath>
	<path class="st0" d="M11,5.8c-5.9,0-9.2-1.3-9.2-1.9C1.8,3.3,5.1,2,11,2s9.2,1.3,9.2,1.9C20.2,4.5,16.9,5.8,11,5.8z M11,1
		C6.1,1,0.8,1.9,0.8,3.9S6.1,6.8,11,6.8c3.6,0,7.4-0.5,9.2-1.6v4.7c0,0.6-3.2,1.9-9.2,1.9s-9.2-1.3-9.2-1.9V6.4
		c0-0.3-0.2-0.5-0.5-0.5S0.8,6.2,0.8,6.4v3.5c0,2,5.3,2.9,10.2,2.9c3.6,0,7.4-0.5,9.2-1.6V16c0,0.6-3.2,1.9-9.2,1.9S1.8,16.7,1.8,16
		v-3.5c0-0.3-0.2-0.5-0.5-0.5s-0.5,0.2-0.5,0.5V16c0,2,5.3,2.9,10.2,2.9c3.6,0,7.4-0.5,9.2-1.6v4.7c0,0.6-3.2,1.9-9.2,1.9
		s-9.2-1.3-9.2-1.9v-3.5c0-0.3-0.2-0.5-0.5-0.5s-0.5,0.2-0.5,0.5v3.5c0,2,5.3,2.9,10.2,2.9s10.2-0.9,10.2-2.9V3.9
		C21.2,1.9,15.9,1,11,1z"/>
</g>
</svg>
