<?xml version="1.0" encoding="utf-8"?>
<!-- Generator: Adobe Illustrator 24.3.0, SVG Export Plug-In . SVG Version: 6.00 Build 0)  -->
<svg version="1.1" id="Layer_1" xmlns="http://www.w3.org/2000/svg" xmlns:xlink="http://www.w3.org/1999/xlink" x="0px" y="0px"
	 viewBox="0 0 31 23" style="enable-background:new 0 0 31 23;" xml:space="preserve">
<style type="text/css">
	.st0{clip-path:url(#SVGID_2_);fill:#231E21;}
</style>
<g>
	<defs>
		<rect id="SVGID_1_" width="31" height="23"/>
	</defs>
	<clipPath id="SVGID_2_">
		<use xlink:href="#SVGID_1_"  style="overflow:visible;"/>
	</clipPath>
	<path class="st0" d="M27,21.6H4.2V2.7H27L27,21.6z M28,21.8V1.7h-2.7V0.6h-7.8v1.1H3.2v20.1H0.8v0.8h29.5v-0.8H28z M6.6,16.8h-1
		v3.1h1V16.8z M8.7,19.9h1v-3.1h-1V19.9z M11.8,19.9h1v-3.1h-1V19.9z M15.9,16.8h-1v3.1h1V16.8z M24.1,19.9h1v-3.1h-1V19.9z
		 M24.1,13.2h1v-3.1h-1V13.2z M21,19.9h1v-3.1h-1V19.9z M21,13.2h1v-3.1h-1V13.2z M18,19.9h1v-3.1h-1V19.9z M6.6,10.1h-1v3.1h1V10.1
		z M8.7,13.2h1v-3.1h-1V13.2z M11.8,13.2h1v-3.1h-1V13.2z M15.9,10.1h-1v3.1h1V10.1z M18,13.2h1v-3.1h-1V13.2z M25.4,3.9h-7.7v1h7.7
		V3.9z M13.9,4H6.2v1h7.7V4z"/>
</g>
</svg>
