<?xml version="1.0" encoding="utf-8"?>
<!-- Generator: Adobe Illustrator 24.3.0, SVG Export Plug-In . SVG Version: 6.00 Build 0)  -->
<svg version="1.1" id="Layer_1" xmlns="http://www.w3.org/2000/svg" xmlns:xlink="http://www.w3.org/1999/xlink" x="0px" y="0px"
	 viewBox="0 0 30 28" style="enable-background:new 0 0 30 28;" xml:space="preserve">
<style type="text/css">
	.st0{clip-path:url(#SVGID_2_);}
</style>
<g>
	<g>
		<defs>
			<rect id="SVGID_1_" width="30" height="28"/>
		</defs>
		<clipPath id="SVGID_2_">
			<use xlink:href="#SVGID_1_"  style="overflow:visible;"/>
		</clipPath>
		<path class="st0" d="M3.4,16.7v1h23.2v-1H3.4z M28.1,0.7H1.7c-0.8,0-1.5,0.7-1.5,1.5V19c0,0.8,0.7,1.5,1.5,1.5h26.5
			c0.8,0,1.5-0.7,1.5-1.5V2.4c0-0.4-0.2-0.8-0.5-1.1C29,0.9,28.6,0.7,28.1,0.7z M28.1,1.7L28.1,1.7c0.3,0,0.6,0.3,0.6,0.6v16.6
			c0,0.3-0.2,0.5-0.5,0.5H1.7c-0.3,0-0.5-0.2-0.5-0.5V2.1c0-0.3,0.2-0.5,0.5-0.5L28.1,1.7L28.1,1.7z M19.8,27.3L19.8,27.3
			c0.5,0,0.9-0.3,1.1-0.8c0.1-0.5,0-1-0.4-1.3c-0.7-0.4-1.4-0.7-2.1-1l-0.3-2.8l-1,0.1l0.4,3.4l0.3,0.1c0.8,0.3,1.5,0.6,2.2,1
			c0,0,0.1,0.1,0,0.1c0,0.1-0.1,0.1-0.1,0.1h-9.6c-0.1,0-0.1,0-0.1-0.1s0-0.1,0-0.1c0.7-0.4,1.4-0.7,2.2-1l0.3-0.1l0.6-3.4l-1-0.2
			l-0.5,2.8c-0.7,0.3-1.4,0.6-2.1,1c-0.4,0.3-0.6,0.8-0.4,1.3c0.1,0.5,0.6,0.8,1.1,0.8h9.4V27.3z"/>
	</g>
</g>
</svg>
