<?xml version="1.0" encoding="utf-8"?>
<!-- Generator: Adobe Illustrator 24.3.0, SVG Export Plug-In . SVG Version: 6.00 Build 0)  -->
<svg version="1.1" id="Layer_1" xmlns="http://www.w3.org/2000/svg" xmlns:xlink="http://www.w3.org/1999/xlink" x="0px" y="0px"
	 viewBox="0 0 22 30" style="enable-background:new 0 0 22 30;" xml:space="preserve">
<style type="text/css">
	.st0{clip-path:url(#SVGID_2_);fill:#231E21;}
</style>
<g>
	<defs>
		<rect id="SVGID_1_" width="22" height="30"/>
	</defs>
	<clipPath id="SVGID_2_">
		<use xlink:href="#SVGID_1_"  style="overflow:visible;"/>
	</clipPath>
	<path class="st0" d="M2.4,1.3h8.9l1.2,3.1h1.1L12,0.3H1.7L0.2,4.4h1.1L2.4,1.3z M3.9,26.8h3v-1h-3V26.8z M3.9,23.8h3v-1h-3V23.8z
		 M3.9,20.7h6.1v-1H3.9V20.7z M9.9,16.7H3.9v1h6.1V16.7z M9.9,13.7H3.9v1h6.1V13.7z M9.9,10.7H3.9v1h6.1V10.7z M9.9,7.6H3.9v1h6.1
		V7.6z M1.7,6.4h10.3v13l1-1.7V5.4H0.7v24.4h5.4l0.6-1H1.7L1.7,6.4L1.7,6.4z M14.4,18.9l5.6,9.7H8.8L14.4,18.9z M14.4,16.9L7.1,29.7
		h14.7L14.4,16.9z M16.6,27.1h-4.3c0-0.1-0.1-0.2-0.1-0.3l2.1-3.3c0.1,0,0.1,0,0.2,0c0.1,0,0.1,0,0.2,0l2.1,3.3
		C16.7,27,16.7,27,16.6,27.1z M17.4,26.6c-0.1,0-0.1,0-0.2,0l-2.1-3.3c0.1-0.1,0.2-0.3,0.2-0.5c0-0.5-0.4-0.8-0.8-0.8
		c-0.5,0-0.8,0.4-0.8,0.8c0,0.2,0.1,0.4,0.2,0.5l-2.1,3.3c-0.1,0-0.1,0-0.2,0c-0.4,0-0.8,0.4-0.8,0.8c0,0.4,0.4,0.8,0.8,0.8
		c0.4,0,0.7-0.2,0.8-0.6h4.3c0.1,0.3,0.4,0.6,0.8,0.6c0.5,0,0.8-0.4,0.8-0.8C18.2,26.9,17.9,26.6,17.4,26.6z"/>
</g>
</svg>
