<?xml version="1.0" encoding="utf-8"?>
<!-- Generator: Adobe Illustrator 24.3.0, SVG Export Plug-In . SVG Version: 6.00 Build 0)  -->
<svg version="1.1" id="Layer_1" xmlns="http://www.w3.org/2000/svg" xmlns:xlink="http://www.w3.org/1999/xlink" x="0px" y="0px"
	 viewBox="0 0 25 20" style="enable-background:new 0 0 25 20;" xml:space="preserve">
<style type="text/css">
	.st0{clip-path:url(#SVGID_2_);}
</style>
<g>
	<defs>
		<rect id="SVGID_1_" width="25" height="20"/>
	</defs>
	<clipPath id="SVGID_2_">
		<use xlink:href="#SVGID_1_"  style="overflow:visible;"/>
	</clipPath>
	<path class="st0" d="M17.9,6.5c-0.2-1.6-1.1-3.2-2.5-4.3C12.6-0.1,8.4,0.3,6,3.2c-0.8,1-1.3,2.1-1.4,3.3c0,0.3,0.2,0.5,0.5,0.5
		c0.3,0,0.5-0.2,0.5-0.4C6,3.5,8.9,1.3,12,1.7s5.3,3.3,4.9,6.4s-3.3,5.3-6.4,4.9c-1.5-0.2-2.9-1-3.8-2.3h2.7c0.3,0,0.5-0.2,0.5-0.5
		S9.7,9.8,9.4,9.8H5.2V14c0,0.3,0.2,0.5,0.5,0.5c0.3,0,0.5-0.2,0.5-0.5v-2.2c2.4,2.8,6.7,3.1,9.4,0.6c0.1-0.1,0.1-0.1,0.2-0.1
		l3.4,3.4c0.2,0.2,0.5,0.2,0.7,0c0.2-0.2,0.2-0.5,0-0.7l-3.4-3.4c1-1.2,1.4-2.7,1.5-4.1c2.8,0,5,2.4,5,5.2c0,2.9-2.3,5.2-5.1,5.2
		H4.8C2.7,18,1,16.2,1,14c0-1.6,0.9-3,2.3-3.7c0,0,0,0,0,0c0.2-0.1,0.4-0.4,0.2-0.7S3.2,9.3,2.9,9.5C1.1,10.2,0,12,0,14
		c0,2.7,2.2,5,4.8,5h13.1c3.4,0,6.1-2.8,6.1-6.2C24,9.3,21.3,6.5,17.9,6.5z"/>
</g>
</svg>
