<?xml version="1.0" encoding="utf-8"?>
<!-- Generator: Adobe Illustrator 24.3.0, SVG Export Plug-In . SVG Version: 6.00 Build 0)  -->
<svg version="1.1" id="Layer_1" xmlns="http://www.w3.org/2000/svg" xmlns:xlink="http://www.w3.org/1999/xlink" x="0px" y="0px"
	 viewBox="0 0 18 25" style="enable-background:new 0 0 18 25;" xml:space="preserve">
<style type="text/css">
	.st0{clip-path:url(#SVGID_2_);fill:#231E21;}
</style>
<g>
	<defs>
		<rect id="SVGID_1_" width="18" height="25"/>
	</defs>
	<clipPath id="SVGID_2_">
		<use xlink:href="#SVGID_1_"  style="overflow:visible;"/>
	</clipPath>
	<path class="st0" d="M16.2,24H1V2h10v4.6h5.2V24z M12,2.8l3.2,2.8H12V2.8z M16.7,5.7L16.7,5.7L16.7,5.7L12,1.4L11.5,1H0v24h17.2
		V6.1L16.7,5.7z M11,22.2h4.6V21H11V22.2z M7.4,3.5H1.7v1.1h5.7V3.5z M7.4,4.9H1.7v1.1h5.7V4.9z M1.7,10.8h13.8V9.7H1.7V10.8z
		 M1.7,12.5h13.8v-1.1H1.7V12.5z M1.7,14.2h13.8v-1.1H1.7V14.2z M1.7,15.9h13.8v-1.1H1.7V15.9z M1.7,17.6h13.8v-1.1H1.7V17.6z
		 M1.7,19.3h13.8v-1.1H1.7V19.3z"/>
</g>
</svg>
