<?xml version="1.0" encoding="utf-8"?>
<!-- Generator: Adobe Illustrator 24.3.0, SVG Export Plug-In . SVG Version: 6.00 Build 0)  -->
<svg version="1.1" id="Layer_1" xmlns="http://www.w3.org/2000/svg" xmlns:xlink="http://www.w3.org/1999/xlink" x="0px" y="0px"
	 viewBox="0 0 24 25" style="enable-background:new 0 0 24 25;" xml:space="preserve">
<style type="text/css">
	.st0{clip-path:url(#SVGID_2_);fill:#231E21;}
</style>
<g>
	<defs>
		<rect id="SVGID_1_" width="24" height="25"/>
	</defs>
	<clipPath id="SVGID_2_">
		<use xlink:href="#SVGID_1_"  style="overflow:visible;"/>
	</clipPath>
	<path class="st0" d="M18.5,12.2V7.4H23v4.7H18.5z M23,17.9H12.7v-4.7H23V17.9z M23,23.7h-4.5v-4.8H23V23.7z M1,18.9h4.9v4.8H1V18.9
		z M17.5,18.9v4.8H6.9v-4.8H17.5z M11.7,13.2v4.7H1v-4.7H11.7z M1,7.4h4.9v4.7H1V7.4z M6.9,12.2V7.4h10.7v4.7H6.9z M1,1.7h10.7v4.8
		H1V1.7z M23,1.7v4.8H12.7V1.7H23z M0,0.7v24h24v-24H0z"/>
</g>
</svg>
