<?xml version="1.0" encoding="utf-8"?>
<!-- Generator: Adobe Illustrator 24.3.0, SVG Export Plug-In . SVG Version: 6.00 Build 0)  -->
<svg version="1.1" id="Layer_1" xmlns="http://www.w3.org/2000/svg" xmlns:xlink="http://www.w3.org/1999/xlink" x="0px" y="0px"
	 viewBox="0 0 25 21" style="enable-background:new 0 0 25 21;" xml:space="preserve">
<style type="text/css">
	.st0{clip-path:url(#SVGID_2_);fill:#231E21;}
</style>
<g>
	<defs>
		<rect id="SVGID_1_" width="25" height="21"/>
	</defs>
	<clipPath id="SVGID_2_">
		<use xlink:href="#SVGID_1_"  style="overflow:visible;"/>
	</clipPath>
	<path class="st0" d="M24.2,19.9c0,0-0.1,0-0.1,0H1.8c-0.1,0-0.1,0-0.1,0V8.3H20l0.2-0.2l1-1.1h2.9L24.2,19.9L24.2,19.9z M24.7,6
		h-3.6c-0.1,0-0.2,0-0.2,0.1l-1.1,1.2H1.2C1,7.3,0.9,7.4,0.9,7.6V20c0,0.5,0.4,1,0.9,1h22.3c0.5,0,0.9-0.4,0.9-0.9V6.3
		C25,6.1,24.9,6,24.7,6z M2.5,1l2.8,0l0.9,1.4h17v2.2H24V2.2c0-0.5-0.3-0.8-0.7-0.8H6.7l-0.7-1C5.8,0.1,5.6,0,5.4,0H2.4
		C2,0,1.7,0.4,1.7,0.9V6h0.8V1z"/>
</g>
</svg>
