<?xml version="1.0" encoding="utf-8"?>
<!-- Generator: Adobe Illustrator 24.3.0, SVG Export Plug-In . SVG Version: 6.00 Build 0)  -->
<svg version="1.1" id="Layer_1" xmlns="http://www.w3.org/2000/svg" xmlns:xlink="http://www.w3.org/1999/xlink" x="0px" y="0px"
	 viewBox="0 0 30 29" style="enable-background:new 0 0 30 29;" xml:space="preserve">
<style type="text/css">
	.st0{clip-path:url(#SVGID_2_);fill:#231E21;}
</style>
<g>
	<defs>
		<rect id="SVGID_1_" width="30" height="29"/>
	</defs>
	<clipPath id="SVGID_2_">
		<use xlink:href="#SVGID_1_"  style="overflow:visible;"/>
	</clipPath>
	<path class="st0" d="M29.7,13.6c-2.2-2.2-4.4-3.1-7.6-3.1c-0.4,0-0.9,0-1.3,0.1l0.1,1c0.4,0,0.8-0.1,1.2-0.1c2.8,0,4.9,0.8,6.8,2.8
		v7.8h1v-8.2L29.7,13.6z M22.3,1c2.2,0,4,1.8,4,4c0,2.5-2.4,4.5-5,3.8l-0.3,1c0.4,0.1,0.9,0.2,1.3,0.2c2.7,0,5-2.2,5-5s-2.2-5-5-5
		c-2,0-3.8,1.2-4.6,3.1l0.9,0.4C19.2,2,20.7,1,22.3,1z M15.5,15v1c2,0,4.9,0.6,7.4,3.4v7.3c0,0.5-0.5,1.2-1.1,1.2H9
		c-0.7,0-1.1-0.6-1.1-1.2l0-7.3c1.7-2.1,4.5-3.4,7.6-3.4L15.5,15C12,15,8.9,16.4,7,18.9L6.9,19l0,7.7c0,1,0.8,2.2,2.1,2.2h12.8
		c1.2,0,2.1-1.2,2.1-2.2V19l-0.1-0.1C21,15.7,17.7,15,15.5,15z M15.2,4.8c2.4,0,4.3,1.9,4.3,4.3s-1.9,4.3-4.3,4.3
		c-2.4,0-4.3-1.9-4.3-4.3S12.8,4.8,15.2,4.8z M9.9,9.2c0,2.9,2.4,5.3,5.3,5.3s5.3-2.4,5.3-5.3s-2.4-5.3-5.3-5.3S9.9,6.2,9.9,9.2z
		 M9,11.5l0.1-1c-0.4,0-0.9-0.1-1.3-0.1c-3.1,0-5.4,0.9-7.6,3.1L0,13.9v8.2h1v-7.8c1.9-2,4-2.8,6.8-2.8C8.2,11.5,8.6,11.5,9,11.5z
		 M7.7,9.9c0.4,0,0.8-0.1,1.3-0.2l-0.3-1c-2.6,0.7-5-1.3-5-3.8c0-2.2,1.8-4,4-4c1.6,0,3,1,3.7,2.4l0.9-0.4C11.5,1.2,9.7,0,7.7,0
		c-2.7,0-5,2.2-5,5S5,9.9,7.7,9.9z"/>
</g>
</svg>
