<?xml version="1.0" encoding="utf-8"?>
<!-- Generator: Adobe Illustrator 24.3.0, SVG Export Plug-In . SVG Version: 6.00 Build 0)  -->
<svg version="1.1" id="Layer_1" xmlns="http://www.w3.org/2000/svg" xmlns:xlink="http://www.w3.org/1999/xlink" x="0px" y="0px"
	 viewBox="0 0 17 24" style="enable-background:new 0 0 17 24;" xml:space="preserve">
<style type="text/css">
	.st0{clip-path:url(#SVGID_2_);fill:#231E21;}
</style>
<g>
	<defs>
		<rect id="SVGID_1_" width="17" height="24"/>
	</defs>
	<clipPath id="SVGID_2_">
		<use xlink:href="#SVGID_1_"  style="overflow:visible;"/>
	</clipPath>
	<path class="st0" d="M10.1,14.5v-0.3c0-0.8-0.7-1.5-1.5-1.5c-0.8,0-1.5,0.7-1.5,1.5v0.3C4.7,13.7,3.3,11.4,3.7,9s2.5-4.2,4.9-4.2
		c2.5,0,4.5,1.8,4.9,4.2C13.9,11.4,12.5,13.8,10.1,14.5z M9.1,19.6L9.1,19.6c0,0.3-0.2,0.5-0.5,0.5H8.6c-0.3,0-0.5-0.2-0.5-0.5v-5.4
		c0-0.1,0.1-0.3,0.2-0.4c0.1-0.1,0.2-0.1,0.4-0.1c0.3,0,0.5,0.2,0.5,0.5V19.6z M8.6,3.7C5.6,3.7,3.1,6,2.7,9c-0.4,3,1.5,5.8,4.4,6.6
		v4.1c0,0.8,0.7,1.5,1.5,1.5h0.1c0.8,0,1.5-0.7,1.5-1.5v-4.1c2.9-0.8,4.8-3.6,4.4-6.6C14.2,6,11.6,3.7,8.6,3.7z M3.5,21.2
		c0-0.4-0.4-0.8-0.8-0.8c-0.4,0-0.8,0.4-0.8,0.8S2.3,22,2.7,22c0.2,0,0.4-0.1,0.6-0.2C3.4,21.6,3.5,21.4,3.5,21.2z M13.6,21.2
		c0,0.4,0.4,0.8,0.8,0.8c0.4,0,0.8-0.4,0.8-0.8s-0.4-0.8-0.8-0.8C14,20.4,13.6,20.7,13.6,21.2z M1.9,2.4c0,0.4,0.4,0.8,0.8,0.8
		c0.4,0,0.8-0.4,0.8-0.8S3.1,1.6,2.7,1.6C2.3,1.6,1.9,1.9,1.9,2.4z M13.6,2.4c0,0.4,0.4,0.8,0.8,0.8c0.4,0,0.8-0.4,0.8-0.8
		s-0.4-0.8-0.8-0.8C14,1.6,13.6,1.9,13.6,2.4z M8.6,8.7L8.6,8.7c0.3,0,0.6,0.1,0.8,0.3c0.2,0.2,0.3,0.5,0.3,0.8
		c0,0.6-0.5,1.1-1.1,1.1c-0.6,0-1.1-0.5-1.1-1.1S8,8.7,8.6,8.7z M8.6,11.8L8.6,11.8c1.1,0,2.1-0.9,2.1-2.1c0-1.1-0.9-2.1-2.1-2.1
		c-1.1,0-2.1,0.9-2.1,2.1S7.5,11.8,8.6,11.8z M16.2,0.1H1c-0.2,0-0.4,0.2-0.4,0.4v22.8c0,0.2,0.2,0.4,0.4,0.4h15.3
		c0.2,0,0.4-0.2,0.4-0.4V0.5C16.6,0.3,16.4,0.1,16.2,0.1z M15.6,1.1v21.5h-14V1.1H15.6z"/>
</g>
</svg>
