<?xml version="1.0" encoding="utf-8"?>
<!-- Generator: Adobe Illustrator 24.3.0, SVG Export Plug-In . SVG Version: 6.00 Build 0)  -->
<svg version="1.1" id="Layer_1" xmlns="http://www.w3.org/2000/svg" xmlns:xlink="http://www.w3.org/1999/xlink" x="0px" y="0px"
	 viewBox="0 0 595.3 841.9" style="enable-background:new 0 0 595.3 841.9;" xml:space="preserve">
<style type="text/css">
	.st0{clip-path:url(#SVGID_2_);fill:#231E21;}
</style>
<g>
	<defs>
		<rect id="SVGID_1_" x="282.5" y="407" width="31" height="27"/>
	</defs>
	<clipPath id="SVGID_2_">
		<use xlink:href="#SVGID_1_"  style="overflow:visible;"/>
	</clipPath>
	<path class="st0" d="M299.3,416.7v2.5h4.6v-2.5H299.3z M292.3,416.7v2.5h4.6v-2.5H292.3z M302.9,421.1v2.5h4.6v-2.5H302.9z
		 M295.8,421.1v2.5h4.6v-2.5H295.8z M288.7,421.1v2.5h4.6v-2.5H288.7z M295.8,412.3v2.5h4.6v-2.5H295.8z M311.2,407.4h-26.4
		c-0.4,0-0.8,0.2-1,0.4c-0.3,0.3-0.4,0.7-0.4,1v16.8c0,0.4,0.2,0.8,0.4,1.1s0.7,0.4,1,0.4h26.5c0.4,0,0.8-0.2,1.1-0.5
		c0.3-0.3,0.4-0.7,0.4-1.1V409c0-0.4-0.2-0.8-0.5-1.1C312.1,407.5,311.7,407.4,311.2,407.4z M311.2,408.4L311.2,408.4
		c0.3,0,0.6,0.3,0.6,0.6v16.6c0,0.3-0.2,0.5-0.5,0.5h-26.5c-0.3,0-0.5-0.2-0.5-0.5v-16.8c0-0.3,0.2-0.5,0.5-0.5H311.2z M302.9,433.9
		L302.9,433.9c0.5,0,0.9-0.3,1.1-0.8c0.1-0.5,0-1-0.4-1.3c-0.7-0.4-1.4-0.7-2.1-1l-0.3-2.8l-1,0.1l0.4,3.4l0.3,0.1
		c0.8,0.3,1.5,0.6,2.2,1c0,0,0.1,0.1,0,0.1c0,0.1-0.1,0.1-0.1,0.1h-9.6c-0.1,0-0.1,0-0.1-0.1c0-0.1,0-0.1,0-0.1
		c0.7-0.4,1.4-0.7,2.2-1l0.3-0.1l0.6-3.4l-1-0.2l-0.5,2.8c-0.7,0.3-1.4,0.6-2.1,1c-0.4,0.3-0.6,0.8-0.4,1.3c0.1,0.5,0.6,0.8,1.1,0.8
		H302.9z"/>
</g>
</svg>
