<?xml version="1.0" encoding="utf-8"?>
<!-- Generator: Adobe Illustrator 24.3.0, SVG Export Plug-In . SVG Version: 6.00 Build 0)  -->
<svg version="1.1" id="Layer_1" xmlns="http://www.w3.org/2000/svg" xmlns:xlink="http://www.w3.org/1999/xlink" x="0px" y="0px"
	 viewBox="0 0 24 19" style="enable-background:new 0 0 24 19;" xml:space="preserve">
<style type="text/css">
	.st0{clip-path:url(#SVGID_2_);fill:#231E21;}
</style>
<g>
	<defs>
		<rect id="SVGID_1_" width="24" height="19"/>
	</defs>
	<clipPath id="SVGID_2_">
		<use xlink:href="#SVGID_1_"  style="overflow:visible;"/>
	</clipPath>
	<path class="st0" d="M23,18H1V1.3h22V18z M0,0.3V19h24V0.3H0z M22,12.5H11.2v1H22L22,12.5L22,12.5z M22,9.9H11.2v1H22L22,9.9
		L22,9.9z M5.8,3.4C7,3.4,8,4.4,8,5.6S7,7.9,5.8,7.9s-2.2-1-2.2-2.2S4.6,3.4,5.8,3.4z M5.8,8.9C7.6,8.9,9,7.4,9,5.6S7.6,2.4,5.8,2.4
		S2.6,3.9,2.6,5.6S4,8.9,5.8,8.9z M2.5,11.8c0-0.1,0-0.2,0.1-0.4c0,0,0.1-0.1,0.1-0.1c0.8-0.8,1.9-1.3,3-1.3C7,10,8.2,10.5,9,11.5
		c0,0.1,0.1,0.2,0.1,0.3v3.8c0,0.2-0.1,0.3-0.1,0.3l-6.4,0c0,0-0.1-0.1-0.1-0.3L2.5,11.8L2.5,11.8z M2.6,16.9H9
		c0.6,0,1.1-0.6,1.1-1.3v-3.8c0-0.3-0.1-0.6-0.3-0.9C8.7,9.6,7.3,9,5.8,9C4.3,9,3,9.5,2,10.6c-0.1,0.1-0.1,0.2-0.2,0.3
		c-0.2,0.2-0.2,0.5-0.2,0.8v3.8C1.5,16.3,2,16.9,2.6,16.9z M22,7.3H11.2v1H22L22,7.3L22,7.3z"/>
</g>
</svg>
