<?xml version="1.0" encoding="utf-8"?>
<!-- Generator: Adobe Illustrator 24.3.0, SVG Export Plug-In . SVG Version: 6.00 Build 0)  -->
<svg version="1.1" id="Layer_1" xmlns="http://www.w3.org/2000/svg" xmlns:xlink="http://www.w3.org/1999/xlink" x="0px" y="0px"
	 viewBox="0 0 24 24" style="enable-background:new 0 0 24 24;" xml:space="preserve">
<style type="text/css">
	.st0{clip-path:url(#SVGID_2_);fill:#231E21;}
</style>
<g>
	<defs>
		<rect id="SVGID_1_" width="24" height="24"/>
	</defs>
	<clipPath id="SVGID_2_">
		<use xlink:href="#SVGID_1_"  style="overflow:visible;"/>
	</clipPath>
	<polygon class="st0" points="22.4,19.9 22.4,11.3 22.4,11.3 22.4,10.3 12.5,10.3 12.5,4.1 14.1,4.1 14.1,0 9.9,0 9.9,4.1 11.5,4.1 
		11.5,10.3 2.1,10.3 2.1,10.3 1.6,10.3 1.6,10.8 1.6,10.8 1.6,19.9 0,19.9 0,24 4.2,24 4.2,19.9 2.6,19.9 2.6,11.3 11.5,11.3 
		11.5,16.8 9.9,16.8 9.9,20.9 14.1,20.9 14.1,16.8 12.5,16.8 12.5,11.3 21.4,11.3 21.4,19.9 19.8,19.9 19.8,24 24,24 24,19.9 	"/>
</g>
</svg>
