<?xml version="1.0" encoding="utf-8"?>
<!-- Generator: Adobe Illustrator 24.3.0, SVG Export Plug-In . SVG Version: 6.00 Build 0)  -->
<svg version="1.1" id="Layer_1" xmlns="http://www.w3.org/2000/svg" xmlns:xlink="http://www.w3.org/1999/xlink" x="0px" y="0px"
	 viewBox="0 0 24 25" style="enable-background:new 0 0 24 25;" xml:space="preserve">
<style type="text/css">
	.st0{clip-path:url(#SVGID_2_);fill:#231E21;}
</style>
<g>
	<defs>
		<rect id="SVGID_1_" width="24" height="25"/>
	</defs>
	<clipPath id="SVGID_2_">
		<use xlink:href="#SVGID_1_"  style="overflow:visible;"/>
	</clipPath>
	<path class="st0" d="M14.2,7.3c-1.6,0-2.8,1.3-2.8,2.8h1c0-0.7,0.4-1.4,1.1-1.7c0.7-0.3,1.5-0.1,2,0.4c0.5,0.5,0.7,1.3,0.4,2
		c-0.3,0.7-1,1.1-1.7,1.1v1c1.5,0,2.8-1.3,2.8-2.8S15.8,7.3,14.2,7.3z M1.8,19.7l0.7,0.7l7.7-7.4l-0.7-0.7L1.8,19.7z M22.2,13.7
		l-4.1,4.1c-0.4,0.4-1.1,0.4-1.5,0l-2.5-2.5l-0.7-0.7l-0.7,0.7l-1.5,1.5H8.4v2.8l-1.1,1.1h-3v2.6H1v-3.6l1.3-1.2l6.8-6.6L9.8,11
		l-0.7-0.7L6.6,7.8c-0.4-0.4-0.4-1.1,0-1.5l4.1-4.1c0.4-0.4,1.1-0.4,1.5,0l10,10C22.6,12.6,22.6,13.3,22.2,13.7L22.2,13.7z
		 M22.9,11.5l-10-10c-0.8-0.8-2.1-0.8-2.9,0L5.9,5.6c-0.8,0.8-0.8,2.1,0,2.9L8.4,11c-8.3,8.1-8.3,8.1-8.3,8.1L0,19.2v5h5.3v-2.5h2.4
		L9.4,20v-2.2h2.2l1.8-1.8l2.5,2.5c0.8,0.8,2.1,0.8,2.9,0l4.2-4.1C23.7,13.6,23.7,12.3,22.9,11.5L22.9,11.5z"/>
</g>
</svg>
