<?xml version="1.0" encoding="utf-8"?>
<!-- Generator: Adobe Illustrator 24.3.0, SVG Export Plug-In . SVG Version: 6.00 Build 0)  -->
<svg version="1.1" id="Layer_1" xmlns="http://www.w3.org/2000/svg" xmlns:xlink="http://www.w3.org/1999/xlink" x="0px" y="0px"
	 viewBox="0 0 30 22" style="enable-background:new 0 0 30 22;" xml:space="preserve">
<style type="text/css">
	.st0{clip-path:url(#SVGID_2_);fill:#231E21;}
</style>
<g>
	<defs>
		<rect id="SVGID_1_" width="30" height="22"/>
	</defs>
	<clipPath id="SVGID_2_">
		<use xlink:href="#SVGID_1_"  style="overflow:visible;"/>
	</clipPath>
	<path class="st0" d="M1.8,8.8h1.5c0.2,0,0.4-0.2,0.4-0.4c0-0.2-0.2-0.4-0.4-0.4H1.8c-0.2,0-0.4,0.2-0.4,0.4
		C1.5,8.7,1.6,8.8,1.8,8.8z M20.9,8.8h1.5c0.2,0,0.4-0.2,0.4-0.4c0-0.2-0.2-0.4-0.4-0.4h-1.5c-0.2,0-0.4,0.2-0.4,0.4
		C20.5,8.7,20.7,8.8,20.9,8.8z M23.8,8.8h1.5c0.2,0,0.4-0.2,0.4-0.4c0-0.2-0.2-0.4-0.4-0.4h-1.5c-0.2,0-0.4,0.2-0.4,0.4
		C23.4,8.7,23.6,8.8,23.8,8.8z M26.7,8.8h1.5c0.2,0,0.4-0.2,0.4-0.4c0-0.2-0.2-0.4-0.4-0.4h-1.5c-0.2,0-0.4,0.2-0.4,0.4
		C26.3,8.7,26.5,8.8,26.7,8.8z M27.1,17.6h0.7v2.2h-0.7V17.6z M26.7,20.5h1.5c0.2,0,0.4-0.2,0.4-0.4v-2.9c0-0.2-0.2-0.4-0.4-0.4
		h-1.5c-0.2,0-0.4,0.2-0.4,0.4v2.9C26.3,20.4,26.5,20.5,26.7,20.5z M24.2,19.1h0.7v0.7h-0.7V19.1z M23.8,20.5h1.5
		c0.2,0,0.4-0.2,0.4-0.4v-1.5c0-0.2-0.2-0.4-0.4-0.4h-1.5c-0.2,0-0.4,0.2-0.4,0.4v1.5C23.4,20.4,23.6,20.5,23.8,20.5z M21.2,19.1
		h0.7v0.7h-0.7V19.1z M20.9,20.5h1.5c0.2,0,0.4-0.2,0.4-0.4v-1.5c0-0.2-0.2-0.4-0.4-0.4h-1.5c-0.2,0-0.4,0.2-0.4,0.4v1.5
		C20.5,20.4,20.7,20.5,20.9,20.5z M17.5,19.8h-0.7v-0.7h0.7V19.8z M17.9,18.3h-1.5c-0.2,0-0.4,0.2-0.4,0.4v1.5
		c0,0.2,0.2,0.4,0.4,0.4h1.5c0.2,0,0.4-0.2,0.4-0.4v-1.5C18.3,18.5,18.1,18.3,17.9,18.3z M8.1,19.1h6.5v0.7H8.1V19.1z M7.7,20.5H15
		c0.2,0,0.4-0.2,0.4-0.4v-1.5c0-0.2-0.2-0.4-0.4-0.4H7.7c-0.2,0-0.4,0.2-0.4,0.4v1.5C7.3,20.4,7.5,20.5,7.7,20.5z M5.8,19.8H5.1
		v-0.7h0.7V19.8z M6.2,18.3H4.8c-0.2,0-0.4,0.2-0.4,0.4v1.5c0,0.2,0.2,0.4,0.4,0.4h1.5c0.2,0,0.4-0.2,0.4-0.4v-1.5
		C6.6,18.5,6.4,18.3,6.2,18.3z M2.2,19.1h0.7v0.7H2.2V19.1z M1.8,20.5h1.5c0.2,0,0.4-0.2,0.4-0.4v-1.5c0-0.2-0.2-0.4-0.4-0.4H1.8
		c-0.2,0-0.4,0.2-0.4,0.4v1.5C1.5,20.4,1.6,20.5,1.8,20.5z M24.2,16.2h0.7v0.7h-0.7V16.2z M23.8,17.6h1.5c0.2,0,0.4-0.2,0.4-0.4
		v-1.5c0-0.2-0.2-0.4-0.4-0.4h-1.5c-0.2,0-0.4,0.2-0.4,0.4v1.5C23.4,17.4,23.6,17.6,23.8,17.6z M21.2,16.2h0.7v0.7h-0.7V16.2z
		 M20.9,17.6h1.5c0.2,0,0.4-0.2,0.4-0.4v-1.5c0-0.2-0.2-0.4-0.4-0.4h-1.5c-0.2,0-0.4,0.2-0.4,0.4v1.5C20.5,17.4,20.7,17.6,20.9,17.6
		z M17.5,16.9h-0.7v-0.7h0.7V16.9z M17.9,15.4h-1.5c-0.2,0-0.4,0.2-0.4,0.4v1.5c0,0.2,0.2,0.4,0.4,0.4h1.5c0.2,0,0.4-0.2,0.4-0.4
		v-1.5C18.3,15.6,18.1,15.4,17.9,15.4z M13.9,16.2h0.7v0.7h-0.7V16.2z M13.5,17.6H15c0.2,0,0.4-0.2,0.4-0.4v-1.5
		c0-0.2-0.2-0.4-0.4-0.4h-1.5c-0.2,0-0.4,0.2-0.4,0.4v1.5C13.2,17.4,13.3,17.6,13.5,17.6z M11,16.2h0.7v0.7H11V16.2z M10.6,17.6h1.5
		c0.2,0,0.4-0.2,0.4-0.4v-1.5c0-0.2-0.2-0.4-0.4-0.4h-1.5c-0.2,0-0.4,0.2-0.4,0.4v1.5C10.2,17.4,10.4,17.6,10.6,17.6z M8.1,16.2h0.7
		v0.7H8.1V16.2z M7.7,17.6h1.5c0.2,0,0.4-0.2,0.4-0.4v-1.5c0-0.2-0.2-0.4-0.4-0.4H7.7c-0.2,0-0.4,0.2-0.4,0.4v1.5
		C7.3,17.4,7.5,17.6,7.7,17.6z M2.2,16.2h3.6v0.7H2.2V16.2z M1.8,17.6h4.4c0.2,0,0.4-0.2,0.4-0.4v-1.5c0-0.2-0.2-0.4-0.4-0.4H1.8
		c-0.2,0-0.4,0.2-0.4,0.4v1.5C1.5,17.4,1.6,17.6,1.8,17.6z M27.1,13.2h0.7v2.2h-0.7V13.2z M26.7,16.1h1.5c0.2,0,0.4-0.2,0.4-0.4
		v-2.9c0-0.2-0.2-0.4-0.4-0.4h-1.5c-0.2,0-0.4,0.2-0.4,0.4v2.9C26.3,16,26.5,16.1,26.7,16.1z M24.2,13.2h0.7v0.7h-0.7V13.2z
		 M23.8,14.7h1.5c0.2,0,0.4-0.2,0.4-0.4v-1.5c0-0.2-0.2-0.4-0.4-0.4h-1.5c-0.2,0-0.4,0.2-0.4,0.4v1.5C23.4,14.5,23.6,14.7,23.8,14.7
		z M21.2,13.2h0.7v0.7h-0.7V13.2z M20.9,14.7h1.5c0.2,0,0.4-0.2,0.4-0.4v-1.5c0-0.2-0.2-0.4-0.4-0.4h-1.5c-0.2,0-0.4,0.2-0.4,0.4
		v1.5C20.5,14.5,20.7,14.7,20.9,14.7z M13.9,13.2h3.6v0.7h-3.6V13.2z M13.5,14.7h4.4c0.2,0,0.4-0.2,0.4-0.4v-1.5
		c0-0.2-0.2-0.4-0.4-0.4h-4.4c-0.2,0-0.4,0.2-0.4,0.4v1.5C13.2,14.5,13.3,14.7,13.5,14.7z M11,13.2h0.7v0.7H11V13.2z M10.6,14.7h1.5
		c0.2,0,0.4-0.2,0.4-0.4v-1.5c0-0.2-0.2-0.4-0.4-0.4h-1.5c-0.2,0-0.4,0.2-0.4,0.4v1.5C10.2,14.5,10.4,14.7,10.6,14.7z M8.1,13.2h0.7
		v0.7H8.1V13.2z M7.7,14.7h1.5c0.2,0,0.4-0.2,0.4-0.4v-1.5c0-0.2-0.2-0.4-0.4-0.4H7.7c-0.2,0-0.4,0.2-0.4,0.4v1.5
		C7.3,14.5,7.5,14.7,7.7,14.7z M5.1,13.2h0.7v0.7H5.1V13.2z M4.8,14.7h1.5c0.2,0,0.4-0.2,0.4-0.4v-1.5c0-0.2-0.2-0.4-0.4-0.4H4.8
		c-0.2,0-0.4,0.2-0.4,0.4v1.5C4.4,14.5,4.6,14.7,4.8,14.7z M2.2,13.2h0.7v0.7H2.2V13.2z M1.8,14.7h1.5c0.2,0,0.4-0.2,0.4-0.4v-1.5
		c0-0.2-0.2-0.4-0.4-0.4H1.8c-0.2,0-0.4,0.2-0.4,0.4v1.5C1.5,14.5,1.6,14.7,1.8,14.7z M27.1,10.3h0.7V11h-0.7V10.3z M26.7,11.8h1.5
		c0.2,0,0.4-0.2,0.4-0.4V9.9c0-0.2-0.2-0.4-0.4-0.4h-1.5c-0.2,0-0.4,0.2-0.4,0.4v1.5C26.3,11.6,26.5,11.8,26.7,11.8z M24.2,10.3h0.7
		V11h-0.7V10.3z M23.8,11.8h1.5c0.2,0,0.4-0.2,0.4-0.4V9.9c0-0.2-0.2-0.4-0.4-0.4h-1.5c-0.2,0-0.4,0.2-0.4,0.4v1.5
		C23.4,11.6,23.6,11.8,23.8,11.8z M21.2,10.3h0.7V11h-0.7V10.3z M20.9,11.8h1.5c0.2,0,0.4-0.2,0.4-0.4V9.9c0-0.2-0.2-0.4-0.4-0.4
		h-1.5c-0.2,0-0.4,0.2-0.4,0.4v1.5C20.5,11.6,20.7,11.8,20.9,11.8z M16.8,10.3h0.7V11h-0.7V10.3z M16.5,11.8h1.5
		c0.2,0,0.4-0.2,0.4-0.4V9.9c0-0.2-0.2-0.4-0.4-0.4h-1.5c-0.2,0-0.4,0.2-0.4,0.4v1.5C16.1,11.6,16.3,11.8,16.5,11.8z M13.9,10.3h0.7
		V11h-0.7V10.3z M13.5,11.8H15c0.2,0,0.4-0.2,0.4-0.4V9.9c0-0.2-0.2-0.4-0.4-0.4h-1.5c-0.2,0-0.4,0.2-0.4,0.4v1.5
		C13.2,11.6,13.3,11.8,13.5,11.8z M11,10.3h0.7V11H11V10.3z M10.6,11.8h1.5c0.2,0,0.4-0.2,0.4-0.4V9.9c0-0.2-0.2-0.4-0.4-0.4h-1.5
		c-0.2,0-0.4,0.2-0.4,0.4v1.5C10.2,11.6,10.4,11.8,10.6,11.8z M8.1,10.3h0.7V11H8.1V10.3z M7.7,11.8h1.5c0.2,0,0.4-0.2,0.4-0.4V9.9
		c0-0.2-0.2-0.4-0.4-0.4H7.7c-0.2,0-0.4,0.2-0.4,0.4v1.5C7.3,11.6,7.5,11.8,7.7,11.8z M5.1,10.3h0.7V11H5.1V10.3z M4.8,11.8h1.5
		c0.2,0,0.4-0.2,0.4-0.4V9.9c0-0.2-0.2-0.4-0.4-0.4H4.8c-0.2,0-0.4,0.2-0.4,0.4v1.5C4.4,11.6,4.6,11.8,4.8,11.8z M2.2,10.3h0.7V11
		H2.2V10.3z M1.8,11.8h1.5c0.2,0,0.4-0.2,0.4-0.4V9.9c0-0.2-0.2-0.4-0.4-0.4H1.8c-0.2,0-0.4,0.2-0.4,0.4v1.5
		C1.5,11.6,1.6,11.8,1.8,11.8z M29,21H1V7.6h28V21z M16.1,6.6L16.1,6.6H14V6L14.1,6h1.4V3.7l2.1-2.1h9l1.8,2.1v2.2h1V3.3L27,0.6
		h-9.8l-2.7,2.7V5h-0.8L13,5.6v1H0V22h30V6.6H16.1z"/>
</g>
</svg>
