<?xml version="1.0" encoding="utf-8"?>
<!-- Generator: Adobe Illustrator 24.3.0, SVG Export Plug-In . SVG Version: 6.00 Build 0)  -->
<svg version="1.1" id="Layer_1" xmlns="http://www.w3.org/2000/svg" xmlns:xlink="http://www.w3.org/1999/xlink" x="0px" y="0px"
	 viewBox="0 0 24 24" style="enable-background:new 0 0 24 24;" xml:space="preserve">
<style type="text/css">
	.st0{clip-path:url(#SVGID_2_);}
</style>
<g>
	<defs>
		<rect id="SVGID_1_" width="24" height="24"/>
	</defs>
	<clipPath id="SVGID_2_">
		<use xlink:href="#SVGID_1_"  style="overflow:visible;"/>
	</clipPath>
	<path class="st0" d="M17.4,13.5L14,12.8c0,0,0-0.1,0-0.1c0-0.3-0.1-0.5-0.1-0.7l2.7-2.3c0.6,0.9,0.9,1.9,0.9,3
		C17.5,12.9,17.5,13.2,17.4,13.5z M14.8,17.4l-1.6-3.2c0.2-0.1,0.3-0.3,0.4-0.5l3.5,0.7C16.8,15.7,15.9,16.7,14.8,17.4z M12,18.1
		c-0.7,0-1.3-0.1-1.9-0.4l1.5-3.1c0.1,0,0.2,0,0.3,0c0.1,0,0.3,0,0.4,0l1.6,3.1C13.3,18,12.7,18.1,12,18.1z M9.2,17.3
		c-1.1-0.7-2-1.7-2.4-3l3.4-0.7c0.1,0.2,0.3,0.5,0.5,0.6L9.2,17.3z M6.6,12.7c0-1.1,0.3-2.1,0.8-2.9l2.7,2.1
		C10,12.1,10,12.4,10,12.6l-3.4,0.7C6.6,13.1,6.6,12.9,6.6,12.7z M11.5,7.2l0,3.5c-0.3,0.1-0.5,0.2-0.8,0.4L8,9
		C8.9,8,10.1,7.4,11.5,7.2z M12,11.7c0.6,0,1,0.5,1,1c0,0.4-0.2,0.7-0.5,0.9c0,0,0,0-0.1,0c0,0,0,0-0.1,0.1c-0.1,0-0.2,0.1-0.4,0.1
		c-0.6,0-1-0.5-1-1S11.4,11.7,12,11.7z M16,8.9l-2.7,2.3c-0.2-0.2-0.4-0.3-0.7-0.4l0-3.5C13.9,7.3,15.1,7.9,16,8.9z M19.8,14
		l-1.4-0.3c0.1-0.3,0.1-0.7,0.1-1c0-1.4-0.4-2.6-1.2-3.7l1.3-1.1c0.2-0.2,0.2-0.5,0.1-0.7C18.5,7,18.2,7,18,7.2l-1.3,1.1
		c-1.1-1.1-2.6-1.9-4.2-2l0-2.1c0-0.3-0.2-0.5-0.5-0.5h0c-0.3,0-0.5,0.2-0.5,0.5l0,2C9.8,6.4,8.3,7.2,7.2,8.4L5.7,7.2
		C5.5,7.1,5.2,7.1,5,7.3C4.9,7.5,4.9,7.9,5.1,8l1.5,1.1c-0.7,1-1,2.2-1,3.5c0,0.3,0,0.6,0.1,0.9l-1.5,0.3c-0.3,0.1-0.4,0.3-0.4,0.6
		c0.1,0.2,0.3,0.4,0.5,0.4c0,0,0.1,0,0.1,0l1.5-0.3c0.5,1.6,1.5,2.9,2.9,3.7L8,19.9c-0.1,0.2,0,0.5,0.2,0.7c0.1,0,0.1,0.1,0.2,0.1
		c0.2,0,0.4-0.1,0.4-0.3l0.8-1.6c0.7,0.3,1.5,0.5,2.4,0.5c0.8,0,1.6-0.2,2.3-0.4l0.7,1.4c0.1,0.2,0.3,0.3,0.4,0.3
		c0.1,0,0.1,0,0.2-0.1c0.2-0.1,0.4-0.4,0.2-0.7l-0.7-1.4c1.4-0.8,2.4-2.1,2.9-3.6l1.4,0.3c0,0,0.1,0,0.1,0c0.2,0,0.4-0.2,0.5-0.4
		C20.3,14.3,20.1,14,19.8,14z M16.9,22.8H7.1l-6.1-7.6l2.2-9.5L12,1.5l8.8,4.2l2.2,9.5L16.9,22.8z M21.6,5.1L12,0.4L2.4,5.1L0,15.5
		l6.7,8.4h10.7l6.7-8.4L21.6,5.1z"/>
</g>
</svg>
