<?xml version="1.0" encoding="utf-8"?>
<!-- Generator: Adobe Illustrator 24.3.0, SVG Export Plug-In . SVG Version: 6.00 Build 0)  -->
<svg version="1.1" id="Layer_1" xmlns="http://www.w3.org/2000/svg" xmlns:xlink="http://www.w3.org/1999/xlink" x="0px" y="0px"
	 viewBox="0 0 30 18" style="enable-background:new 0 0 30 18;" xml:space="preserve">
<style type="text/css">
	.st0{clip-path:url(#SVGID_2_);fill:#231E21;}
</style>
<g>
	<g>
		<defs>
			<rect id="SVGID_1_" width="30" height="18"/>
		</defs>
		<clipPath id="SVGID_2_">
			<use xlink:href="#SVGID_1_"  style="overflow:visible;"/>
		</clipPath>
		<path class="st0" d="M29.1,14.1H18.8l-0.6,0.5c-0.2,0.2-0.5,0.3-0.7,0.3c-0.1,0-0.2,0-0.3,0H13c-0.1,0-0.2,0-0.4,0
			c-0.2,0-0.5-0.1-0.6-0.2l-0.7-0.6H0.9c-0.4,0-0.7,0.3-0.7,0.7v2.4c0,0.4,0.3,0.7,0.7,0.7h28.3c0.4,0,0.7-0.3,0.7-0.7v-2.4
			C29.8,14.4,29.5,14.1,29.1,14.1L29.1,14.1z M28.8,15.1v1.8H1.2v-1.8h9.7l0.4,0.3c0.4,0.3,0.8,0.5,1.3,0.5c0.1,0,0.1,0,0.2,0H13
			h4.2h0.1h0.2c0.5,0,1-0.2,1.4-0.5l0.3-0.2C19.2,15.1,28.8,15.1,28.8,15.1z M26.8,13.3V1.7C26.8,0.8,26,0,25.1,0H5
			C4.6,0,4.1,0.2,3.8,0.5C3.5,0.8,3.3,1.2,3.3,1.7v11.6h1V1.7C4.3,1.3,4.6,1,5,1h20.1c0.4,0,0.7,0.3,0.7,0.7v11.6H26.8z"/>
	</g>
</g>
</svg>
