<?xml version="1.0" encoding="utf-8"?>
<!-- Generator: Adobe Illustrator 24.3.0, SVG Export Plug-In . SVG Version: 6.00 Build 0)  -->
<svg version="1.1" id="Layer_1" xmlns="http://www.w3.org/2000/svg" xmlns:xlink="http://www.w3.org/1999/xlink" x="0px" y="0px"
	 viewBox="0 0 24 24" style="enable-background:new 0 0 24 24;" xml:space="preserve">
<style type="text/css">
	.st0{clip-path:url(#SVGID_2_);}
</style>
<g>
	<defs>
		<rect id="SVGID_1_" width="24" height="24"/>
	</defs>
	<clipPath id="SVGID_2_">
		<use xlink:href="#SVGID_1_"  style="overflow:visible;"/>
	</clipPath>
	<path class="st0" d="M18.7,5.1l-0.9-0.9L17,4.8l1.6,1.6l2.6-2.6l-0.7-0.7L18.7,5.1z M19.2,9c-1,0-1.9-0.4-2.5-1
		c-0.2-0.2-0.4-0.4-0.6-0.6c-0.2-0.2-0.3-0.5-0.4-0.7c-0.2-0.5-0.3-1-0.3-1.5c0-0.5,0.1-1,0.3-1.5c0.1-0.3,0.2-0.5,0.4-0.7
		c0.2-0.2,0.4-0.4,0.6-0.6c0.7-0.6,1.6-1,2.5-1c2.1,0,3.8,1.7,3.8,3.8C23,7.3,21.3,9,19.2,9z M15.7,8.4v14.4H1V1.8h14.7v0.1
		c-0.8,0.9-1.3,2-1.3,3.3C14.4,6.4,14.9,7.6,15.7,8.4z M19.2,0.4c-0.7,0-1.3,0.1-1.9,0.4L0,0.8v23h16.7V9.2c0.7,0.5,1.6,0.7,2.5,0.7
		c2.6,0,4.8-2.2,4.8-4.8S21.8,0.4,19.2,0.4z M2.9,5.8h9.9v-1H2.9V5.8z M2.9,8.4h9.9v-1H2.9V8.4z M2.9,21.1h9.9v-1H2.9V21.1z
		 M2.9,18.5h9.9v-1H2.9V18.5z M2.9,10.9h9.9v-1H2.9V10.9z M2.9,16h9.9v-1H2.9V16z M2.9,13.5h9.9v-1H2.9V13.5z"/>
</g>
</svg>
