<?xml version="1.0" encoding="utf-8"?>
<!-- Generator: Adobe Illustrator 24.3.0, SVG Export Plug-In . SVG Version: 6.00 Build 0)  -->
<svg version="1.1" id="Layer_1" xmlns="http://www.w3.org/2000/svg" xmlns:xlink="http://www.w3.org/1999/xlink" x="0px" y="0px"
	 viewBox="0 0 24 24" style="enable-background:new 0 0 24 24;" xml:space="preserve">
<style type="text/css">
	.st0{clip-path:url(#SVGID_2_);fill:#231E21;}
</style>
<g>
	<defs>
		<rect id="SVGID_1_" width="24" height="24"/>
	</defs>
	<clipPath id="SVGID_2_">
		<use xlink:href="#SVGID_1_"  style="overflow:visible;"/>
	</clipPath>
	<path class="st0" d="M18.9,21.4l2.9-1.7L18.9,18v1.1h-4.6v1.2h4.6V21.4z M18.9,14.1l2.9-1.7l-2.9-1.7v1.1h-4.6V13h4.6V14.1z
		 M18.9,6.7L21.8,5l-2.9-1.7v1.1h-4.6v1.2h4.6V6.7z M7.1,12.1v0.6h2.2v-0.6H7.1z M6.4,15l2.9,2.9l0.4-0.4l-2.9-2.9L6.4,15z M6.4,10
		l0.4,0.4l2.9-2.9L9.3,7.2L6.4,10z M12.8,18.4c-0.7-0.7-1.9-0.7-2.6,0c-0.7,0.7-0.7,1.9,0,2.6c0.7,0.7,1.9,0.7,2.6,0
		C13.5,20.3,13.5,19.1,12.8,18.4 M2.9,11.1c-0.5,0.5-0.7,1.3-0.4,2c0.3,0.7,1,1.2,1.7,1.2s1.4-0.5,1.7-1.2c0.3-0.7,0.1-1.5-0.4-2
		C4.8,10.3,3.6,10.3,2.9,11.1z M12.8,11.1c-0.7-0.7-1.9-0.7-2.6,0c-0.7,0.7-0.7,1.9,0,2.6c0.7,0.7,1.9,0.7,2.6,0
		C13.5,13,13.5,11.8,12.8,11.1 M12.8,3.7c-0.7-0.7-1.9-0.7-2.6,0c-0.7,0.7-0.7,1.9,0,2.6c0.7,0.7,1.9,0.7,2.6,0
		C13.5,5.6,13.5,4.4,12.8,3.7 M22.8,22.8H8.3l-7.1-7.5V8.7L8,1.2h14.8V22.8z M7.6,0.2L0.2,8.3v7.4l7.7,8.1h16V0.2H7.6z"/>
</g>
</svg>
