<?xml version="1.0" encoding="utf-8"?>
<!-- Generator: Adobe Illustrator 24.3.0, SVG Export Plug-In . SVG Version: 6.00 Build 0)  -->
<svg version="1.1" id="Layer_1" xmlns="http://www.w3.org/2000/svg" xmlns:xlink="http://www.w3.org/1999/xlink" x="0px" y="0px"
	 viewBox="0 0 27 31" style="enable-background:new 0 0 27 31;" xml:space="preserve">
<style type="text/css">
	.st0{clip-path:url(#SVGID_2_);fill:#231E21;}
</style>
<g>
	<defs>
		<rect id="SVGID_1_" width="27" height="31"/>
	</defs>
	<clipPath id="SVGID_2_">
		<use xlink:href="#SVGID_1_"  style="overflow:visible;"/>
	</clipPath>
	<path class="st0" d="M15.8,20.4h6.1v-1h-6.1V20.4z M15.8,23.5h6.1v-1h-6.1V23.5z M15.8,26.5h6.1v-1h-6.1V26.5z M15.8,17.4h6.1v-1
		h-6.1V17.4z M10.4,25.8h0.8v-0.8h-0.8V25.8z M7.4,25.8h0.8v-0.8H7.4V25.8z M4.3,25.8h0.8v-0.8H4.3V25.8z M11.2,22h-0.8v0.8h0.8V22z
		 M8.2,22H7.4v0.8h0.8V22z M5.1,22H4.3v0.8h0.8V22z M11.2,19h-0.8v0.8h0.8V19z M8.2,19H7.4v0.8h0.8V19z M5.1,19H4.3v0.8h0.8V19z
		 M11.2,15.9h-0.8v0.8h0.8V15.9z M8.2,15.9H7.4v0.8h0.8V15.9z M5.1,15.9H4.3v0.8h0.8V15.9z M11.2,12.9h-0.8v0.8h0.8V12.9z M8.2,12.9
		H7.4v0.8h0.8V12.9z M5.1,12.9H4.3v0.8h0.8V12.9z M11.2,9.8h-0.8v0.8h0.8V9.8z M8.2,9.8H7.4v0.8h0.8V9.8z M5.1,9.8H4.3v0.8h0.8V9.8z
		 M11.2,6.8h-0.8v0.8h0.8V6.8z M8.2,6.8H7.4v0.8h0.8V6.8z M5.1,6.8H4.3v0.8h0.8V6.8z M11.2,3.7h-0.8v0.8h0.8V3.7z M8.2,3.7H7.4v0.8
		h0.8V3.7z M5.1,3.7H4.3v0.8h0.8V3.7z M25.4,29.2V13.1H12.2v15.1h1V14.1h11.2v15.9H2.6V2H13v10.2h1V0.9H1.6v28.2H0v1.8h26.9v-1.8
		H25.4z"/>
</g>
</svg>
