<?xml version="1.0" encoding="utf-8"?>
<!-- Generator: Adobe Illustrator 24.3.0, SVG Export Plug-In . SVG Version: 6.00 Build 0)  -->
<svg version="1.1" id="Layer_1" xmlns="http://www.w3.org/2000/svg" xmlns:xlink="http://www.w3.org/1999/xlink" x="0px" y="0px"
	 viewBox="0 0 22 30" style="enable-background:new 0 0 22 30;" xml:space="preserve">
<style type="text/css">
	.st0{clip-path:url(#SVGID_2_);fill:#231E21;}
</style>
<g>
	<defs>
		<rect id="SVGID_1_" width="22" height="30"/>
	</defs>
	<clipPath id="SVGID_2_">
		<use xlink:href="#SVGID_1_"  style="overflow:visible;"/>
	</clipPath>
	<path class="st0" d="M2.2,1.3h8.9l1.2,3.1h1.1l-1.5-4.1H1.5L0.1,4.4h1.1L2.2,1.3z M3.7,26.8h3v-1h-3V26.8z M6.8,22.8h-3v1h3
		L6.8,22.8L6.8,22.8z M6.8,19.7h-3v1h3V19.7z M9.8,16.7H3.7v1h6.1V16.7z M9.8,13.7H3.7v1h6.1V13.7z M9.8,10.7H3.7v1h6.1V10.7z
		 M9.8,7.6H3.7v1h6.1V7.6z M1.6,6.4h10.4V19h1V5.4H0.6v24.4h6.6v-1H1.6V6.4z M20.9,28.7H9v-8.1h11.9V28.7z M8,19.6v10.1h13.9V19.6H8
		z M19.8,21.7h-2.2v2.2h2.2V21.7z M18.5,26.8H10v1h8.5V26.8z M14.7,24.5H10v1h4.7V24.5z"/>
</g>
</svg>
