<?xml version="1.0" encoding="utf-8"?>
<!-- Generator: Adobe Illustrator 24.3.0, SVG Export Plug-In . SVG Version: 6.00 Build 0)  -->
<svg version="1.1" id="Layer_1" xmlns="http://www.w3.org/2000/svg" xmlns:xlink="http://www.w3.org/1999/xlink" x="0px" y="0px"
	 viewBox="0 0 30 14" style="enable-background:new 0 0 30 14;" xml:space="preserve">
<style type="text/css">
	.st0{clip-path:url(#SVGID_2_);fill:#231E21;}
</style>
<g>
	<defs>
		<rect id="SVGID_1_" width="30" height="14"/>
	</defs>
	<clipPath id="SVGID_2_">
		<use xlink:href="#SVGID_1_"  style="overflow:visible;"/>
	</clipPath>
	<path class="st0" d="M4.3,12.6H5v-1.2H4.3V12.6z M5.8,12.6h0.8v-1.2H5.8V12.6z M7.3,12.6h0.8v-1.2H7.3V12.6z M18.1,12.6h0.7v-1.2
		h-0.8L18.1,12.6z M25.9,12.6h0.8v-1.2h-0.8V12.6z M27.2,12.6H28v-1.2h-0.8V12.6z M24.5,12.6h0.8v-1.2h-0.8V12.6z M16.5,12.6h0.8
		v-1.2h-0.8V12.6z M15,12.6h0.8v-1.2H15V12.6z M13.5,12.6h0.8v-1.2h-0.8V12.6z M11.9,12.6h0.8v-1.2h-0.8V12.6z M10.4,12.6h0.8v-1.2
		h-0.8V12.6z M8.9,12.6h0.8v-1.2H8.9V12.6z M23.9,12.9v-0.5v-1h-1h-2.6h-1v1v0.6H3.7v-1.6H1.1V1.9l27.4,0l0,11L23.9,12.9z M29.6,0.9
		l-29.4,0v11.5h2.6V14h17.7l0-1.6h2.6v1.5c0,0,5.5,0,6.6,0h0.1C29.6,13.9,29.6,1.2,29.6,0.9z M11.6,8.7v0.8h0.9V8.7H11.6z M11.6,7.4
		v0.7h0.9V7.4H11.6z M11.6,6v0.8h0.9V6H11.6z M11.6,4.7v0.8h0.9V4.7H11.6z M11.6,3.3v0.8h0.9V3.3H11.6z M17.3,8.7v0.8h0.9V8.7H17.3z
		 M17.3,7.4v0.7h0.9V7.4H17.3z M17.3,6v0.8h0.9V6H17.3z M17.3,4.7v0.8h0.9V4.7H17.3z M17.3,3.3v0.8h0.9V3.3H17.3z M16.9,9.6l0-6.4
		h-4.2v6.4L16.9,9.6z M20.1,8.7v0.8H21V8.7H20.1z M20.1,7.4v0.7H21V7.4H20.1z M20.1,6v0.8H21V6H20.1z M20.1,4.7v0.8H21V4.7H20.1z
		 M20.1,3.3v0.8H21V3.3H20.1z M25.8,8.7v0.8h0.9V8.7H25.8z M25.8,7.4v0.7h0.9V7.4H25.8z M25.8,6v0.8h0.9V6H25.8z M25.8,4.7v0.8h0.9
		V4.7H25.8z M25.8,3.3v0.8h0.9V3.3H25.8z M25.4,9.6l0-6.4h-4.2v6.4L25.4,9.6z M3.1,8.7v0.8H4V8.7H3.1z M3.1,7.4v0.7H4V7.4H3.1z
		 M3.1,6v0.8H4V6H3.1z M3.1,4.7v0.8H4V4.7H3.1z M3.1,3.3v0.8H4V3.3H3.1z M8.7,8.7v0.8h0.9V8.7H8.7z M8.7,7.4v0.7h0.9V7.4H8.7z
		 M8.7,6v0.8h0.9V6H8.7z M8.7,4.7v0.8h0.9V4.7H8.7z M8.7,3.3v0.8h0.9V3.3H8.7z M8.4,9.6l0-6.4H4.3v6.4L8.4,9.6z"/>
</g>
</svg>
