<?xml version="1.0" encoding="utf-8"?>
<!-- Generator: Adobe Illustrator 24.3.0, SVG Export Plug-In . SVG Version: 6.00 Build 0)  -->
<svg version="1.1" id="Layer_1" xmlns="http://www.w3.org/2000/svg" xmlns:xlink="http://www.w3.org/1999/xlink" x="0px" y="0px"
	 viewBox="0 0 13 24" style="enable-background:new 0 0 13 24;" xml:space="preserve">
<style type="text/css">
	.st0{clip-path:url(#SVGID_2_);fill:#231E21;}
</style>
<g>
	<defs>
		<rect id="SVGID_1_" width="13" height="24"/>
	</defs>
	<clipPath id="SVGID_2_">
		<use xlink:href="#SVGID_1_"  style="overflow:visible;"/>
	</clipPath>
	<path class="st0" d="M12.9,22.7C12.9,22.7,12.9,22.7,12.9,22.7V1.1c0-0.2-0.1-0.5-0.3-0.6c-0.2-0.2-0.4-0.3-0.6-0.3H1.6
		C1.1,0.2,0.8,0.6,0.8,1v21.7c0,0.5,0.4,0.9,0.9,0.9h10.5c0.2,0,0.4-0.1,0.6-0.3C12.8,23.2,12.9,22.9,12.9,22.7z M7.3,21.2
		c-0.3-0.3-0.7-0.3-0.9,0c-0.3,0.3-0.3,0.7,0,0.9c0.3,0.3,0.7,0.3,0.9,0C7.6,21.9,7.6,21.5,7.3,21.2 M1.8,22.6v-1.8h10.2v1.8
		L1.8,22.6z M11.9,1.2v1.6H1.8V1.2H11.9z M11.9,19.8H1.8v-16h10.2V19.8z M5.8,1.6L5.8,1.6c-0.1,0-0.2,0.1-0.2,0.2v0.2
		c0,0.1,0.1,0.2,0.2,0.2h2.1c0.1,0,0.2-0.1,0.2-0.2V1.8c0-0.1-0.1-0.2-0.2-0.2H5.8z"/>
</g>
</svg>
