<?xml version="1.0" encoding="utf-8"?>
<!-- Generator: Adobe Illustrator 24.3.0, SVG Export Plug-In . SVG Version: 6.00 Build 0)  -->
<svg version="1.1" id="Layer_1" xmlns="http://www.w3.org/2000/svg" xmlns:xlink="http://www.w3.org/1999/xlink" x="0px" y="0px"
	 viewBox="0 0 15 25" style="enable-background:new 0 0 15 25;" xml:space="preserve">
<style type="text/css">
	.st0{clip-path:url(#SVGID_2_);fill:#231E21;}
</style>
<g>
	<defs>
		<rect id="SVGID_1_" width="15" height="25"/>
	</defs>
	<clipPath id="SVGID_2_">
		<use xlink:href="#SVGID_1_"  style="overflow:visible;"/>
	</clipPath>
	<path class="st0" d="M2.5,10.1C0,7.5,0.1,3.4,2.6,0.8l0.7,0.7c-2.1,2.2-2.2,5.7-0.1,8L2.5,10.1z M13.5,5.5c0-1.5-0.6-2.9-1.6-4
		l0.7-0.7c1.2,1.3,1.9,2.9,1.9,4.7c0,1.7-0.6,3.4-1.8,4.6l-0.7-0.6C12.9,8.4,13.5,7,13.5,5.5L13.5,5.5z M3.1,5.5
		c0-1.2,0.4-2.3,1.2-3.1L5,3.1C4.4,3.8,4,4.6,4,5.5C4,6.4,4.4,7.3,5,7.9L4.2,8.6C3.5,7.7,3.1,6.7,3.1,5.5L3.1,5.5z M11.1,5.5
		c0-0.9-0.3-1.8-0.9-2.4l0.7-0.7c0.8,0.8,1.2,2,1.2,3.1c0,1.1-0.4,2.2-1.2,3.1l-0.7-0.7C10.8,7.3,11.1,6.4,11.1,5.5z M7.6,4.6
		c0.4,0,0.7,0.2,0.9,0.6c0.1,0.4,0.1,0.8-0.2,1C8,6.5,7.6,6.5,7.2,6.4S6.7,5.9,6.7,5.5C6.7,5,7.1,4.6,7.6,4.6z M7.6,7.5
		c0.8,0,1.5-0.5,1.8-1.2C9.7,5.5,9.5,4.7,9,4.2C8.4,3.6,7.6,3.4,6.9,3.7C6.1,4,5.7,4.7,5.7,5.5C5.7,6.6,6.5,7.5,7.6,7.5z M4.8,20.9
		l5.5-2.8l1.4,4.7L4.8,20.9z M5.8,15.3l3.7,2.1l-5.2,2.7L5.8,15.3L5.8,15.3z M7.5,9.7h0.1l2.1,6.7l-3.7-2.1L7.5,9.7L7.5,9.7z
		 M6.8,8.7l-5,15.8l0.9,0.3l1-3.2l8.4,2.3l0.3,0.9l0.9-0.3l-5-15.8H6.8z"/>
</g>
</svg>
