<?xml version="1.0" encoding="utf-8"?>
<!-- Generator: Adobe Illustrator 24.3.0, SVG Export Plug-In . SVG Version: 6.00 Build 0)  -->
<svg version="1.1" id="Layer_1" xmlns="http://www.w3.org/2000/svg" xmlns:xlink="http://www.w3.org/1999/xlink" x="0px" y="0px"
	 viewBox="0 0 14 31" style="enable-background:new 0 0 14 31;" xml:space="preserve">
<style type="text/css">
	.st0{clip-path:url(#SVGID_2_);fill:#231E21;}
</style>
<g>
	<defs>
		<rect id="SVGID_1_" width="14" height="31"/>
	</defs>
	<clipPath id="SVGID_2_">
		<use xlink:href="#SVGID_1_"  style="overflow:visible;"/>
	</clipPath>
	<path class="st0" d="M13,20.8c0,2.6,0,5-0.8,6.7c-0.5,1.2-1.6,2.5-5,2.5H7.1c-5.4,0-5.6-3-5.6-9.1c0-0.4,0-0.9,0-1.4
		c0-0.3,0-0.7,0-1H13c0,0.1,0,0.2,0,0.3c0,0.5,0,1.1,0,1.6V20.8z M3.2,10.7C4,9.9,5.1,9.5,6.6,9.4l0,0.3c-1.1,0.4-1.1,1.8-1.1,3.3
		c0,1.3,0,2.5,0.6,3c0.1,0.1,0.3,0.2,0.5,0.3l0,1.2H1.5C1.5,14.8,1.8,12.1,3.2,10.7z M7.1,10.6C7.1,10.6,7.1,10.6,7.1,10.6
		c0.2,0,0.3,0.1,0.3,0.1C7.6,11,7.6,12,7.6,12.9v0.2c0,1.7-0.1,2.3-0.6,2.3c-0.1,0-0.2,0-0.2-0.1C6.5,15,6.5,13.7,6.5,13
		C6.5,11.2,6.6,10.6,7.1,10.6z M11.4,10.8c1.4,1.4,1.6,4.1,1.6,6.8H7.6l0-1.2c1.1-0.4,1.1-1.8,1.1-3.2V13v-0.1c0-1.2,0-2.3-0.6-2.9
		C7.9,9.8,7.8,9.7,7.6,9.7l0-0.3C9.3,9.5,10.6,9.9,11.4,10.8z M7.6,8.4L7.6,8.4L7.6,8.4c0-1.7-0.9-2.5-1.6-3.2
		C5.3,4.6,4.9,4.1,5,3.3C5.2,2.4,6.3,2.4,8,2.5c1.2,0.1,2.3,0.1,2.9-0.5c0.3-0.3,0.4-0.6,0.4-1l-1,0c0,0.2-0.1,0.3-0.1,0.3
		C9.9,1.6,8.9,1.6,8,1.5c-1.6-0.1-3.7-0.2-4,1.7C3.9,4.5,4.6,5.3,5.3,5.9c0.6,0.6,1.3,1.2,1.3,2.4v0v0c-6.7,0.4-6.1,7.1-6.1,12.5
		c0,5.5,0,10.1,6.6,10.1c0,0,0.1,0,0.1,0c6.9,0,6.8-5.1,6.8-10.6C14,15,14.8,8.7,7.6,8.4z"/>
</g>
</svg>
