<?xml version="1.0" encoding="utf-8"?>
<!-- Generator: Adobe Illustrator 24.3.0, SVG Export Plug-In . SVG Version: 6.00 Build 0)  -->
<svg version="1.1" id="Layer_1" xmlns="http://www.w3.org/2000/svg" xmlns:xlink="http://www.w3.org/1999/xlink" x="0px" y="0px"
	 viewBox="0 0 25 25" style="enable-background:new 0 0 25 25;" xml:space="preserve">
<style type="text/css">
	.st0{clip-path:url(#SVGID_2_);fill:#231E21;}
</style>
<g>
	<defs>
		<rect id="SVGID_1_" width="25" height="25"/>
	</defs>
	<clipPath id="SVGID_2_">
		<use xlink:href="#SVGID_1_"  style="overflow:visible;"/>
	</clipPath>
	<path class="st0" d="M17.7,6.6v2.5h1V6.6H17.7z M15.4,6.6v2.5h1V6.6H15.4z M13,6.6v2.5h1V6.6H13z M10.6,6.6v2.5h1V6.6H10.6z
		 M8.3,6.6v2.5h1V6.6H8.3z M5.9,6.6v2.5h1V6.6H5.9z M21.1,4.2H3.5v12.2h2.2v2.5h2.4v2.9h8.2l0.1-2.9h2.7v-2.5h2L21.1,4.2L21.1,4.2z
		 M20.1,5.2v10.2h-2v2.5h-2.6l0,1l-0.1,1.9H9.2v-2.9H6.7v-2.5H4.5V5.2H20.1z M23.5,24h-22V2h22V24z M0.5,1v24h24V1H0.5z"/>
</g>
</svg>
