<?xml version="1.0" encoding="utf-8"?>
<!-- Generator: Adobe Illustrator 24.3.0, SVG Export Plug-In . SVG Version: 6.00 Build 0)  -->
<svg version="1.1" id="Layer_1" xmlns="http://www.w3.org/2000/svg" xmlns:xlink="http://www.w3.org/1999/xlink" x="0px" y="0px"
	 viewBox="0 0 25 25" style="enable-background:new 0 0 25 25;" xml:space="preserve">
<style type="text/css">
	.st0{clip-path:url(#SVGID_2_);fill:#231E21;}
</style>
<g>
	<defs>
		<rect id="SVGID_1_" width="25" height="25"/>
	</defs>
	<clipPath id="SVGID_2_">
		<use xlink:href="#SVGID_1_"  style="overflow:visible;"/>
	</clipPath>
	<path class="st0" d="M5.7,21.2c0.1-0.2,0.5-0.5,1.2-0.8c0.6,1.1,1.3,1.9,2.1,2.6C7.8,22.6,6.7,22,5.7,21.2z M1.6,13H5
		c0,2.4,0.5,4.7,1.4,6.6c-0.7,0.3-1.2,0.6-1.5,1C2.9,18.6,1.7,15.9,1.6,13z M5,4.7c0.3,0.4,0.9,0.8,1.6,1C5.7,7.5,5.2,9.7,5.1,12
		H1.6C1.8,9.1,3.1,6.6,5,4.7z M23.6,12H21c-0.1-2.4-0.7-4.6-1.6-6.4c0.4-0.2,0.8-0.5,1-0.7C22.2,6.7,23.4,9.2,23.6,12z M19,20.6
		c0.4,0.2,0.6,0.4,0.6,0.5c-0.6,0.5-1.2,0.9-1.9,1.2C18.2,21.9,18.6,21.3,19,20.6z M9.7,19.8c0.4,1.4,0.8,2.6,1.3,3.4
		c-1.2-0.6-2.3-1.7-3.2-3.1C8.4,20,9,19.9,9.7,19.8z M8.9,13c0,2.1,0.2,4.1,0.6,5.8C8.7,18.9,8,19,7.4,19.2C6.6,17.5,6.1,15.3,6,13
		H8.9z M9.6,6.4C9.2,8.1,9,10,8.9,12H6.1c0.1-2.2,0.7-4.3,1.5-5.9C8.2,6.2,8.9,6.4,9.6,6.4z M7.1,4.9C6.3,4.6,5.9,4.3,5.7,4.1
		c1.2-0.9,2.5-1.6,4-2C8.7,2.7,7.8,3.7,7.1,4.9z M11,2.5c-0.5,0.8-0.9,1.8-1.2,3C9.1,5.4,8.6,5.3,8.1,5.2C8.9,3.9,9.9,3,11,2.5z
		 M17.1,2.6C18,3,18.8,3.6,19.6,4.2c-0.1,0.2-0.3,0.4-0.7,0.6C18.3,3.9,17.7,3.2,17.1,2.6z M16.2,5.4c-0.3-1.2-0.7-2.2-1.2-3
		c1.1,0.5,2.1,1.4,2.8,2.6C17.4,5.2,16.9,5.3,16.2,5.4z M17.1,12c0-2.1-0.3-4-0.6-5.6c0.7-0.1,1.4-0.2,2-0.4c0.9,1.7,1.4,3.8,1.6,6
		H17.1z M16.5,18.9c0.4-1.7,0.6-3.7,0.6-5.9H20c0,2.4-0.5,4.6-1.4,6.4C18,19.1,17.3,19,16.5,18.9z M16.3,19.9
		c0.7,0.1,1.3,0.2,1.8,0.4c-0.8,1.4-1.9,2.4-3.1,3C15.5,22.4,15.9,21.2,16.3,19.9z M12.4,19.6v3.7c-0.6-0.5-1.2-1.8-1.7-3.7
		C11.3,19.6,11.8,19.6,12.4,19.6z M12.4,13v5.6c-0.6,0-1.3,0-1.9,0.1c-0.3-1.6-0.5-3.5-0.6-5.7H12.4z M12.4,6.6V12H9.9
		c0-2.1,0.3-4,0.6-5.4C11.2,6.6,11.8,6.6,12.4,6.6z M12.4,2.2v3.4c-0.6,0-1.1,0-1.6-0.1C11.3,3.8,11.9,2.7,12.4,2.2z M13.4,5.6V2
		c0.6,0.4,1.2,1.6,1.8,3.5C14.7,5.6,14.1,5.6,13.4,5.6z M13.4,12V6.6c0.7,0,1.4-0.1,2-0.1C15.8,8,16,9.8,16.1,12L13.4,12L13.4,12z
		 M13.4,18.6V13h2.7c0,2.3-0.2,4.2-0.6,5.8C14.9,18.7,14.1,18.6,13.4,18.6z M13.4,23.5v-3.9c0.7,0,1.3,0.1,1.8,0.1
		C14.7,21.8,14,23.1,13.4,23.5z M20.4,20.4c-0.2-0.3-0.5-0.5-0.9-0.7c0.9-1.9,1.5-4.2,1.5-6.7h2.6C23.5,15.9,22.3,18.5,20.4,20.4z
		 M24.6,12.7c0-6.6-5.4-12-12-12s-12,5.4-12,12s5.4,12,12,12c0.1,0,0.2,0,0.3,0c0.1,0,0.1,0,0.2,0c0,0,0,0,0,0c0,0,0,0,0,0
		c0,0,0,0,0,0c0.3,0,0.6,0,0.9-0.1C19.9,23.9,24.6,18.8,24.6,12.7z"/>
</g>
</svg>
