<?xml version="1.0" encoding="utf-8"?>
<!-- Generator: Adobe Illustrator 24.3.0, SVG Export Plug-In . SVG Version: 6.00 Build 0)  -->
<svg version="1.1" id="Layer_1" xmlns="http://www.w3.org/2000/svg" xmlns:xlink="http://www.w3.org/1999/xlink" x="0px" y="0px"
	 viewBox="0 0 30 20" style="enable-background:new 0 0 30 20;" xml:space="preserve">
<style type="text/css">
	.st0{clip-path:url(#SVGID_2_);fill:#231E21;}
</style>
<g>
	<defs>
		<rect id="SVGID_1_" width="30" height="20"/>
	</defs>
	<clipPath id="SVGID_2_">
		<use xlink:href="#SVGID_1_"  style="overflow:visible;"/>
	</clipPath>
	<path class="st0" d="M19,10.4h-1v0.9h-0.7v1H18v2.4h1v-2.4h0.7v-1H19V10.4z M15.5,10.4h-1v2.4h-0.7v1h0.7v0.9h1v-0.9h0.7v-1h-0.7
		V10.4z M12,10.4h-1v0.9h-0.7v1H11v2.4h1v-2.4h0.7v-1H12V10.4z M9.4,9.1h11.3V16H9.4V9.1z M8.4,17h13.3V8.1H8.4V17z M23,18.1H4.9
		c-1.7,0-3.2-1.3-3.4-3c-0.2-1.7,1-3.3,2.8-3.6l1-0.2l-0.2-1c0-0.2,0-0.4,0-0.6c0-1.9,1.6-3.4,3.5-3.4c0.2,0,0.4,0,0.6,0.1l1.2,0.2
		l0-1.2c0-1.3,1.4-1.4,1.8-1.4c0.3,0,0.7,0.1,1,0.3L14,4.9l0.5-0.8c0.9-1.4,2.5-2.3,4.2-2.2c2.9,0,5,1.9,5,4.5v0.1l0,0.8l0.8,0.2
		c2.6,0.7,4.3,3.3,4,6C28.1,16.2,25.7,18.2,23,18.1L23,18.1z M24.8,6.6c0-0.1,0-0.1,0-0.2c0-3.3-2.7-5.5-6-5.5c-2,0-3.9,1-5.1,2.7
		c-0.5-0.3-1-0.4-1.5-0.4c-1.6,0-2.8,0.8-2.8,2.3C9,5.4,8.8,5.4,8.5,5.4c-1.3,0-2.6,0.5-3.4,1.5c-0.9,1-1.2,2.3-1,3.6
		c-2.2,0.4-3.8,2.4-3.6,4.7s2.1,4,4.4,3.9H23c3.2,0.1,6-2.3,6.4-5.5S27.9,7.4,24.8,6.6z"/>
</g>
</svg>
