<?xml version="1.0" encoding="utf-8"?>
<!-- Generator: Adobe Illustrator 24.3.0, SVG Export Plug-In . SVG Version: 6.00 Build 0)  -->
<svg version="1.1" id="Layer_1" xmlns="http://www.w3.org/2000/svg" xmlns:xlink="http://www.w3.org/1999/xlink" x="0px" y="0px"
	 viewBox="0 0 24 24" style="enable-background:new 0 0 24 24;" xml:space="preserve">
<style type="text/css">
	.st0{clip-path:url(#SVGID_2_);fill:#231E21;}
</style>
<g>
	<defs>
		<rect id="SVGID_1_" width="24" height="24"/>
	</defs>
	<clipPath id="SVGID_2_">
		<use xlink:href="#SVGID_1_"  style="overflow:visible;"/>
	</clipPath>
	<path class="st0" d="M19.8,13.7l-1.2-2.9h-1l1.7,4.1h1l1.7-4.1h-1L19.8,13.7z M3.7,11.6h0.9c0.2,0,0.4,0,0.5,0.2
		c0.1,0.1,0.2,0.3,0.2,0.4c0,0.2-0.1,0.3-0.2,0.4c-0.2,0.1-0.3,0.2-0.5,0.2H3.7V11.6z M3.7,13.5h1c0.3,0,0.6-0.1,0.8-0.2
		c0.2-0.1,0.4-0.3,0.6-0.5c0.3-0.4,0.3-1,0-1.4c-0.1-0.2-0.3-0.4-0.6-0.5c-0.2-0.1-0.5-0.2-0.8-0.2H2.8v4.1h0.9V13.5z M4.5,5.7
		l13,13l-0.8,0.8l3.4,0.9L19.2,17l-0.8,0.8l-13-13L6.2,4L2.8,3.1l0.9,3.4L4.5,5.7z M19.1,4.4l0.4,0.4l1.8-1.8l-0.4-0.4L19.1,4.4z
		 M13.7,9.8l0.4,0.4L16,8.5L15.5,8L13.7,9.8z M16.4,7.1l0.4,0.4l1.8-1.8l-0.4-0.4L16.4,7.1z M3.1,20.6l0.4,0.4l1.8-1.8l-0.4-0.4
		L3.1,20.6z M8.4,15.2l0.4,0.4l1.8-1.8l-0.4-0.4L8.4,15.2z M5.7,17.9l0.4,0.4L8,16.6l-0.4-0.4L5.7,17.9z M23,23H1V1h22V23z M0,0v24
		h24V0H0z"/>
</g>
</svg>
