<?xml version="1.0" encoding="utf-8"?>
<!-- Generator: Adobe Illustrator 24.3.0, SVG Export Plug-In . SVG Version: 6.00 Build 0)  -->
<svg version="1.1" id="Layer_1" xmlns="http://www.w3.org/2000/svg" xmlns:xlink="http://www.w3.org/1999/xlink" x="0px" y="0px"
	 viewBox="0 0 26 26" style="enable-background:new 0 0 26 26;" xml:space="preserve">
<style type="text/css">
	.st0{clip-path:url(#SVGID_2_);fill:#231E21;}
</style>
<g>
	<defs>
		<rect id="SVGID_1_" width="26" height="26"/>
	</defs>
	<clipPath id="SVGID_2_">
		<use xlink:href="#SVGID_1_"  style="overflow:visible;"/>
	</clipPath>
	<path class="st0" d="M11.5,10.9L11,11.4l2.9,2.9l0.4-0.4L11.5,10.9z M16,8.9h-4.1v0.6H16V8.9z M8.7,16.1h0.6V12H8.7V16.1z M9,7.7
		c0.8,0,1.4,0.6,1.4,1.4S9.7,10.5,9,10.5S7.6,9.9,7.6,9.1S8.2,7.7,9,7.7z M9,11.5c1.3,0,2.4-1.1,2.4-2.4S10.3,6.7,9,6.7
		S6.6,7.8,6.6,9.1S7.6,11.5,9,11.5z M18.4,7.2c-1,0-1.9,0.8-1.9,1.9c0,1,0.8,1.9,1.9,1.9c1,0,1.9-0.8,1.9-1.9S19.5,7.2,18.4,7.2z
		 M9,16.6c-1,0-1.9,0.8-1.9,1.9c0,1,0.8,1.9,1.9,1.9s1.9-0.8,1.9-1.9C10.9,17.5,10,16.6,9,16.6z M15.9,13.9c-1,0-1.9,0.8-1.9,1.9
		c0,1,0.8,1.9,1.9,1.9s1.9-0.8,1.9-1.9C17.8,14.8,16.9,13.9,15.9,13.9z M12.8,24.8c-6.3,0-11.5-5.2-11.5-11.5S6.4,1.8,12.8,1.8
		S24.3,7,24.3,13.3S19.1,24.8,12.8,24.8z M12.8,0.8C5.9,0.8,0.3,6.4,0.3,13.3s5.6,12.5,12.5,12.5s12.5-5.6,12.5-12.5
		S19.7,0.8,12.8,0.8z"/>
</g>
</svg>
