<?xml version="1.0" encoding="utf-8"?>
<!-- Generator: Adobe Illustrator 24.3.0, SVG Export Plug-In . SVG Version: 6.00 Build 0)  -->
<svg version="1.1" id="Layer_1" xmlns="http://www.w3.org/2000/svg" xmlns:xlink="http://www.w3.org/1999/xlink" x="0px" y="0px"
	 viewBox="0 0 32 30" style="enable-background:new 0 0 32 30;" xml:space="preserve">
<style type="text/css">
	.st0{clip-path:url(#SVGID_2_);fill:#231E21;}
</style>
<g>
	<defs>
		<rect id="SVGID_1_" width="32" height="30"/>
	</defs>
	<clipPath id="SVGID_2_">
		<use xlink:href="#SVGID_1_"  style="overflow:visible;"/>
	</clipPath>
	<path class="st0" d="M30.1,29H1.9V1h28.2V29z M0.9,0v30h30.2V0H0.9z M15.5,13.1h1V8.3h0.8L16,5.5l-1.3,2.9h0.8L15.5,13.1L15.5,13.1
		z M17.4,21.4h-0.8v-4.8h-1v4.8h-0.8l1.3,2.9L17.4,21.4z M20.8,15.3h4.8v-1h-4.8v-0.8L18,14.8l2.9,1.3V15.3z M11.2,16.2l2.9-1.3
		l-2.9-1.3v0.8H6.5v1h4.8V16.2z M16,3.9c6.1,0,11,4.9,11,11s-4.9,11-11,11s-11-4.9-11-11S10,3.9,16,3.9z M16,26.9
		c6.6,0,12-5.4,12-12s-5.4-12-12-12S4,8.2,4,14.9S9.4,26.9,16,26.9z"/>
</g>
</svg>
