<?xml version="1.0" encoding="utf-8"?>
<!-- Generator: Adobe Illustrator 24.3.0, SVG Export Plug-In . SVG Version: 6.00 Build 0)  -->
<svg version="1.1" id="Layer_1" xmlns="http://www.w3.org/2000/svg" xmlns:xlink="http://www.w3.org/1999/xlink" x="0px" y="0px"
	 viewBox="0 0 25 19" style="enable-background:new 0 0 25 19;" xml:space="preserve">
<style type="text/css">
	.st0{clip-path:url(#SVGID_2_);fill:#231E21;}
</style>
<g>
	<defs>
		<rect id="SVGID_1_" width="25" height="19"/>
	</defs>
	<clipPath id="SVGID_2_">
		<use xlink:href="#SVGID_1_"  style="overflow:visible;"/>
	</clipPath>
	<path class="st0" d="M13.8,18.2v-1.8H13v1.8h-1.3v-1.8H11V19h10.8v-2.6h-0.8v1.8h-1.3v-1.8h-0.8v1.8h-1.3v-1.8h-0.8v1.8h-1.3v-1.8
		h-0.8v1.8H13.8z M10.4,10.2h2.4v-1h-2.4c-0.1-0.4-0.3-0.8-0.6-1.1c-0.4-0.4-1-0.6-1.6-0.6C7,7.5,6,8.5,6,9.7s1,2.2,2.2,2.2
		C9.2,11.9,10.1,11.2,10.4,10.2z M8.2,8.5L8.2,8.5c0.5,0,0.9,0.3,1.1,0.7c0.2,0.5,0.1,1-0.3,1.3c-0.3,0.3-0.9,0.4-1.3,0.3
		C7.3,10.6,7,10.2,7,9.7C7,9,7.5,8.5,8.2,8.5z M3.9,0.8H0.8v17.3h3.1V0.8z M2.9,1.8v15.3H1.8V1.8C1.8,1.8,2.9,1.8,2.9,1.8z
		 M24.8,16.1V2.8H4.5v1h19.2v11.3H4.5v1H24.8z M20.5,6.1h-7.2v7.2h7.2V6.1z M19.5,7.1v5.2h-5.2V7.1H19.5z"/>
</g>
</svg>
