<?xml version="1.0" encoding="utf-8"?>
<!-- Generator: Adobe Illustrator 24.3.0, SVG Export Plug-In . SVG Version: 6.00 Build 0)  -->
<svg version="1.1" id="Layer_1" xmlns="http://www.w3.org/2000/svg" xmlns:xlink="http://www.w3.org/1999/xlink" x="0px" y="0px"
	 viewBox="0 0 24 25" style="enable-background:new 0 0 24 25;" xml:space="preserve">
<style type="text/css">
	.st0{clip-path:url(#SVGID_2_);}
</style>
<g>
	<defs>
		<rect id="SVGID_1_" width="24" height="25"/>
	</defs>
	<clipPath id="SVGID_2_">
		<use xlink:href="#SVGID_1_"  style="overflow:visible;"/>
	</clipPath>
	<path class="st0" d="M17.7,8.1l-2.4-1.2V3l5.7,3c0.2,0.1,0.3,0.3,0.3,0.5v7L18,11.6V8.6C18,8.4,17.9,8.2,17.7,8.1z M15.3,17.2
		l-3.4-1.7v-3.1c0-0.2-0.1-0.4-0.3-0.5l-2.4-1.2V6.8l3.4,1.8v3.1c0,0.2,0.1,0.4,0.3,0.5l2.4,1.2V17.2z M9.3,21l-5.8-3
		c-0.2-0.1-0.3-0.3-0.3-0.5v-6.9l3.4,1.7v3.1c0,0.2,0.1,0.4,0.3,0.5l2.4,1.2V21z M24,4.7c0-0.2-0.1-0.4-0.3-0.5l-8.1-4.2
		C15.4,0,15.3,0,15.2,0c0,0-0.1,0-0.1,0c0,0,0,0,0,0l-2.1,1.3c-0.2,0.1-0.3,0.3-0.3,0.5V2c0,0,0,0,0,0v3.5L9.6,3.9
		c-0.1-0.1-0.3,0-0.4,0c0,0-0.1,0-0.1,0c0,0,0,0,0,0L6.9,5.3C6.7,5.4,6.6,5.6,6.6,5.7v3.6L3.5,7.7c-0.1-0.1-0.3-0.1-0.4,0
		c0,0,0,0-0.1,0c0,0,0,0-0.1,0L0.9,9.1C0.7,9.2,0.6,9.4,0.6,9.6v0.1c0,0,0,0,0,0v9.6c0,0.2,0.1,0.4,0.3,0.5l8,4.2c0,0,0,0,0,0l0.1,0
		c0.2,0.1,0.4,0.1,0.6,0l2.1-1.3c0,0,0.1-0.1,0.1-0.1c0.1-0.1,0.2-0.2,0.2-0.4v-3.6l3,1.6c0,0,0,0,0,0l0.1,0c0.1,0,0.2,0.1,0.3,0
		c0.1,0,0.2,0,0.3-0.1l2.1-1.3c0.1,0,0.1-0.1,0.1-0.1c0.1-0.1,0.2-0.2,0.2-0.4v-3.6l3,1.6c0,0,0,0,0,0l0,0l0.1,0
		c0.2,0.1,0.4,0.1,0.5,0l2.1-1.3c0.1,0,0.1-0.1,0.1-0.1c0.1-0.1,0.2-0.2,0.2-0.4V4.7z"/>
</g>
</svg>
