<?xml version="1.0" encoding="utf-8"?>
<!-- Generator: Adobe Illustrator 24.3.0, SVG Export Plug-In . SVG Version: 6.00 Build 0)  -->
<svg version="1.1" id="Layer_1" xmlns="http://www.w3.org/2000/svg" xmlns:xlink="http://www.w3.org/1999/xlink" x="0px" y="0px"
	 viewBox="0 0 25 25" style="enable-background:new 0 0 25 25;" xml:space="preserve">
<style type="text/css">
	.st0{clip-path:url(#SVGID_2_);fill:#231E21;}
</style>
<g>
	<defs>
		<rect id="SVGID_1_" width="25" height="25"/>
	</defs>
	<clipPath id="SVGID_2_">
		<use xlink:href="#SVGID_1_"  style="overflow:visible;"/>
	</clipPath>
	<path class="st0" d="M12.5,23.8c-3.4,0-6.6-1.5-8.7-4.2s-2.8-6.2-2-9.5l1.3,6c0,0.5,0.4,0.9,0.9,0.9c0.4,0,0.8-0.3,0.9-0.7l1.3-6.6
		L5.8,9.7l0.6,0.1l1.4,6.7c0.1,0.4,0.4,0.7,0.8,0.7h0c0.4,0,0.8-0.3,0.9-0.7l1.7-6.8l-0.5-0.1l0.6,0.1l1.3,6.7
		c0,0.4,0.4,0.7,0.8,0.7c0.4,0,0.9-0.3,1-0.7L16,9.7l1.3,6.8c0.1,0.4,0.4,0.7,0.8,0.7c0.4,0,0.8-0.3,0.9-0.7l1.5-6.7
		c0-0.1,0.1-0.1,0.1,0l2.1,6.7C21.2,20.9,17.1,23.8,12.5,23.8z M12.5,1.8c3.3,0,6.3,1.4,8.4,3.9c2.1,2.5,3,5.8,2.4,9l-1.6-5.2
		c-0.1-0.4-0.4-0.8-0.9-0.8c-0.5,0-1,0.3-1.2,0.8l-1.4,6.3L17,9.5c-0.1-0.4-0.5-0.7-0.9-0.8c-0.5,0-1,0.3-1.1,0.8l-1.5,6.3l-1.2-6.3
		c-0.1-0.5-0.5-0.8-1-0.8c-0.5,0-1,0.3-1.1,0.8l-1.5,6.3L7.3,9.5c-0.1-0.5-0.5-0.8-1-0.8c-0.5,0-0.9,0.3-1,0.8L4,15.6L2.4,8.3
		C4.2,4.4,8.1,1.8,12.5,1.8z M12.5,0.8c-4.8,0-9.2,2.9-11.1,7.4h0l0,0c-2,4.9-0.6,10.5,3.5,13.9s9.9,3.6,14.3,0.7
		c4.4-2.9,6.4-8.4,4.8-13.5C22.4,4.3,17.7,0.8,12.5,0.8L12.5,0.8z"/>
</g>
</svg>
