<?xml version="1.0" encoding="utf-8"?>
<!-- Generator: Adobe Illustrator 24.3.0, SVG Export Plug-In . SVG Version: 6.00 Build 0)  -->
<svg version="1.1" id="Layer_1" xmlns="http://www.w3.org/2000/svg" xmlns:xlink="http://www.w3.org/1999/xlink" x="0px" y="0px"
	 viewBox="0 0 30 26" style="enable-background:new 0 0 30 26;" xml:space="preserve">
<style type="text/css">
	.st0{clip-path:url(#SVGID_2_);fill:#231E21;}
</style>
<g>
	<defs>
		<rect id="SVGID_1_" width="30" height="26"/>
	</defs>
	<clipPath id="SVGID_2_">
		<use xlink:href="#SVGID_1_"  style="overflow:visible;"/>
	</clipPath>
	<path class="st0" d="M25.8,20.8c-0.4,0-0.8,0.3-0.8,0.8s0.3,0.8,0.8,0.8s0.8-0.3,0.8-0.8C26.6,21.2,26.2,20.8,25.8,20.8z M7.8,23.1
		h1V20h-1V23.1z M6.2,23.1h1V20h-1V23.1z M4.7,23.1h1V20h-1V23.1z M3.1,23.1h1V20h-1V23.1z M1,24.6l0-6h27.5l0,6H1z M29.5,17.6H0
		l0,8h29.5L29.5,17.6z M25.8,12.2c-0.4,0-0.8,0.3-0.8,0.8c0,0.4,0.3,0.8,0.8,0.8s0.8-0.3,0.8-0.8C26.6,12.6,26.2,12.2,25.8,12.2z
		 M7.8,14.6h1v-3.1h-1V14.6z M6.2,14.6h1v-3.1h-1V14.6z M4.7,14.6h1v-3.1h-1V14.6z M3.1,14.6h1v-3.1h-1V14.6z M1,16l0-6h27.5l0,6H1z
		 M29.5,9H0l0,8h29.5L29.5,9z M25.8,3.7C25.4,3.7,25,4,25,4.4c0,0.4,0.3,0.8,0.8,0.8s0.8-0.3,0.8-0.8C26.6,4,26.2,3.7,25.8,3.7z
		 M7.8,6h1V2.9h-1V6z M6.2,6h1V2.9h-1V6z M4.7,6h1V2.9h-1V6z M3.1,6h1V2.9h-1V6z M1,7.4l0-6h27.5l0,6H1z M29.5,0.4H0l0,8h29.5
		L29.5,0.4z"/>
</g>
</svg>
