<?xml version="1.0" encoding="utf-8"?>
<!-- Generator: Adobe Illustrator 24.3.0, SVG Export Plug-In . SVG Version: 6.00 Build 0)  -->
<svg version="1.1" id="Layer_1" xmlns="http://www.w3.org/2000/svg" xmlns:xlink="http://www.w3.org/1999/xlink" x="0px" y="0px"
	 viewBox="0 0 30 9" style="enable-background:new 0 0 30 9;" xml:space="preserve">
<style type="text/css">
	.st0{clip-path:url(#SVGID_2_);fill:#231E21;}
</style>
<g>
	<defs>
		<rect id="SVGID_1_" width="30" height="9"/>
	</defs>
	<clipPath id="SVGID_2_">
		<use xlink:href="#SVGID_1_"  style="overflow:visible;"/>
	</clipPath>
	<path class="st0" d="M25.8,3.8c-0.4,0-0.8,0.3-0.8,0.8c0,0.4,0.3,0.8,0.8,0.8s0.8-0.3,0.8-0.8C26.6,4.2,26.2,3.8,25.8,3.8z
		 M7.8,6.1h1V3h-1V6.1z M6.2,6.1h1V3h-1V6.1z M4.7,6.1h1V3h-1V6.1z M3.1,6.1h1V3h-1V6.1z M1,7.6l0-6h27.5l0,6H1z M29.5,0.6H0l0,8
		h29.5L29.5,0.6z"/>
</g>
</svg>
