<?xml version="1.0" encoding="utf-8"?>
<!-- Generator: Adobe Illustrator 24.3.0, SVG Export Plug-In . SVG Version: 6.00 Build 0)  -->
<svg version="1.1" id="Layer_1" xmlns="http://www.w3.org/2000/svg" xmlns:xlink="http://www.w3.org/1999/xlink" x="0px" y="0px"
	 viewBox="0 0 25 15" style="enable-background:new 0 0 25 15;" xml:space="preserve">
<style type="text/css">
	.st0{clip-path:url(#SVGID_2_);fill:#231E21;}
</style>
<g>
	<defs>
		<rect id="SVGID_1_" width="25" height="15"/>
	</defs>
	<clipPath id="SVGID_2_">
		<use xlink:href="#SVGID_1_"  style="overflow:visible;"/>
	</clipPath>
	<path class="st0" d="M1,11.4C1,12.7,1.8,14,3,14.5V8.3C1.8,8.8,1,10,1,11.4z M20.6,4.8c0,0,0-0.1,0-0.1c0-2.6-2.2-4.4-4.9-4.4
		c-0.9,0-1.7,0.2-2.5,0.7h0v13.9h5.9c2.9,0,5.2-2.2,5.3-5.1C24.4,7.4,22.9,5.4,20.6,4.8z M9.2,2.3v12.5h2.1V2.2
		c-0.3-0.1-0.5-0.2-0.8-0.2C10,2.1,9.6,2.1,9.2,2.3z M5.1,14.8h2.1V3.9C6.4,4,5.7,4.3,5.1,4.7V14.8z"/>
</g>
</svg>
