<?xml version="1.0" encoding="utf-8"?>
<!-- Generator: Adobe Illustrator 24.3.0, SVG Export Plug-In . SVG Version: 6.00 Build 0)  -->
<svg version="1.1" id="Layer_1" xmlns="http://www.w3.org/2000/svg" xmlns:xlink="http://www.w3.org/1999/xlink" x="0px" y="0px"
	 viewBox="0 0 26 25" style="enable-background:new 0 0 26 25;" xml:space="preserve">
<style type="text/css">
	.st0{clip-path:url(#SVGID_2_);fill:#231E21;}
</style>
<g>
	<defs>
		<rect id="SVGID_1_" width="26" height="25"/>
	</defs>
	<clipPath id="SVGID_2_">
		<use xlink:href="#SVGID_1_"  style="overflow:visible;"/>
	</clipPath>
	<path class="st0" d="M11.4,6h0.8v4.8h1V6H14l-1.3-2.9L11.4,6z M13.2,14.3h-1v4.8h-0.8l1.3,2.9l1.3-2.9h-0.8L13.2,14.3L13.2,14.3z
		 M17.5,12v-0.8l-2.9,1.3l2.9,1.3V13h4.8v-1L17.5,12L17.5,12z M7.9,12H3.1v1h4.8v0.8l2.9-1.3l-2.9-1.3V12z M12.7,24
		C6.4,24,1.2,18.8,1.2,12.5S6.4,1,12.7,1s11.5,5.2,11.5,11.5S19.1,24,12.7,24z M12.7,0C5.8,0,0.2,5.6,0.2,12.5S5.8,25,12.7,25
		s12.5-5.6,12.5-12.5S19.6,0,12.7,0z"/>
</g>
</svg>
