<?xml version="1.0" encoding="utf-8"?>
<!-- Generator: Adobe Illustrator 24.3.0, SVG Export Plug-In . SVG Version: 6.00 Build 0)  -->
<svg version="1.1" id="Layer_1" xmlns="http://www.w3.org/2000/svg" xmlns:xlink="http://www.w3.org/1999/xlink" x="0px" y="0px"
	 viewBox="0 0 31 14" style="enable-background:new 0 0 31 14;" xml:space="preserve">
<style type="text/css">
	.st0{clip-path:url(#SVGID_2_);fill:#231E21;}
</style>
<g>
	<defs>
		<rect id="SVGID_1_" width="31" height="14"/>
	</defs>
	<clipPath id="SVGID_2_">
		<use xlink:href="#SVGID_1_"  style="overflow:visible;"/>
	</clipPath>
	<path class="st0" d="M0.7,0.4v11.9h2.2V14h6.9v-1.6h2.5V14h8.8l0-1.6h2.7v1.5c0,0,5.3,0,6.4,0h0.1c0,0,0-13.1,0-13.5L13,0.4v1.2
		H4.8V0.4H0.7z M0.7,0.4L0.7,0.4L0.7,0.4L0.7,0.4z M27.4,11.2v1.4h1v-1.4H27.4z M25.6,11.2v1.4h1v-1.4H25.6z M18,11.2v1.4h1v-1.4H18
		z M16.1,11.2v1.4h1v-1.4H16.1z M14.3,11.2v1.4h1v-1.4H14.3z M6.7,11.2v1.4h1v-1.4H6.7z M4.8,11.2v1.4h1v-1.4H4.8z M8.6,10.1l0-6.4
		H4.4v6.4L8.6,10.1z M13.2,9.2V10h0.9V9.2H13.2z M13.2,7.9v0.7h0.9V7.9H13.2z M13.2,6.5v0.8h0.9V6.5H13.2z M13.2,5.2v0.8h0.9V5.2
		H13.2z M13.2,3.8v0.8h0.9V3.8H13.2z M18.9,9.2V10h0.9V9.2H18.9z M18.9,7.9v0.7h0.9V7.9H18.9z M18.9,6.5v0.8h0.9V6.5H18.9z
		 M18.9,5.2v0.8h0.9V5.2H18.9z M18.9,3.8v0.8h0.9V3.8H18.9z M18.6,10.1l0-6.4h-4.2v6.4L18.6,10.1z M28.1,4.7l0-1.9h-2.3v1.9
		L28.1,4.7z M24.6,4.7l0-1.9h-2.3v1.9L24.6,4.7z M1.7,1.4h2v1.3H14V1.4l15.3,0l0,11.5l-4.5,0v-0.5v-1h-1h-2.7h-1v1v0.6h-6.8v-1.6
		H8.9V13H3.9v-1.7H1.7V1.4z"/>
</g>
</svg>
