<?xml version="1.0" encoding="utf-8"?>
<!-- Generator: Adobe Illustrator 24.3.0, SVG Export Plug-In . SVG Version: 6.00 Build 0)  -->
<svg version="1.1" id="Layer_1" xmlns="http://www.w3.org/2000/svg" xmlns:xlink="http://www.w3.org/1999/xlink" x="0px" y="0px"
	 viewBox="0 0 17 24" style="enable-background:new 0 0 17 24;" xml:space="preserve">
<style type="text/css">
	.st0{clip-path:url(#SVGID_2_);fill:#231E21;}
</style>
<g>
	<defs>
		<rect id="SVGID_1_" width="17" height="24"/>
	</defs>
	<clipPath id="SVGID_2_">
		<use xlink:href="#SVGID_1_"  style="overflow:visible;"/>
	</clipPath>
	<path class="st0" d="M15.4,16.5C15,20.2,12,23,8.2,23c-4,0-7.2-3.2-7.2-7.2c0-1.2,0.3-2.4,0.9-3.5c0,0,0.1-0.1,0.1-0.1L2.1,12
		c0.1-0.1,0.2-0.2,0.2-0.4c0.1-0.1,0.2-0.3,0.3-0.4l0.1-0.1c0.5-0.6,1.1-1.1,1.6-1.5l0.2-0.1l0.7-0.3c1-0.4,2-0.7,3-0.7
		c1,0,2.1,0.2,3,0.7L12,9.6l0.1,0.1c1.9,1.2,3.1,3.2,3.3,5.4l0,0.1l0,0l0,0.1c0,0.2,0,0.3,0,0.5C15.5,16,15.4,16.2,15.4,16.5z
		 M4.8,4.2C4.8,2.4,6.2,1,7.9,1h0.7c1.7,0,3.1,1.4,3.1,3.2v4.1c-1-0.5-2.2-0.8-3.4-0.8C7,7.5,5.9,7.8,4.8,8.3L4.8,4.2L4.8,4.2z
		 M16.4,15C16.4,15,16.4,15,16.4,15c-0.3-2.7-1.7-4.9-3.8-6.2V4.2c0-2.3-1.8-4.2-4-4.2H7.9c-2.2,0-4,1.9-4,4.2v4.6
		c-0.7,0.5-1.3,1-1.9,1.7c0,0-0.1,0.1-0.1,0.1c-0.1,0.2-0.2,0.3-0.3,0.5c-0.1,0.1-0.2,0.3-0.3,0.4c-0.1,0.1-0.1,0.2-0.2,0.3
		c-0.7,1.2-1,2.5-1,4C0,20.3,3.7,24,8.2,24c4.3,0,7.8-3.2,8.2-7.4c0-0.3,0-0.6,0-0.9C16.5,15.5,16.4,15.3,16.4,15z M8.2,13.5
		c-0.7,0-1.4,0.6-1.4,1.4c0,0.5,0.3,0.9,0.7,1.2v1.4c0,0.2,0.2,0.4,0.4,0.4h0.6c0.2,0,0.4-0.2,0.4-0.4V16c0.4-0.2,0.7-0.7,0.7-1.2
		C9.6,14.1,9,13.5,8.2,13.5z M8.9,9.7c0-0.3-0.2-0.5-0.5-0.5c-3.8,0-6.9,3.1-6.9,6.9c0,0.3,0.2,0.5,0.5,0.5s0.5-0.2,0.5-0.5
		c0-3.2,2.6-5.9,5.9-5.9C8.7,10.2,8.9,9.9,8.9,9.7z"/>
</g>
</svg>
