<?xml version="1.0" encoding="utf-8"?>
<!-- Generator: Adobe Illustrator 24.3.0, SVG Export Plug-In . SVG Version: 6.00 Build 0)  -->
<svg version="1.1" id="Layer_1" xmlns="http://www.w3.org/2000/svg" xmlns:xlink="http://www.w3.org/1999/xlink" x="0px" y="0px"
	 viewBox="0 0 30 24" style="enable-background:new 0 0 30 24;" xml:space="preserve">
<style type="text/css">
	.st0{clip-path:url(#SVGID_2_);fill:#231E21;}
</style>
<g>
	<defs>
		<rect id="SVGID_1_" width="30" height="24"/>
	</defs>
	<clipPath id="SVGID_2_">
		<use xlink:href="#SVGID_1_"  style="overflow:visible;"/>
	</clipPath>
	<path class="st0" d="M25.2,21c-0.3,0.6-0.8,1-1.5,1.2c-0.7,0.2-1.4,0.2-2.1-0.2c-0.5-0.3-0.9-0.7-1.1-1.2c-0.2-0.5-0.3-1-0.2-1.6
		c0.1-0.6,0.3-1,0.7-1.4c0.4-0.4,1-0.7,1.6-0.7c0.5,0,0.9,0,1.3,0.3c0.4,0.2,0.8,0.5,1,0.9c0.3,0.4,0.4,0.8,0.5,1.3
		C25.6,20,25.5,20.5,25.2,21z M9.3,16.6c0.1-0.8,0.5-1.5,1.1-2.1c0.6-0.6,1.4-1,2.4-1c0.7-0.1,1.3,0.1,1.9,0.4
		c0.6,0.3,1.1,0.7,1.5,1.3c0.4,0.6,0.6,1.2,0.7,1.9c0.1,0.7-0.1,1.5-0.5,2.2c-0.5,0.9-1.2,1.5-2.3,1.8c-1.1,0.3-2.1,0.3-3.1-0.3
		c-0.7-0.4-1.3-1-1.6-1.8C9.3,18.2,9.2,17.5,9.3,16.6z M30,12.7c0.1-2.8-1.8-5.2-4.2-5.4c-0.3-3.5-3-6.3-6.3-6.4h-0.2
		c-2.7,0-5,1.8-6,4.4c-0.7-0.3-1.4-0.5-2.2-0.5H11c-2.6,0-4.9,1.9-5.4,4.4C5.2,9,4.9,8.9,4.5,8.9H4.4C2,8.9,0.1,10.8,0,13.2
		c-0.1,2.4,2.2,4.7,4.6,4.7c0.1,0,0.2,0,0.5,0h1.8v0.4c0.1,0,0.3,0.1,0.6,0.2c0.3,0.1,0.5,0.1,0.6,0.1c0,0.2,0.1,0.4,0.2,0.7
		c0.2,0.3,0.2,0.6,0.3,0.6c-0.4,0.6-0.6,1-0.6,1.1c0.8,0.8,1.2,1.2,1.4,1.3c0.1,0,0.3-0.2,0.5-0.3c0.2-0.1,0.4-0.2,0.6-0.3
		c0,0,0.4,0.2,1.2,0.5c0,0.1,0.1,0.3,0.2,0.6c0.1,0.3,0.1,0.5,0.2,0.6H14c0.1-0.1,0.1-0.3,0.2-0.7c0.1-0.3,0.1-0.5,0.2-0.7
		c0.4-0.1,0.8-0.2,1.2-0.5c0.4,0.3,0.8,0.5,1.1,0.7c0.8-0.8,1.3-1.3,1.4-1.4c-0.1-0.1-0.2-0.3-0.3-0.5c-0.2-0.3-0.3-0.5-0.3-0.6
		c0.1-0.1,0.2-0.3,0.3-0.6c0.1-0.3,0.2-0.5,0.3-0.6c0.2,0,0.4-0.1,0.6-0.1c0.3-0.1,0.5-0.1,0.6-0.2v-2c-0.1,0-0.3-0.1-0.6-0.2
		c-0.2-0.1-0.5-0.1-0.6-0.1c0,0.1-0.1-0.4-0.5-1.3c0.2-0.2,0.4-0.6,0.7-1.1c-0.1-0.1-0.4-0.3-0.7-0.7c-0.3-0.3-0.5-0.5-0.7-0.6
		c-0.1,0-0.3,0.2-0.6,0.3c-0.2,0.1-0.4,0.2-0.6,0.3c-0.1-0.1-0.3-0.2-0.6-0.3c-0.3-0.1-0.5-0.2-0.6-0.2c-0.2-0.7-0.3-1.1-0.4-1.3
		h-1.9c-0.1,0.2-0.1,0.4-0.2,0.7c-0.1,0.4-0.2,0.6-0.2,0.7c-0.1,0-0.5,0.2-1.2,0.5c-0.3-0.2-0.6-0.4-1.1-0.7C8.6,13,8.1,13.5,8,13.7
		c0.1,0.2,0.4,0.5,0.7,1.1c-0.1,0.1-0.2,0.3-0.3,0.6c-0.1,0.3-0.2,0.5-0.3,0.6c-0.2,0-0.4,0.1-0.6,0.1c-0.3,0.1-0.5,0.1-0.6,0.2v0.6
		c-0.1,0-0.1,0-0.2,0H5.1c-0.3,0-0.4,0-0.5,0c-1.9,0-3.7-1.8-3.6-3.7c0-1.8,1.6-3.3,3.4-3.3h0.1c0.3,0,0.6,0.1,0.8,0.1l1,0.3l0.2-1
		C7,7.2,8.9,5.7,11,5.7h0.1c0.7,0,1.3,0.2,1.8,0.4l1,0.5l0.4-1c0.9-2.3,2.9-3.7,5.1-3.7h0.1c2.8,0.1,5.1,2.4,5.3,5.5l0.1,0.8
		l0.8,0.1c1.9,0.2,3.3,2.1,3.3,4.4c0,2.1-1.4,3.8-3,4.2c0,0-0.1-0.1-0.1-0.1c-0.2-0.2-0.4-0.4-0.5-0.4c-0.1,0-0.2,0.1-0.4,0.2
		c-0.2,0.1-0.3,0.2-0.4,0.2c-0.1-0.1-0.2-0.1-0.4-0.2c-0.2-0.1-0.4-0.1-0.4-0.2c-0.1-0.5-0.2-0.7-0.2-0.9h-1.3
		c0,0.1-0.1,0.3-0.1,0.4C22,16.2,22,16.3,22,16.4c-0.1,0-0.4,0.1-0.9,0.3c-0.2-0.1-0.4-0.3-0.8-0.5c-0.6,0.5-0.9,0.9-0.9,1
		c0.1,0.1,0.2,0.4,0.5,0.7c-0.1,0.1-0.1,0.2-0.2,0.4c-0.1,0.2-0.2,0.4-0.2,0.4c-0.1,0-0.3,0-0.4,0.1C18.8,19,18.7,19,18.6,19v1.4
		c0.1,0,0.2,0.1,0.4,0.1c0.2,0,0.3,0.1,0.4,0.1c0,0.1,0.1,0.3,0.1,0.5c0.1,0.2,0.2,0.4,0.2,0.4c-0.2,0.4-0.4,0.7-0.4,0.8
		c0.5,0.5,0.8,0.8,0.9,0.9c0.1,0,0.2-0.1,0.4-0.2c0.2-0.1,0.3-0.2,0.4-0.2c0,0,0.3,0.1,0.8,0.4c0,0.1,0.1,0.2,0.1,0.4
		c0,0.2,0.1,0.3,0.1,0.4h1.3c0-0.1,0.1-0.2,0.1-0.5c0-0.2,0.1-0.4,0.2-0.4c0.3,0,0.5-0.2,0.8-0.3c0.3,0.2,0.5,0.3,0.8,0.5
		c0.5-0.5,0.9-0.9,0.9-1c-0.1-0.1-0.1-0.2-0.2-0.4c-0.1-0.2-0.2-0.3-0.2-0.4c0.1-0.1,0.1-0.2,0.2-0.4c0.1-0.2,0.1-0.4,0.2-0.4
		c0.1,0,0.3,0,0.4-0.1c0.2-0.1,0.3-0.1,0.4-0.1v-1.4c-0.1,0-0.2-0.1-0.4-0.1c-0.2-0.1-0.3-0.1-0.4-0.1c0,0.1-0.1-0.2-0.3-0.9
		c0,0,0.1-0.1,0.1-0.1C28.2,17.5,29.9,15.3,30,12.7z M16.4,16.8H9.7v1h6.7V16.8z"/>
</g>
</svg>
