<?xml version="1.0" encoding="utf-8"?>
<!-- Generator: Adobe Illustrator 24.3.0, SVG Export Plug-In . SVG Version: 6.00 Build 0)  -->
<svg version="1.1" id="Layer_1" xmlns="http://www.w3.org/2000/svg" xmlns:xlink="http://www.w3.org/1999/xlink" x="0px" y="0px"
	 viewBox="0 0 31 27" style="enable-background:new 0 0 31 27;" xml:space="preserve">
<style type="text/css">
	.st0{clip-path:url(#SVGID_2_);fill:#231E21;}
</style>
<g>
	<defs>
		<rect id="SVGID_1_" width="31" height="27"/>
	</defs>
	<clipPath id="SVGID_2_">
		<use xlink:href="#SVGID_1_"  style="overflow:visible;"/>
	</clipPath>
	<path class="st0" d="M26,16.9h-2.1c-0.8-3.9-4.2-6.9-8.3-6.9c-4.2,0-7.6,3-8.3,6.9H5.7c-0.3,0-0.4,0-0.5,0c-1.9,0-3.7-1.8-3.6-3.7
		C1.6,11.5,3.1,10,5,10h0.1c0.3,0,0.6,0,0.8,0.1l1,0.3l0.2-1c0.4-2.1,2.3-3.6,4.4-3.6h0.1c0.7,0,1.3,0.2,1.8,0.4l1,0.5l0.4-1
		c0.9-2.3,2.9-3.7,5.1-3.7h0.1c2.8,0.1,5.1,2.4,5.3,5.5l0.1,0.8l0.8,0.1c1.9,0.2,3.3,2.1,3.3,4.4C29.5,15,27.9,16.9,26,16.9z
		 M15.6,26L15.6,26c-4.1,0-7.5-3.3-7.5-7.5c0-0.2,0-0.4,0-0.6c0-0.4,0.1-0.7,0.1-1c0.7-3.4,3.7-5.9,7.3-5.9c3.6,0,6.5,2.5,7.3,5.9h0
		c0.1,0.3,0.1,0.7,0.2,1h0c0,0.2,0,0.4,0,0.6C23,22.7,19.7,26,15.6,26z M26.4,7.3c-0.3-3.5-3-6.3-6.3-6.4H20c-2.7,0-5,1.8-6,4.4
		c-0.7-0.3-1.4-0.5-2.2-0.5h-0.1c-2.6,0-4.9,1.9-5.4,4.4C5.8,9,5.5,9,5.1,9H5c-2.4,0-4.3,1.9-4.4,4.3c-0.1,2.4,2.2,4.7,4.6,4.7
		c0.1,0,0.2,0,0.5,0h1.5c0,0.2,0,0.4,0,0.5c0,4.7,3.8,8.5,8.5,8.5c4.7,0,8.5-3.8,8.5-8.5c0-0.2,0-0.4,0-0.6h2c2.5,0,4.5-2.3,4.6-5.2
		C30.7,9.9,28.8,7.5,26.4,7.3z M18.4,12.2l-5.8,5.4l3.5,1.3L12.5,25l6.5-6.8l-3.4-1.2L18.4,12.2z"/>
</g>
</svg>
