<?xml version="1.0" encoding="utf-8"?>
<!-- Generator: Adobe Illustrator 24.3.0, SVG Export Plug-In . SVG Version: 6.00 Build 0)  -->
<svg version="1.1" id="Layer_1" xmlns="http://www.w3.org/2000/svg" xmlns:xlink="http://www.w3.org/1999/xlink" x="0px" y="0px"
	 viewBox="0 0 14 30" style="enable-background:new 0 0 14 30;" xml:space="preserve">
<style type="text/css">
	.st0{clip-path:url(#SVGID_2_);fill:#231E21;}
</style>
<g>
	<defs>
		<rect id="SVGID_1_" width="14" height="30"/>
	</defs>
	<clipPath id="SVGID_2_">
		<use xlink:href="#SVGID_1_"  style="overflow:visible;"/>
	</clipPath>
	<path class="st0" d="M2.2,1.1h8.9l1.2,3.1h1.1l-1.5-4.1H1.5L0.1,4.2h1.1L2.2,1.1z M3.7,25.7v1h6.1v-1H3.7z M3.7,22.6v1h6.1v-1H3.7z
		 M3.7,19.6v1h6.1v-1H3.7z M3.7,16.6v1h6.1v-1H3.7z M3.7,13.5v1h6.1v-1H3.7z M3.7,10.5v1h6.1v-1H3.7z M3.7,7.5v1h6.1v-1H3.7z
		 M1.6,6.2h10.4v22.4H1.6V6.2z M0.6,29.6h12.4V5.2H0.6V29.6z"/>
</g>
</svg>
