<?xml version="1.0" encoding="utf-8"?>
<!-- Generator: Adobe Illustrator 24.3.0, SVG Export Plug-In . SVG Version: 6.00 Build 0)  -->
<svg version="1.1" id="Layer_1" xmlns="http://www.w3.org/2000/svg" xmlns:xlink="http://www.w3.org/1999/xlink" x="0px" y="0px"
	 viewBox="0 0 31 30" style="enable-background:new 0 0 31 30;" xml:space="preserve">
<style type="text/css">
	.st0{clip-path:url(#SVGID_2_);fill:#231E21;}
</style>
<g>
	<defs>
		<rect id="SVGID_1_" width="31" height="30"/>
	</defs>
	<clipPath id="SVGID_2_">
		<use xlink:href="#SVGID_1_"  style="overflow:visible;"/>
	</clipPath>
	<path class="st0" d="M8.8,1.6H2.5L1,5.2h1.1l1.1-2.6h5.6V1.6z M4.3,23.8v1h4.5v-1H4.3z M4.3,20.7v1h4.5v-1H4.3z M4.3,17.7v1h4.5v-1
		H4.3z M4.3,14.7v1h4.5v-1H4.3z M4.3,11.6v1h4.5v-1H4.3z M4.3,8.6v1h4.5v-1H4.3z M8.8,28.3v-1H1.7V7.2h7.1v-1H0.7v22.1H8.8z
		 M29.9,5.2l-1.5-3.6h-6.3v1h5.6l1.1,2.6H29.9z M22.1,23.8v1h4.5v-1H22.1z M22.1,20.7v1h4.5v-1H22.1z M22.1,17.7v1h4.5v-1H22.1z
		 M22.1,14.7v1h4.5v-1H22.1z M22.1,11.6v1h4.5v-1H22.1z M22.1,8.6v1h4.5v-1H22.1z M30.3,28.3V6.2h-8.1v1h7.1v20.1h-7.1v1H30.3z
		 M21.4,4.2l-1.5-4.1h-8.8L9.6,4.2h1.1l1.1-3.1h7.4l1.2,3.1H21.4z M13.3,25.7v1h4.6v-1H13.3z M13.3,22.6v1h4.6v-1H13.3z M13.3,19.6
		v1h4.6v-1H13.3z M13.3,16.6v1h4.6v-1H13.3z M13.3,13.5v1h4.6v-1H13.3z M13.3,10.5v1h4.6v-1H13.3z M13.3,7.5v1h4.6v-1H13.3z M21,5.2
		H10.1v24.4H21V5.2z M20,6.2v22.4h-8.9V6.2H20z"/>
</g>
</svg>
