<?xml version="1.0" encoding="utf-8"?>
<!-- Generator: Adobe Illustrator 24.3.0, SVG Export Plug-In . SVG Version: 6.00 Build 0)  -->
<svg version="1.1" id="Layer_1" xmlns="http://www.w3.org/2000/svg" xmlns:xlink="http://www.w3.org/1999/xlink" x="0px" y="0px"
	 viewBox="0 0 25 24" style="enable-background:new 0 0 25 24;" xml:space="preserve">
<style type="text/css">
	.st0{clip-path:url(#SVGID_2_);fill:#231E21;}
</style>
<g>
	<defs>
		<rect id="SVGID_1_" width="25" height="24"/>
	</defs>
	<clipPath id="SVGID_2_">
		<use xlink:href="#SVGID_1_"  style="overflow:visible;"/>
	</clipPath>
	<path class="st0" d="M18.7,0v1h5v22h-5v1l6,0V0H18.7z M1.8,1h5V0H0.8v24l6.1,0v-1h-5V1z M21.5,21h-6.8v-6.8h6.8V21z M22.5,13.2
		h-8.8V22h8.8V13.2z M4.1,14.2h6.8V21H4.1V14.2z M3.1,22h8.8v-8.8H3.1V22z M21.5,10.3h-6.8V3.5h6.8V10.3z M22.5,2.5h-8.8v8.8h8.8
		V2.5z M4.1,3.5h6.8v6.8H4.1V3.5z M3.1,11.3h8.8V2.5H3.1V11.3z"/>
</g>
</svg>
