<?xml version="1.0" encoding="utf-8"?>
<!-- Generator: Adobe Illustrator 24.3.0, SVG Export Plug-In . SVG Version: 6.00 Build 0)  -->
<svg version="1.1" id="Layer_1" xmlns="http://www.w3.org/2000/svg" xmlns:xlink="http://www.w3.org/1999/xlink" x="0px" y="0px"
	 viewBox="0 0 30 19" style="enable-background:new 0 0 30 19;" xml:space="preserve">
<style type="text/css">
	.st0{clip-path:url(#SVGID_2_);fill:#231E21;}
</style>
<g>
	<defs>
		<rect id="SVGID_1_" width="30" height="19"/>
	</defs>
	<clipPath id="SVGID_2_">
		<use xlink:href="#SVGID_1_"  style="overflow:visible;"/>
	</clipPath>
	<path class="st0" d="M4.9,6.3h16.9V13H4.9V6.3z M3.9,14h18.9V5.3H3.9V14z M18.7,10.3c-0.1,0.2-0.3,0.4-0.5,0.5
		C18,10.9,17.8,11,17.5,11h-0.8V8.3h0.8c0.3,0,0.5,0.1,0.7,0.2c0.2,0.1,0.4,0.3,0.5,0.5c0.1,0.2,0.2,0.4,0.2,0.7
		C18.9,9.9,18.9,10.1,18.7,10.3z M18.7,7.7c-0.4-0.2-0.8-0.3-1.3-0.3h-1.6v4.4h1.6c0.5,0,0.9-0.1,1.3-0.3c0.4-0.2,0.7-0.5,0.9-0.8
		c0.2-0.3,0.3-0.7,0.3-1.1c0-0.4-0.1-0.8-0.3-1.1C19.4,8.1,19.1,7.9,18.7,7.7z M14.3,9.4c-0.2-0.1-0.5-0.2-0.9-0.3
		C13.2,9.1,13,9.1,12.9,9c-0.1,0-0.2-0.1-0.3-0.2c-0.1-0.1-0.1-0.2-0.1-0.3c0-0.1,0.1-0.3,0.2-0.3c0.1-0.1,0.3-0.1,0.5-0.1
		c0.2,0,0.4,0,0.6,0.1c0.2,0.1,0.4,0.2,0.6,0.4l0.5-0.7c-0.5-0.4-1.1-0.6-1.7-0.6c-0.3,0-0.6,0.1-0.9,0.2c-0.2,0.1-0.4,0.3-0.6,0.5
		c-0.1,0.2-0.2,0.4-0.2,0.7s0.1,0.5,0.2,0.7c0.1,0.2,0.3,0.3,0.5,0.4c0.2,0.1,0.5,0.2,0.9,0.3c0.2,0.1,0.4,0.1,0.6,0.2
		c0.1,0,0.2,0.1,0.3,0.2c0.1,0.1,0.1,0.1,0.1,0.3c0,0.1-0.1,0.3-0.2,0.4c-0.1,0.1-0.3,0.1-0.5,0.1c-0.5,0-1-0.2-1.5-0.6l-0.5,0.7
		c0.3,0.2,0.6,0.4,0.9,0.5c0.3,0.1,0.7,0.2,1.1,0.2c0.4,0,0.7-0.1,0.9-0.2c0.3-0.1,0.5-0.3,0.6-0.5c0.1-0.2,0.2-0.5,0.2-0.7
		c0-0.3-0.1-0.5-0.2-0.6C14.7,9.7,14.6,9.5,14.3,9.4z M10.2,9.4C10,9.3,9.7,9.3,9.4,9.2C9.1,9.1,8.9,9.1,8.8,9
		C8.7,9,8.6,8.9,8.5,8.9C8.5,8.8,8.4,8.7,8.4,8.6c0-0.1,0.1-0.3,0.2-0.3c0.1-0.1,0.3-0.1,0.5-0.1c0.2,0,0.4,0,0.6,0.1
		c0.2,0.1,0.4,0.2,0.6,0.4l0.5-0.7c-0.5-0.4-1.1-0.6-1.7-0.6c-0.3,0-0.6,0.1-0.9,0.2C8,7.6,7.8,7.8,7.7,8C7.5,8.2,7.5,8.4,7.5,8.7
		s0.1,0.5,0.2,0.7C7.8,9.5,8,9.7,8.2,9.8C8.4,9.9,8.7,9.9,9.1,10c0.2,0.1,0.4,0.1,0.6,0.2c0.1,0,0.2,0.1,0.3,0.2
		c0.1,0.1,0.1,0.1,0.1,0.3c0,0.1-0.1,0.3-0.2,0.4c-0.1,0.1-0.3,0.1-0.5,0.1c-0.5,0-1-0.2-1.5-0.6l-0.5,0.7c0.3,0.2,0.6,0.4,0.9,0.5
		c0.3,0.1,0.7,0.2,1.1,0.2c0.4,0,0.7-0.1,0.9-0.2c0.3-0.1,0.5-0.3,0.6-0.5c0.1-0.2,0.2-0.5,0.2-0.7c0-0.3-0.1-0.5-0.2-0.6
		C10.6,9.7,10.5,9.5,10.2,9.4z M25.7,17.2h2.4v-1h-2.4V17.2z M25.7,15.5h2.4v-1h-2.4V15.5z M25.7,13.8h2.4v-1h-2.4V13.8z M25.7,12.1
		h2.4v-1h-2.4V12.1z M28.1,4.1h-2.4v1h2.4V4.1z M28.1,2.3h-2.4v1h2.4V2.3z M28.4,10.2V18h-8.6v-1.4h-1V18H8.1v-1.4h-1V18H1V1.3h6.1
		v1.4h1V1.3h10.7v1.4h1V1.3h8.6v5.1h-2.2v3.8L28.4,10.2L28.4,10.2z M29.4,7.4V0.3h-9.6h-1H8.1h-1H0V19h7.1h1h10.7h1h9.6V9.2h-2.2
		V7.4L29.4,7.4L29.4,7.4z"/>
</g>
</svg>
