<?xml version="1.0" encoding="utf-8"?>
<!-- Generator: Adobe Illustrator 24.3.0, SVG Export Plug-In . SVG Version: 6.00 Build 0)  -->
<svg version="1.1" id="Layer_1" xmlns="http://www.w3.org/2000/svg" xmlns:xlink="http://www.w3.org/1999/xlink" x="0px" y="0px"
	 viewBox="0 0 24 25" style="enable-background:new 0 0 24 25;" xml:space="preserve">
<style type="text/css">
	.st0{clip-path:url(#SVGID_2_);fill:#231E21;}
</style>
<g>
	<defs>
		<rect id="SVGID_1_" width="24" height="25"/>
	</defs>
	<clipPath id="SVGID_2_">
		<use xlink:href="#SVGID_1_"  style="overflow:visible;"/>
	</clipPath>
	<path class="st0" d="M23,23.7H1v-22h22V23.7z M0,0.7v24h24v-24H0z M6.9,10.8h13v-1h-13V8.9l-2.9,1.3l2.9,1.3V10.8z M6.9,20.4h13v-1
		h-13v-0.8l-2.9,1.3l2.9,1.3V20.4z M17.1,6.8l2.9-1.3l-2.9-1.3V5h-13v1h13L17.1,6.8L17.1,6.8z M17.1,16.4l2.9-1.3l-2.9-1.3v0.8h-13
		v1h13L17.1,16.4L17.1,16.4z"/>
</g>
</svg>
