<?xml version="1.0" encoding="utf-8"?>
<!-- Generator: Adobe Illustrator 24.3.0, SVG Export Plug-In . SVG Version: 6.00 Build 0)  -->
<svg version="1.1" id="Layer_1" xmlns="http://www.w3.org/2000/svg" xmlns:xlink="http://www.w3.org/1999/xlink" x="0px" y="0px"
	 viewBox="0 0 25 28" style="enable-background:new 0 0 25 28;" xml:space="preserve">
<style type="text/css">
	.st0{clip-path:url(#SVGID_2_);fill:#231E21;}
</style>
<g>
	<defs>
		<rect id="SVGID_1_" width="25" height="28"/>
	</defs>
	<clipPath id="SVGID_2_">
		<use xlink:href="#SVGID_1_"  style="overflow:visible;"/>
	</clipPath>
	<path class="st0" d="M4.6,13.9h6.9v2.5H4.6V13.9z M15.6,19.9h-3.1v-6h3.1V19.9z M4.6,19.9v-2.5h6.9v2.5H4.6z M3.6,20.9v0.8h1v-0.8
		h11v0.8h1v-0.8h1v-1h-1v-6h1v-1h-1V9.7h-1v3.2h-11V8h8.3V7H4.6V6.3h-1V7H2.9v1h0.7v4.9H2.9v1h0.7v6H2.9v1H3.6z M14,4.8v4h4.2v17.4
		H1.8V4.8H14z M19.2,23.6V8.2l-4.4-4.4h-9V1.9h17.4v21.8H19.2z M19.2,24.6h4.9V0.9H4.8v2.9h-4v23.4h18.5V24.6z M13.6,9.9L13.6,9.9
		c0.3,0,0.6,0.3,0.6,0.6c0,0.2-0.1,0.5-0.4,0.6c-0.2,0.1-0.5,0-0.7-0.1c-0.2-0.2-0.2-0.4-0.1-0.7S13.4,9.9,13.6,9.9z M13.6,12.1
		L13.6,12.1c0.9,0,1.6-0.7,1.6-1.6c0-0.7-0.4-1.2-1-1.5c-0.6-0.2-1.3-0.1-1.8,0.3c-0.5,0.5-0.6,1.2-0.3,1.8
		C12.4,11.7,13,12.1,13.6,12.1z M10,9.9L10,9.9c0.3,0,0.6,0.3,0.6,0.6c0,0.3-0.3,0.6-0.6,0.6c-0.3,0-0.6-0.3-0.6-0.6
		C9.4,10.2,9.7,9.9,10,9.9z M10,12.1L10,12.1c0.9,0,1.6-0.7,1.6-1.6c0-0.9-0.7-1.6-1.6-1.6c-0.9,0-1.6,0.7-1.6,1.6
		C8.4,11.4,9.1,12.1,10,12.1z M15,7.8V5.4l2.4,2.5H15z M6.4,9.9L6.4,9.9c0.3,0,0.6,0.3,0.6,0.6C7,10.7,6.9,11,6.6,11
		c-0.2,0.1-0.5,0-0.7-0.1c-0.2-0.2-0.2-0.4-0.1-0.7C5.9,10,6.2,9.9,6.4,9.9z M6.4,12.1L6.4,12.1c0.9,0,1.6-0.7,1.6-1.6
		C8,9.8,7.6,9.2,7,9C6.4,8.8,5.7,8.9,5.3,9.3c-0.5,0.5-0.6,1.2-0.3,1.8C5.2,11.7,5.8,12.1,6.4,12.1z M16,25.2h1.6v-0.3h-1.2v-0.6h1
		V24h-1v-0.5h1.1v-0.4H16V25.2z M14.7,25.2h0.4v-1.7h0.6v-0.4h-1.6v0.4h0.6V25.2z M13.5,24.4h-0.6l0.3-0.8L13.5,24.4z M14.2,25.2
		l-0.8-2.1H13l-0.8,2.1h0.4l0.2-0.5h0.8l0.2,0.5H14.2z M10.6,25.2h1.5v-0.3h-1v-1.7h-0.4V25.2z M9.1,23.5l0.2,0c0.1,0,0.2,0,0.3,0
		c0.1,0,0.1,0,0.2,0.1c0,0.1,0.1,0.1,0.1,0.2c0,0.1,0,0.1,0,0.2c0,0-0.1,0.1-0.1,0.1c-0.1,0-0.2,0-0.3,0H9.1V23.5z M8.7,25.2l0.4,0
		v-0.8h0.3c0.1,0,0.3,0,0.4,0c0.1,0,0.2-0.1,0.2-0.1c0.1-0.1,0.1-0.1,0.2-0.2c0.1-0.1,0.1-0.2,0.1-0.3c0-0.1,0-0.3-0.1-0.4
		c-0.1-0.1-0.2-0.2-0.3-0.2c-0.2,0-0.3,0-0.5,0H8.7V25.2z M6.2,25.2h0.4v-1.6L7,25.2h0.4l0.4-1.6v1.6h0.4v-2.1H7.6l-0.4,1.4
		l-0.4-1.4H6.2V25.2z M4.3,25.2h1.6v-0.3H4.7v-0.6h1V24h-1v-0.5h1.1v-0.4H4.3V25.2z M3,25.2h0.4v-1.7H4v-0.4H2.4v0.4H3V25.2z"/>
</g>
</svg>
