<?xml version="1.0" encoding="utf-8"?>
<!-- Generator: Adobe Illustrator 24.3.0, SVG Export Plug-In . SVG Version: 6.00 Build 0)  -->
<svg version="1.1" id="Layer_1" xmlns="http://www.w3.org/2000/svg" xmlns:xlink="http://www.w3.org/1999/xlink" x="0px" y="0px"
	 viewBox="0 0 31 12" style="enable-background:new 0 0 31 12;" xml:space="preserve">
<style type="text/css">
	.st0{clip-path:url(#SVGID_2_);fill:#231E21;}
</style>
<g>
	<defs>
		<rect id="SVGID_1_" width="31" height="12"/>
	</defs>
	<clipPath id="SVGID_2_">
		<use xlink:href="#SVGID_1_"  style="overflow:visible;"/>
	</clipPath>
	<path class="st0" d="M29.6,9.4H23V3.1h6.6V9.4z M22,9.4L22,9.4l0,1.5H1.6c0-5,0-7.6,0-9H22v1.1h0V9.4z M23,2.1V1H0.6
		c0.1,0,0,11,0,11H23v-1.5h7.6V2.1H23z M15.4,7.9h-1.1V6.6h1.1c0.4,0,0.7,0.3,0.7,0.6C16.2,7.6,15.9,7.9,15.4,7.9z M14.3,5.1h1.1
		c0.4,0,0.6,0.2,0.6,0.6c0,0.3-0.3,0.6-0.6,0.6h-1.1V5.1z M15.9,6.4c0.3-0.2,0.5-0.4,0.5-0.8c0-0.5-0.4-0.9-0.9-0.9h-1.6v3.4h1.6
		c0.6,0,1-0.4,1-0.9C16.6,6.9,16.3,6.6,15.9,6.4z M9.6,6.8c0,0.7-0.4,1.1-1,1.1c-0.6,0-1-0.5-1-1.1v-2H7.1v2c0,0.9,0.6,1.5,1.4,1.5
		s1.4-0.6,1.4-1.5v-2H9.6V6.8z M12,6.3c-0.6-0.1-0.9-0.3-0.9-0.6c0-0.3,0.3-0.6,0.7-0.6c0.4,0,0.7,0.2,1,0.4l0.2-0.3
		c-0.3-0.3-0.7-0.5-1.2-0.5c-0.7,0-1.2,0.4-1.2,1c0,0.6,0.4,0.8,1.1,1c0.6,0.1,0.9,0.3,0.9,0.7c0,0.3-0.3,0.6-0.8,0.6
		c-0.5,0-0.8-0.2-1.1-0.5l-0.2,0.3c0.3,0.3,0.8,0.5,1.4,0.5c0.8,0,1.2-0.4,1.2-1C13.2,6.7,12.7,6.4,12,6.3z M26.9,7.3h-1.5V9h1.5
		V7.3z M26.9,3.6h-1.5v1.8h1.5V3.6z"/>
</g>
</svg>
