<?xml version="1.0" encoding="utf-8"?>
<!-- Generator: Adobe Illustrator 24.3.0, SVG Export Plug-In . SVG Version: 6.00 Build 0)  -->
<svg version="1.1" id="Layer_1" xmlns="http://www.w3.org/2000/svg" xmlns:xlink="http://www.w3.org/1999/xlink" x="0px" y="0px"
	 viewBox="0 0 21 25" style="enable-background:new 0 0 21 25;" xml:space="preserve">
<style type="text/css">
	.st0{clip-path:url(#SVGID_2_);fill:#231E21;}
</style>
<g>
	<defs>
		<rect id="SVGID_1_" width="21" height="25"/>
	</defs>
	<clipPath id="SVGID_2_">
		<use xlink:href="#SVGID_1_"  style="overflow:visible;"/>
	</clipPath>
	<path class="st0" d="M10.6,1.9c2.5,0,4.6,2.1,4.6,4.6s-2.1,4.6-4.6,4.6S6.1,9.1,6.1,6.5S8.1,1.9,10.6,1.9z M10.6,12.1
		c3.1,0,5.6-2.5,5.6-5.6s-2.5-5.6-5.6-5.6S5.1,3.4,5.1,6.5S7.6,12.1,10.6,12.1z M20,23.3c0,0.4-0.3,0.7-0.6,0.7H1.9
		c-0.3,0-0.6-0.3-0.6-0.7v-4.4c0-0.2,0.1-0.4,0.2-0.5C1.6,18.2,1.8,18,2,17.9c2.4-2.3,5.4-3.6,8.7-3.6c3.5,0,6.8,1.5,9.2,4.2
		c0.1,0.1,0.2,0.3,0.2,0.5V23.3z M20.6,17.7c-2.7-3-6.3-4.5-9.9-4.5c-3.4,0-6.7,1.3-9.4,3.9c-0.2,0.2-0.4,0.4-0.5,0.6
		c-0.3,0.3-0.4,0.7-0.4,1.1v4.4c0,0.9,0.7,1.7,1.6,1.7h17.5c0.9,0,1.6-0.8,1.6-1.7v-4.4C21,18.4,20.9,18,20.6,17.7z"/>
</g>
</svg>
