<?xml version="1.0" encoding="utf-8"?>
<!-- Generator: Adobe Illustrator 24.3.0, SVG Export Plug-In . SVG Version: 6.00 Build 0)  -->
<svg version="1.1" id="Layer_1" xmlns="http://www.w3.org/2000/svg" xmlns:xlink="http://www.w3.org/1999/xlink" x="0px" y="0px"
	 viewBox="0 0 24 25" style="enable-background:new 0 0 24 25;" xml:space="preserve">
<style type="text/css">
	.st0{clip-path:url(#SVGID_2_);fill:#231E21;}
</style>
<g>
	<defs>
		<rect id="SVGID_1_" width="24" height="25"/>
	</defs>
	<clipPath id="SVGID_2_">
		<use xlink:href="#SVGID_1_"  style="overflow:visible;"/>
	</clipPath>
	<path class="st0" d="M11.2,15.4h1.5c0.9,0,1.5,0.4,1.5,1.2c0,0.7-0.6,1.2-1.5,1.2h-1.5V15.4z M11.2,18.4h1.6c1.1,0,2-0.7,2-1.8
		s-0.9-1.8-2-1.8h-2.2v5.5h0.6V18.4z M16.4,15.4h1.5c0.9,0,1.5,0.4,1.5,1.2c0,0.7-0.6,1.2-1.5,1.2h-1.5V15.4z M16.4,18.4H18
		c1.1,0,2-0.7,2-1.8s-0.9-1.8-2-1.8h-2.2v5.5h0.6V18.4z M6.9,15.6l1.3,2.9H5.6L6.9,15.6z M5.4,19.1h3.1L9,20.3h0.7l-2.4-5.5H6.6
		l-2.4,5.5h0.7L5.4,19.1z M9.6,4.8c1.2,0,2.2,1,2.2,2.3c0,1.2-1,2.3-2.2,2.3s-2.2-1-2.2-2.3C7.4,5.8,8.4,4.8,9.6,4.8z M9.6,9.9
		c1.5,0,2.8-1.3,2.8-2.8c0-1.5-1.3-2.8-2.8-2.8C8,4.2,6.7,5.5,6.7,7.1C6.7,8.6,8,9.9,9.6,9.9z M15.3,9.3c-0.8,0-1.3-0.3-1.8-0.8
		L13.2,9c0.6,0.5,1.3,0.9,2.2,0.9c1.3,0,1.9-0.7,1.9-1.6c0-1-0.8-1.3-1.8-1.6c-0.9-0.2-1.5-0.4-1.5-1c0-0.5,0.5-1,1.2-1
		c0.6,0,1.1,0.3,1.6,0.7L17.1,5c-0.5-0.5-1.1-0.8-1.9-0.8c-1.1,0-1.8,0.7-1.8,1.6c0,1,0.7,1.3,1.8,1.6c1,0.2,1.5,0.5,1.5,1
		C16.6,8.9,16.2,9.3,15.3,9.3z M23,12.3H3.4v1H23v10.4H1v-22h22V12.3z M0,0.7v24h24v-24H0z"/>
</g>
</svg>
