<?xml version="1.0" encoding="utf-8"?>
<!-- Generator: Adobe Illustrator 24.3.0, SVG Export Plug-In . SVG Version: 6.00 Build 0)  -->
<svg version="1.1" id="Layer_1" xmlns="http://www.w3.org/2000/svg" xmlns:xlink="http://www.w3.org/1999/xlink" x="0px" y="0px"
	 viewBox="0 0 25 26" style="enable-background:new 0 0 25 26;" xml:space="preserve">
<style type="text/css">
	.st0{clip-path:url(#SVGID_2_);fill:#231E21;}
</style>
<g>
	<defs>
		<rect id="SVGID_1_" width="25" height="26"/>
	</defs>
	<clipPath id="SVGID_2_">
		<use xlink:href="#SVGID_1_"  style="overflow:visible;"/>
	</clipPath>
	<path class="st0" d="M19.3,6h-5.9c-0.6,0-1.1,0.5-1.1,1.1v5.9c0,0.2,0.1,0.4,0.2,0.6c-0.2-0.2-0.4-0.3-0.7-0.3H5.9
		c-0.6,0-1.1,0.5-1.1,1.1v5.9c0,0.6,0.5,1.1,1.1,1.1h5.9c0.6,0,1.1-0.5,1.1-1.1v-5.9c0-0.2-0.1-0.4-0.2-0.6c0.2,0.2,0.4,0.3,0.7,0.3
		h5.9c0.6,0,1.1-0.5,1.1-1.1V7C20.3,6.5,19.8,6,19.3,6z M24,16.9c0,0.3-0.3,0.6-0.6,0.6h-7.1v6.9c0,0.3-0.3,0.6-0.6,0.6H1.6
		c-0.3,0-0.6-0.3-0.6-0.6V10c0-0.3,0.3-0.6,0.6-0.6h7.1V2.6c0-0.3,0.3-0.6,0.6-0.6h14.1c0.3,0,0.6,0.3,0.6,0.6V16.9z M23.4,0.9H9.3
		c-0.9,0-1.6,0.7-1.6,1.6v5.9H1.6C0.7,8.4,0,9.1,0,10v14.3c0,0.9,0.7,1.6,1.6,1.6h14.1c0.9,0,1.6-0.7,1.6-1.6v-5.9h6.1
		c0.9,0,1.6-0.7,1.6-1.6V2.6C25,1.7,24.3,0.9,23.4,0.9z"/>
</g>
</svg>
