<?xml version="1.0" encoding="utf-8"?>
<!-- Generator: Adobe Illustrator 24.3.0, SVG Export Plug-In . SVG Version: 6.00 Build 0)  -->
<svg version="1.1" id="Layer_1" xmlns="http://www.w3.org/2000/svg" xmlns:xlink="http://www.w3.org/1999/xlink" x="0px" y="0px"
	 viewBox="0 0 31 31" style="enable-background:new 0 0 31 31;" xml:space="preserve">
<style type="text/css">
	.st0{clip-path:url(#SVGID_2_);fill:#231E21;}
</style>
<g>
	<defs>
		<rect id="SVGID_1_" width="31" height="31"/>
	</defs>
	<clipPath id="SVGID_2_">
		<use xlink:href="#SVGID_1_"  style="overflow:visible;"/>
	</clipPath>
	<path class="st0" d="M20.1,21.7c0.3,0.4,0.5,0.9,0.5,1.4c0,0.6-0.1,1.1-0.4,1.7c-0.3,0.7-0.9,1.1-1.7,1.4c-0.8,0.3-1.6,0.2-2.3-0.2
		c-0.6-0.3-1-0.7-1.2-1.3c-0.2-0.6-0.3-1.2-0.2-1.8c0.1-0.6,0.4-1.2,0.8-1.6c0.5-0.5,1.1-0.7,1.8-0.8c0.5,0,1,0.1,1.5,0.3
		C19.4,21,19.8,21.3,20.1,21.7z M14.3,19.9C14,20.5,13.6,20.8,13,21c-0.6,0.2-1.2,0.2-1.8-0.2c-0.4-0.2-0.7-0.6-0.9-1
		c-0.2-0.4-0.2-0.9-0.1-1.4c0.1-0.5,0.3-0.9,0.6-1.2c0.4-0.4,0.8-0.6,1.4-0.6c0.4,0,0.8,0,1.1,0.2c0.4,0.2,0.7,0.4,0.9,0.7
		c0.2,0.3,0.4,0.7,0.4,1.1C14.6,19.1,14.5,19.5,14.3,19.9z M18.4,18.7H17c0,0.1-0.1,0.3-0.1,0.5c-0.1,0.3-0.1,0.4-0.1,0.5
		c-0.1,0-0.4,0.1-0.9,0.4c-0.1-0.1-0.4-0.2-0.6-0.4c0,0,0,0,0-0.1c0.1,0,0.2,0,0.4-0.1c0.2,0,0.3-0.1,0.3-0.1v-1.1
		c-0.1,0-0.2,0-0.4-0.1c-0.1,0-0.3-0.1-0.4-0.1c0,0-0.1-0.2-0.3-0.8c0.1-0.1,0.2-0.4,0.4-0.7c-0.1-0.1-0.2-0.2-0.4-0.4
		c-0.2-0.2-0.3-0.3-0.4-0.4c-0.1,0-0.2,0.1-0.3,0.2c-0.1,0.1-0.2,0.1-0.3,0.2c-0.1-0.1-0.2-0.1-0.3-0.2c-0.2-0.1-0.3-0.1-0.4-0.1
		c-0.1-0.4-0.2-0.6-0.2-0.7h-1.1c0,0.1-0.1,0.2-0.1,0.4c-0.1,0.2-0.1,0.3-0.1,0.4c-0.1,0-0.3,0.1-0.7,0.3c-0.2-0.1-0.4-0.2-0.7-0.4
		c-0.5,0.5-0.7,0.7-0.8,0.8c0.1,0.1,0.2,0.3,0.4,0.6c-0.1,0.1-0.1,0.2-0.2,0.4c-0.1,0.2-0.1,0.3-0.2,0.4c-0.1,0-0.2,0-0.4,0.1
		c-0.2,0.1-0.3,0.1-0.3,0.1v1.1c0.1,0,0.2,0,0.4,0.1c0.1,0,0.3,0.1,0.4,0.1c0,0.1,0.1,0.2,0.1,0.4c0.1,0.2,0.1,0.3,0.2,0.4
		c-0.2,0.4-0.3,0.6-0.3,0.7c0.4,0.4,0.7,0.7,0.8,0.8c0.1,0,0.2-0.1,0.3-0.2c0.1-0.1,0.2-0.1,0.3-0.2c0,0,0.2,0.1,0.7,0.3
		c0,0.1,0.1,0.2,0.1,0.4c0,0.2,0.1,0.3,0.1,0.4h1.1c0-0.1,0.1-0.2,0.1-0.4c0-0.2,0.1-0.3,0.1-0.4c0.2,0,0.4-0.1,0.7-0.3
		c0.1,0.1,0.3,0.2,0.5,0.3c0,0.1-0.1,0.1-0.1,0.2c-0.1,0.2-0.2,0.4-0.2,0.5c-0.1,0-0.3,0.1-0.5,0.1c-0.2,0.1-0.4,0.1-0.4,0.1v1.5
		c0.1,0,0.2,0.1,0.5,0.1c0.2,0.1,0.4,0.1,0.5,0.1c0,0.2,0.1,0.3,0.2,0.5c0.1,0.3,0.2,0.4,0.2,0.5c-0.3,0.5-0.4,0.8-0.5,0.9
		c0.6,0.6,0.9,0.9,1,1c0.1,0,0.2-0.1,0.4-0.2c0.2-0.1,0.3-0.2,0.4-0.2c0,0,0.3,0.2,0.9,0.4c0,0.1,0.1,0.3,0.1,0.5
		c0,0.2,0.1,0.4,0.1,0.5h1.4c0-0.1,0.1-0.3,0.2-0.5c0.1-0.2,0.1-0.4,0.2-0.5c0.3-0.1,0.6-0.2,0.9-0.4c0.3,0.2,0.6,0.4,0.9,0.5
		c0.6-0.6,0.9-1,1-1.1c-0.1-0.1-0.2-0.2-0.3-0.4c-0.1-0.2-0.2-0.4-0.2-0.4c0.1-0.1,0.2-0.2,0.2-0.5c0.1-0.2,0.2-0.4,0.2-0.5
		c0.1,0,0.3-0.1,0.5-0.1c0.2-0.1,0.4-0.1,0.4-0.1v-1.5c-0.1,0-0.2-0.1-0.5-0.1c-0.2-0.1-0.3-0.1-0.5-0.1c0,0.1-0.1-0.3-0.4-1
		c0.1-0.2,0.3-0.5,0.5-0.9c-0.1-0.1-0.3-0.3-0.5-0.5c-0.2-0.2-0.4-0.4-0.5-0.5c-0.1,0-0.2,0.1-0.4,0.2c-0.2,0.1-0.3,0.2-0.4,0.2
		c-0.1-0.1-0.2-0.1-0.4-0.2c-0.3-0.1-0.4-0.2-0.5-0.2C18.5,19.2,18.4,18.8,18.4,18.7z M29.5,29.7h-28v-28h28V29.7z M0.5,0.7v30h30
		v-30H0.5z M26,10.6c0.5,0,0.8,0.4,0.8,0.8h-1.7C25.2,10.9,25.6,10.6,26,10.6z M26.1,13c0.4,0,0.8-0.2,1-0.4l-0.2-0.2
		c-0.2,0.2-0.5,0.3-0.8,0.3c-0.5,0-0.9-0.4-0.9-0.9h2.1c0-0.9-0.4-1.5-1.2-1.5c-0.7,0-1.3,0.6-1.3,1.3C24.7,12.4,25.4,13,26.1,13z
		 M23.4,13c0.4,0,0.7-0.1,0.9-0.4L24,12.3c-0.2,0.2-0.4,0.3-0.7,0.3c-0.5,0-0.9-0.5-0.9-1c0-0.5,0.4-1,0.9-1c0.3,0,0.5,0.1,0.7,0.3
		l0.3-0.3c-0.2-0.2-0.6-0.4-0.9-0.4c-0.7,0-1.3,0.6-1.3,1.4C22,12.4,22.6,13,23.4,13z M19.6,11.3c0-0.4,0.4-0.7,0.8-0.7
		c0.4,0,0.6,0.3,0.6,0.7v1.6h0.4v-1.6c0-0.6-0.4-1-1-1c-0.4,0-0.7,0.2-0.9,0.5v-0.4h-0.4v2.6h0.4V11.3z M18.1,12.1
		c-0.1,0.4-0.5,0.5-0.8,0.5c-0.4,0-0.6-0.2-0.6-0.5c0-0.3,0.3-0.5,0.7-0.5c0.3,0,0.5,0,0.8,0.1V12.1z M17.4,10.6
		c0.6,0,0.7,0.4,0.7,0.8v0.1c-0.3-0.1-0.6-0.1-0.8-0.1c-0.6,0-1,0.3-1,0.9c0,0.5,0.4,0.8,0.9,0.8c0.3,0,0.7-0.2,0.9-0.5v0.4h0.4
		v-1.6c0-0.6-0.3-1.1-1.1-1.1c-0.2,0-0.6,0.1-0.9,0.2l0.1,0.3C16.8,10.7,17.1,10.6,17.4,10.6z M15.4,9.4c-0.1,0-0.2,0.1-0.2,0.2
		c0,0.1,0.1,0.2,0.2,0.2c0.1,0,0.2-0.1,0.2-0.2C15.6,9.5,15.5,9.4,15.4,9.4z M15.2,12.9h0.4v-2.6h-0.4V12.9z M14.1,12.9h0.4V9.4
		h-0.4V12.9z M12.2,10.6c0.5,0,0.9,0.4,0.9,1c0,0.6-0.4,1-0.9,1c-0.5,0-0.9-0.4-0.9-1C11.3,11,11.6,10.6,12.2,10.6z M11.3,10.3h-0.4
		v3.4h0.4v-1.3c0.2,0.3,0.5,0.5,0.9,0.5c0.7,0,1.2-0.6,1.2-1.4c0-0.8-0.5-1.4-1.2-1.4c-0.4,0-0.7,0.2-0.9,0.5V10.3z M9,10.6
		c0.5,0,0.9,0.4,0.9,1c0,0.6-0.4,1-0.9,1c-0.5,0-0.9-0.4-0.9-1C8.1,11,8.5,10.6,9,10.6z M8.1,12.4C8.3,12.8,8.6,13,9,13
		c0.7,0,1.2-0.6,1.2-1.4c0-0.8-0.5-1.4-1.2-1.4c-0.4,0-0.7,0.2-0.9,0.5v-0.5H7.7v3.4h0.4V12.4z M5.4,10l0.8,1.8H4.6L5.4,10z
		 M4.4,12.1h1.9l0.3,0.8h0.4L5.6,9.5H5.2l-1.5,3.4h0.4L4.4,12.1z M23,3.1h-0.4v3.5H23V3.1z M21.4,5.8c-0.1,0.4-0.5,0.5-0.8,0.5
		c-0.4,0-0.6-0.2-0.6-0.5c0-0.3,0.3-0.5,0.7-0.5c0.3,0,0.5,0,0.8,0.1V5.8z M20.6,5c-0.6,0-1,0.3-1,0.9c0,0.5,0.4,0.8,0.9,0.8
		c0.3,0,0.7-0.2,0.9-0.5v0.4h0.4V5c0-0.6-0.3-1.1-1.1-1.1c-0.2,0-0.6,0.1-0.9,0.2L20,4.5c0.2-0.1,0.5-0.2,0.8-0.2
		c0.6,0,0.7,0.4,0.7,0.8v0.1C21.2,5,20.9,5,20.6,5z M17.7,6.7c0.4,0,0.7-0.2,0.9-0.5v0.4h0.4V4h-0.4v1.6c0,0.4-0.4,0.7-0.8,0.7
		c-0.4,0-0.6-0.3-0.6-0.7V4h-0.4v1.6C16.7,6.3,17.1,6.7,17.7,6.7z M15.1,6c0,0.4,0.3,0.7,0.6,0.7c0.2,0,0.3-0.1,0.5-0.2L16,6.2
		c-0.1,0.1-0.2,0.1-0.3,0.1c-0.2,0-0.3-0.1-0.3-0.3V4.4h0.6V4h-0.6V3.3h-0.4V4h-0.4v0.3h0.4L15.1,6L15.1,6z M13.4,5.2
		c0-0.5,0.4-0.9,1-0.9V4c-0.5,0-0.8,0.2-1,0.6V4H13v2.6h0.4V5.2z M12,3.5c0.1,0,0.2-0.1,0.2-0.2c0-0.1-0.1-0.2-0.2-0.2
		c-0.1,0-0.2,0.1-0.2,0.2C11.8,3.4,11.9,3.5,12,3.5z M11.8,6.6h0.4V4h-0.4V6.6z M9.8,6.6l1.5-3.4h-0.4l-1.3,3l-1.3-3H7.8l1.5,3.4
		H9.8z"/>
</g>
</svg>
