<?xml version="1.0" encoding="utf-8"?>
<!-- Generator: Adobe Illustrator 24.3.0, SVG Export Plug-In . SVG Version: 6.00 Build 0)  -->
<svg version="1.1" id="Layer_1" xmlns="http://www.w3.org/2000/svg" xmlns:xlink="http://www.w3.org/1999/xlink" x="0px" y="0px"
	 viewBox="0 0 30 14" style="enable-background:new 0 0 30 14;" xml:space="preserve">
<style type="text/css">
	.st0{clip-path:url(#SVGID_2_);fill:#231E21;}
</style>
<g>
	<defs>
		<rect id="SVGID_1_" width="30" height="14"/>
	</defs>
	<clipPath id="SVGID_2_">
		<use xlink:href="#SVGID_1_"  style="overflow:visible;"/>
	</clipPath>
	<path class="st0" d="M25.1,4.8v-1h-3.7v1h-1.6v5.1h1V5.8h1.6v-1h1.7v1h1.6v3.4h-0.5V8.5h-1v0.8h-0.5V8.5h-1v0.8h-0.5V8.5h-1v1.3
		h0.4v0.5h5V4.8H25.1z M16.9,4.8v-1h-3.7v1h-1.6v5.1h1V5.8h1.6v-1h1.7v1h1.6v3.4H17V8.5h-1v0.8h-0.5V8.5h-1v0.8H14V8.5h-1v1.3h0.4
		v0.5h5V4.8H16.9z M8.6,4.8v-1H4.9v1H3.3v5.1h1V5.8h1.6v-1h1.7v1h1.6v3.4H8.7V8.5h-1v0.8H7.2V8.5h-1v0.8H5.8V8.5h-1v1.3h0.4v0.5h5
		V4.8H8.6z M29.7,0.1H0.3v13.8h29.4V0.1z M28.7,1.1v11.8H1.3V1.1H28.7z"/>
</g>
</svg>
