<?xml version="1.0" encoding="utf-8"?>
<!-- Generator: Adobe Illustrator 24.3.0, SVG Export Plug-In . SVG Version: 6.00 Build 0)  -->
<svg version="1.1" id="Layer_1" xmlns="http://www.w3.org/2000/svg" xmlns:xlink="http://www.w3.org/1999/xlink" x="0px" y="0px"
	 viewBox="0 0 31 26" style="enable-background:new 0 0 31 26;" xml:space="preserve">
<style type="text/css">
	.st0{clip-path:url(#SVGID_2_);fill:#231E21;}
</style>
<g>
	<defs>
		<rect id="SVGID_1_" width="31" height="26"/>
	</defs>
	<clipPath id="SVGID_2_">
		<use xlink:href="#SVGID_1_"  style="overflow:visible;"/>
	</clipPath>
	<path class="st0" d="M2.6,20.5v3.1h1v-3.1H2.6z M5.8,20.5v3.1h1v-3.1H5.8z M4.2,20.5v3.1h1v-3.1H4.2z M16.5,22.1L16.5,22.1
		c0,0.6-0.5,1.1-1.1,1.1c-0.6,0-1.1-0.5-1.1-1.1c0-0.6,0.5-1.1,1.1-1.1C16,21,16.5,21.5,16.5,22.1z M13.4,22.1
		c0,1.1,0.9,2.1,2.1,2.1c1.1,0,2.1-0.9,2.1-2.1c0-1.1-0.9-2.1-2.1-2.1S13.4,21,13.4,22.1z M29.5,19.7V25h-28v-5.3h-1V26h30v-6.3
		H29.5z M23.8,20.5v3.1h1v-3.1H23.8z M27,20.5v3.1h1v-3.1H27z M25.4,20.5v3.1h1v-3.1H25.4z M2.6,13.1v3.1h1v-3.1H2.6z M5.8,13.1v3.1
		h1v-3.1H5.8z M4.2,13.1v3.1h1v-3.1H4.2z M15.8,3.5L16.6,5l0.8-1.5v1.6h0.2V3h-0.2l-0.8,1.5L15.8,3h-0.2v2.1h0.2V3.5z M14.2,5.2
		l1-2.1h-0.3l-0.8,1.8L13.3,3H13l1,2.1H14.2z M18.4,6.9h-5.9V1.1h5.9V6.9z M19.4,0.1h-7.9v7.8h7.9V0.1z M26.9,3.5L27.7,5l0.8-1.5
		v1.6h0.2V3h-0.2l-0.8,1.5L26.9,3h-0.2v2.1h0.2V3.5z M25.3,5.2l1-2.1H26l-0.8,1.8L24.3,3h-0.3l1,2.1H25.3z M29.5,6.9h-5.9V1.1h5.9
		V6.9z M30.5,0.1h-7.9v7.8h7.9V0.1z M4.8,3.5L5.6,5l0.8-1.5v1.6h0.2V3H6.4L5.6,4.5L4.8,3H4.5v2.1h0.2V3.5z M3.2,5.2l1-2.1H3.9
		L3.1,4.9L2.2,3H2l1,2.1H3.2z M7.3,6.9H1.5V1.1h5.9V6.9z M8.3,0.1H0.5v7.8h7.9V0.1z M15.4,13.6L15.4,13.6c0.6,0,1.1,0.5,1.1,1.1
		s-0.5,1.1-1.1,1.1c-0.6,0-1.1-0.5-1.1-1.1S14.8,13.6,15.4,13.6z M15.4,16.8c1.1,0,2.1-0.9,2.1-2.1c0-1.1-0.9-2.1-2.1-2.1
		s-2.1,0.9-2.1,2.1C13.4,15.8,14.3,16.8,15.4,16.8z M29.5,17.6h-28v-5.8h28V17.6z M30.5,10.8h-30v7.8h30V10.8z M23.8,13.1v3.1h1
		v-3.1H23.8z M27,13.1v3.1h1v-3.1H27z M25.4,13.1v3.1h1v-3.1H25.4z"/>
</g>
</svg>
