<?xml version="1.0" encoding="utf-8"?>
<!-- Generator: Adobe Illustrator 24.3.0, SVG Export Plug-In . SVG Version: 6.00 Build 0)  -->
<svg version="1.1" id="Layer_1" xmlns="http://www.w3.org/2000/svg" xmlns:xlink="http://www.w3.org/1999/xlink" x="0px" y="0px"
	 viewBox="0 0 24 25" style="enable-background:new 0 0 24 25;" xml:space="preserve">
<style type="text/css">
	.st0{clip-path:url(#SVGID_2_);fill:#231E21;}
</style>
<g>
	<defs>
		<rect id="SVGID_1_" width="24" height="25"/>
	</defs>
	<clipPath id="SVGID_2_">
		<use xlink:href="#SVGID_1_"  style="overflow:visible;"/>
	</clipPath>
	<path class="st0" d="M7.1,10.8H6.4l1.8,4.1h0.6l1.7-4.1H9.8l-1.4,3.4L7.1,10.8z M17.2,14.9v-2.6c0-0.9-0.6-1.6-1.5-1.6
		c-0.6,0-1.2,0.3-1.3,0.9c-0.2-0.5-0.7-0.9-1.3-0.9c-0.5,0-1,0.3-1.2,0.7v-0.6h-0.6v4.1h0.6v-2.6c0-0.6,0.5-1.1,1.1-1.1
		c0.6,0,1,0.5,1,1.1v2.6h0.6v-2.6c0-0.6,0.5-1.1,1.1-1.1c0.6,0,1,0.5,1,1.1v2.6L17.2,14.9L17.2,14.9z M0,0.7v24h20.7v-1H1v-22h22v23
		h1v-24H0z"/>
</g>
</svg>
