<?xml version="1.0" encoding="utf-8"?>
<!-- Generator: Adobe Illustrator 24.3.0, SVG Export Plug-In . SVG Version: 6.00 Build 0)  -->
<svg version="1.1" id="Layer_1" xmlns="http://www.w3.org/2000/svg" xmlns:xlink="http://www.w3.org/1999/xlink" x="0px" y="0px"
	 viewBox="0 0 25 20" style="enable-background:new 0 0 25 20;" xml:space="preserve">
<style type="text/css">
	.st0{clip-path:url(#SVGID_2_);}
</style>
<g>
	<defs>
		<rect id="SVGID_1_" width="25" height="20"/>
	</defs>
	<clipPath id="SVGID_2_">
		<use xlink:href="#SVGID_1_"  style="overflow:visible;"/>
	</clipPath>
	<path class="st0" d="M9.1,13.4H8.2v0.9h0.9V13.4z M16.1,10.6V9.7H9.9l0,0.9H16.1z M9.1,9.7H8.2v0.9h0.9V9.7z M18.7,11.6H7.3V8.8
		h11.3V11.6z M18.7,15.2H7.3v-2.8h11.3V15.2z M18.7,18.9l-11.3,0v-2.8h11.3V18.9z M18.7,7.9L18.7,7.9l-11.5,0
		c-0.5,0-0.8,0.4-0.8,0.9v10.1c0,0.5,0.3,0.9,0.8,0.9h11.5c0.5,0,0.8-0.4,0.8-0.9V8.8C19.6,8.3,19.2,7.9,18.7,7.9z M16.1,18v-0.9
		H9.9l0,0.9H16.1z M9.1,17.1H8.2V18h0.9V17.1z M16.1,14.3v-0.9H9.9l0,0.9H16.1z M24.5,7.5c-1-2.2-3.2-3.6-5.6-3.6h-0.6
		c-0.2,0-0.3,0-0.5,0C16,0.4,11.7-1,8.2,0.8C7.5,1.1,6.9,1.5,6.4,2c-1.2,1.2-2,2.8-2.1,4.5c-2.6,0.9-3.9,3.7-3,6.2
		c0.5,1.5,1.8,2.7,3.4,3.1c0,0,0.1,0,0.1,0c0.3,0,0.5-0.2,0.5-0.5c0-0.2-0.2-0.4-0.4-0.5c-2.1-0.5-3.3-2.7-2.8-4.8
		c0.4-1.4,1.4-2.4,2.8-2.8l0.4-0.1l0-0.4c0.1-3.4,2.9-6,6.3-5.9C13.9,1.1,16,2.5,17,4.6L17.2,5l0.4-0.1c0.2,0,0.5,0,0.7,0h0.6
		c2.8,0,5.1,2.3,5.1,5.1c0,2-1.2,3.8-3,4.7c-0.2,0.1-0.3,0.4-0.2,0.7c0.1,0.2,0.4,0.3,0.6,0.2C24.5,14.1,25.8,10.5,24.5,7.5z"/>
</g>
</svg>
