<?xml version="1.0" encoding="utf-8"?>
<!-- Generator: Adobe Illustrator 24.3.0, SVG Export Plug-In . SVG Version: 6.00 Build 0)  -->
<svg version="1.1" id="Layer_1" xmlns="http://www.w3.org/2000/svg" xmlns:xlink="http://www.w3.org/1999/xlink" x="0px" y="0px"
	 viewBox="0 0 30 25" style="enable-background:new 0 0 30 25;" xml:space="preserve">
<style type="text/css">
	.st0{clip-path:url(#SVGID_2_);fill:#231E21;}
</style>
<g>
	<defs>
		<rect id="SVGID_1_" width="30" height="25"/>
	</defs>
	<clipPath id="SVGID_2_">
		<use xlink:href="#SVGID_1_"  style="overflow:visible;"/>
	</clipPath>
	<path class="st0" d="M24.7,6.2c3.2,0.8,5.2,3.9,4.8,7.2C29,16.7,26.2,19.1,23,19h-0.5v-1H23c2.8,0.1,5.2-2,5.5-4.7s-1.3-5.4-4-6.1
		L23.7,7l0-0.8V6.1c0-2.7-2.2-4.6-5.1-4.6c-1.7,0-3.3,0.9-4.3,2.3l-0.5,0.8L13,4c-0.3-0.2-0.7-0.3-1-0.3c-0.4,0-1.9,0.1-1.9,1.4l0,0
		c0,0,0,0,0,0l0,0l0,1.2L8.9,6.1C8.7,6.1,8.4,6,8.2,6C6.3,6,4.7,7.6,4.7,9.5c0,0.2,0,0.4,0,0.6l0.2,1l-1,0.2c-1.7,0.3-3,1.9-2.8,3.7
		C1.3,16.7,2.8,18,4.6,18h2.6v1H4.6c-2.3,0-4.2-1.7-4.4-4c-0.2-2.3,1.4-4.3,3.6-4.7c0-0.2-0.1-0.5-0.1-0.8C3.7,7,5.7,5,8.2,5
		c0.3,0,0.6,0,0.8,0.1c0-1.5,1.3-2.4,2.9-2.4c0.5,0,1.1,0.2,1.5,0.4c1.1-1.7,3.1-2.7,5.1-2.7c3.4,0,6.1,2.3,6.1,5.6
		C24.7,6.1,24.7,6.2,24.7,6.2z M15.2,22.8v-6.3l5.4-3.1v6.4L15.2,22.8z M9,13.4l5.2,3.1v6.2l-5.2-3V13.4z M20.1,12.5l-5.4,3.1
		l-5.2-3.1l5.3-3L20.1,12.5z M8,12.2v8.1l6.8,3.9l6.8-3.9v-8.1l-6.8-3.9L8,12.2z"/>
</g>
</svg>
