<?xml version="1.0" encoding="utf-8"?>
<!-- Generator: Adobe Illustrator 24.3.0, SVG Export Plug-In . SVG Version: 6.00 Build 0)  -->
<svg version="1.1" id="Layer_1" xmlns="http://www.w3.org/2000/svg" xmlns:xlink="http://www.w3.org/1999/xlink" x="0px" y="0px"
	 viewBox="0 0 24 21" style="enable-background:new 0 0 24 21;" xml:space="preserve">
<style type="text/css">
	.st0{clip-path:url(#SVGID_2_);}
</style>
<g>
	<defs>
		<rect id="SVGID_1_" width="24" height="21"/>
	</defs>
	<clipPath id="SVGID_2_">
		<use xlink:href="#SVGID_1_"  style="overflow:visible;"/>
	</clipPath>
	<path class="st0" d="M13.4,10c0,0.3,0.2,0.5,0.5,0.5h2.8v5.5c0,0.3,0.2,0.5,0.5,0.5s0.5-0.2,0.5-0.5v-5.5h2.8
		c0.3,0,0.5-0.2,0.5-0.5c0-0.3-0.2-0.5-0.5-0.5h-6.6C13.6,9.5,13.4,9.7,13.4,10z M23,13.2c0,3.3-2.8,4.9-4.6,5.9
		c-0.5,0.3-0.9,0.5-1.2,0.7c-0.3-0.2-0.7-0.5-1.2-0.7c-1.8-1-4.6-2.6-4.6-5.9V7.9l5.8-2.6L23,7.9L23,13.2L23,13.2z M17.2,4.3l-6.8,3
		v6c0,3.9,3.2,5.7,5.1,6.8c0.6,0.3,1,0.6,1.3,0.8l0.1,0.1h0.6l0.1-0.1c0.2-0.2,0.7-0.5,1.3-0.8c1.9-1.1,5.1-2.9,5.1-6.8v-6L17.2,4.3
		z M2.8,14.6c0.1-1.5,0.4-2.9,1-4.3c0,0,0.1,0,0.1,0c0,0,0.1,0,0.1,0c1.2,2.1,2.8,3.9,4.9,5.1L9,15.5C6.9,15.7,4.7,15.4,2.8,14.6z
		 M1,9.7C1,8.1,1.4,6.4,2.3,5c0.1,1.1,0.4,2.2,0.7,3.3C2.6,8.8,2.6,9.5,3,9.9c0,0,0,0,0,0c-0.5,1.2-0.9,2.5-1,3.9
		C1.3,12.6,1,11.2,1,9.7z M4.6,2.6c1.3,0.2,2.6,0.5,3.7,1.1c0,0.1,0,0.1,0,0.2C6.6,4.9,5.1,6.3,4,8.1c-0.1,0-0.1,0-0.2,0h0
		C3.3,6.8,3.1,5.4,3.1,4C3.5,3.5,4.1,3,4.6,2.6z M9.7,1c1.5,0,3,0.4,4.3,1.2c-1.3,0.1-2.6,0.4-3.9,0.9C9.8,2.7,9.2,2.7,8.8,3
		c-1-0.5-2.1-0.8-3.1-1C6.9,1.3,8.3,1,9.7,1z M3.3,15.7c1.4,0.5,2.9,0.7,4.5,0.7c0.5,0,1.1,0,1.6-0.1c-0.2-0.6-0.4-1.2-0.5-1.8
		c-1.8-1.2-3.2-2.7-4.2-4.6c0.4-0.4,0.4-1,0-1.5c1-1.6,2.3-2.9,3.9-3.8c0.4,0.5,1.1,0.5,1.6,0.1c0,0,0,0,0,0
		c0.2,0.2,0.5,0.3,0.7,0.5l0.8-0.4C11.5,4.6,11,4.3,10.6,4c0,0,0-0.1,0-0.1c0-0.1,0-0.1,0-0.2c1.4-0.5,2.8-0.8,4.3-0.8
		c0.1,0,0.2,0,0.3,0c0.1,0.1,0.3,0.2,0.4,0.3l1-0.4C14.7,1,12.3,0,9.7,0C4.4,0,0,4.4,0,9.7s4.4,9.7,9.7,9.7c0.6,0,1.3-0.1,1.9-0.2
		c-0.3-0.3-0.6-0.6-0.9-0.9C8,18.7,5.2,17.7,3.3,15.7z"/>
</g>
</svg>
