<?xml version="1.0" encoding="utf-8"?>
<!-- Generator: Adobe Illustrator 24.3.0, SVG Export Plug-In . SVG Version: 6.00 Build 0)  -->
<svg version="1.1" id="Layer_1" xmlns="http://www.w3.org/2000/svg" xmlns:xlink="http://www.w3.org/1999/xlink" x="0px" y="0px"
	 viewBox="0 0 25 21" style="enable-background:new 0 0 25 21;" xml:space="preserve">
<style type="text/css">
	.st0{clip-path:url(#SVGID_2_);}
</style>
<g>
	<defs>
		<rect id="SVGID_1_" width="25" height="21"/>
	</defs>
	<clipPath id="SVGID_2_">
		<use xlink:href="#SVGID_1_"  style="overflow:visible;"/>
	</clipPath>
	<path class="st0" d="M14.5,16.2c0,0.3,0.2,0.5,0.5,0.5h1.8l-3.1,3.4c-0.2,0.2-0.2,0.5,0,0.7c0.2,0.2,0.5,0.2,0.7,0l3-3.3v1.7
		c0,0.3,0.2,0.5,0.5,0.5c0.3,0,0.5-0.2,0.5-0.5v-3.4H15C14.7,15.7,14.5,16,14.5,16.2z M11.8,12.6V9.1H8.3c-0.3,0-0.5,0.2-0.5,0.5
		s0.2,0.5,0.5,0.5h1.7l-3.4,3.2c-0.2,0.2-0.2,0.5,0,0.7c0.2,0.2,0.5,0.2,0.7,0l3.5-3.2v1.8c0,0.3,0.2,0.5,0.5,0.5
		C11.5,13,11.8,12.8,11.8,12.6z M13.6,9.6c0,0.3,0.2,0.5,0.5,0.5h2.6l-5.7,5.4c-0.2,0.2-0.2,0.5,0,0.7c0.2,0.2,0.5,0.2,0.7,0
		l5.7-5.4v2.6c0,0.3,0.2,0.5,0.5,0.5c0.3,0,0.5-0.2,0.5-0.5V9.1l-4.3,0C13.9,9.1,13.6,9.3,13.6,9.6z M18.9,4.7h-0.6
		c-0.2,0-0.3,0-0.5,0c-1.2-2.5-3.7-4.1-6.4-4.1c-1.9,0-3.7,0.8-5,2.1C5.2,4,4.4,5.7,4.3,7.4C2.3,8.1,1,10.1,1,12.2
		c0,2.7,2,4.9,4.6,5.1H9c0.3,0,0.5-0.2,0.5-0.5S9.3,16.4,9,16.4H5.6c-2-0.1-3.6-1.9-3.6-4.1c0-1.9,1.2-3.5,2.9-4l0.4-0.1l0-0.4
		c0-1.7,0.7-3.2,1.8-4.4c1.1-1.2,2.7-1.8,4.3-1.8c2.4,0,4.6,1.5,5.6,3.8l0.1,0.3l0.4,0c0.2,0,0.5,0,0.7,0h0.6C21.7,5.6,24,8,24,11
		c0,2.4-1.5,4.5-3.7,5.1c-0.3,0.1-0.4,0.3-0.4,0.6c0.1,0.3,0.3,0.4,0.6,0.4c0,0,0,0,0,0c2.6-0.8,4.4-3.3,4.4-6.1
		C25,7.5,22.3,4.7,18.9,4.7z"/>
</g>
</svg>
