<?xml version="1.0" encoding="utf-8"?>
<!-- Generator: Adobe Illustrator 24.3.0, SVG Export Plug-In . SVG Version: 6.00 Build 0)  -->
<svg version="1.1" id="Layer_1" xmlns="http://www.w3.org/2000/svg" xmlns:xlink="http://www.w3.org/1999/xlink" x="0px" y="0px"
	 viewBox="0 0 24 25" style="enable-background:new 0 0 24 25;" xml:space="preserve">
<style type="text/css">
	.st0{clip-path:url(#SVGID_2_);}
</style>
<g>
	<defs>
		<rect id="SVGID_1_" width="24" height="25"/>
	</defs>
	<clipPath id="SVGID_2_">
		<use xlink:href="#SVGID_1_"  style="overflow:visible;"/>
	</clipPath>
	<path class="st0" d="M22.4,1H1.6C0.7,1,0,1.7,0,2.6v12.1h1.1V2.6c0-0.3,0.2-0.5,0.5-0.5h20.7c0.3,0,0.5,0.2,0.5,0.5v8.9H24V2.6
		C24,1.7,23.3,1,22.4,1z M20.9,5c0-0.3-0.3-0.6-0.6-0.6h-16c-0.5,0-0.9,0.4-0.9,0.9v9.4h1.1V5.6h15.7C20.6,5.6,20.9,5.3,20.9,5z
		 M10,23.8H7.7V12.5H10V23.8z M10.5,11.4H7.2c-0.4,0-0.6,0.3-0.6,0.6v13h4.6V12C11.1,11.7,10.9,11.4,10.5,11.4z M16.6,23.8h-2.3V8.8
		h2.3V23.8z M17.1,7.6h-3.3c-0.4,0-0.6,0.3-0.6,0.6V25h4.6V8.3C17.7,7.9,17.4,7.6,17.1,7.6z M3.4,23.9H1.6c-0.3,0-0.5-0.2-0.5-0.5
		V17h2.3V23.9z M3.9,15.9H0v7.5C0,24.3,0.7,25,1.6,25h2.9v-8.5C4.6,16.1,4.3,15.9,3.9,15.9z M20.6,13.9h2.3v9.5
		c0,0.3-0.2,0.5-0.5,0.5h-1.8L20.6,13.9L20.6,13.9z M19.4,13.3V25h2.9c0.9,0,1.6-0.7,1.6-1.6V12.7h-3.9C19.7,12.7,19.4,13,19.4,13.3
		z"/>
</g>
</svg>
