<?xml version="1.0" encoding="utf-8"?>
<!-- Generator: Adobe Illustrator 24.3.0, SVG Export Plug-In . SVG Version: 6.00 Build 0)  -->
<svg version="1.1" id="Layer_1" xmlns="http://www.w3.org/2000/svg" xmlns:xlink="http://www.w3.org/1999/xlink" x="0px" y="0px"
	 viewBox="0 0 25 24" style="enable-background:new 0 0 25 24;" xml:space="preserve">
<style type="text/css">
	.st0{clip-path:url(#SVGID_2_);}
</style>
<g>
	<defs>
		<rect id="SVGID_1_" width="25" height="24"/>
	</defs>
	<clipPath id="SVGID_2_">
		<use xlink:href="#SVGID_1_"  style="overflow:visible;"/>
	</clipPath>
	<path class="st0" d="M12,12.9l-3.2-2.6L12,7.7l3.2,2.6L12,12.9z M12.3,6.7c-0.2-0.1-0.4-0.1-0.6,0l-4,3.2c0,0,0,0-0.1,0.1
		c-0.2,0.2-0.1,0.5,0.1,0.7l4,3.2C11.8,14,11.9,14,12,14c0.1,0,0.2,0,0.3-0.1l4-3.2c0,0,0,0,0.1-0.1c0.2-0.2,0.1-0.5-0.1-0.7
		L12.3,6.7z M1.2,9.5l10.4-8.4c0.2-0.2,0.6-0.2,0.8,0l10.4,8.4c0,0,0.1,0.1,0.1,0.1c0.2,0.2,0.1,0.6-0.1,0.7l-10.4,8.4
		c-0.2,0.2-0.6,0.2-0.8,0L1.2,10.3c0,0-0.1-0.1-0.1-0.1C0.9,10,1,9.7,1.2,9.5z M0.6,11.1L11,19.5c0.3,0.2,0.6,0.3,1,0.3
		s0.7-0.1,1-0.3l10.4-8.4c0.1-0.1,0.2-0.2,0.2-0.2c0.5-0.7,0.4-1.6-0.2-2.1L13,0.3c-0.6-0.5-1.4-0.5-2,0L0.6,8.8
		C0.5,8.8,0.4,8.9,0.3,9C-0.2,9.6-0.1,10.6,0.6,11.1z M4.8,10.1c0.1,0,0.2,0,0.3-0.1L12,4.4l7,5.6c0,0,0,0,0,0
		c0.2,0.2,0.5,0.1,0.7-0.1c0.2-0.2,0.1-0.5-0.1-0.7l-7-5.7c-0.3-0.2-0.7-0.2-1,0l-7,5.7C4.4,9.3,4.3,9.5,4.3,9.6
		C4.3,9.9,4.5,10.1,4.8,10.1z M23.2,13.6l-10.8,8.7c-0.2,0.2-0.6,0.2-0.8,0L0.8,13.6c0,0,0,0,0,0c-0.2-0.2-0.5-0.1-0.7,0.1
		c-0.2,0.2-0.1,0.5,0.1,0.7L11,23.1c0.3,0.2,0.6,0.3,1,0.3s0.7-0.1,1-0.3l10.8-8.7c0,0,0,0,0,0c0.2-0.2,0.2-0.5,0-0.7
		C23.7,13.5,23.4,13.5,23.2,13.6z"/>
</g>
</svg>
