<?xml version="1.0" encoding="utf-8"?>
<!-- Generator: Adobe Illustrator 24.3.0, SVG Export Plug-In . SVG Version: 6.00 Build 0)  -->
<svg version="1.1" id="Layer_1" xmlns="http://www.w3.org/2000/svg" xmlns:xlink="http://www.w3.org/1999/xlink" x="0px" y="0px"
	 viewBox="0 0 24 24" style="enable-background:new 0 0 24 24;" xml:space="preserve">
<style type="text/css">
	.st0{clip-path:url(#SVGID_2_);fill:#231E21;}
</style>
<g>
	<defs>
		<rect id="SVGID_1_" width="24" height="24"/>
	</defs>
	<clipPath id="SVGID_2_">
		<use xlink:href="#SVGID_1_"  style="overflow:visible;"/>
	</clipPath>
	<path class="st0" d="M10.8,20.4c-3.7,0-6.6-3-6.6-6.6s3-6.6,6.6-6.6s6.6,3,6.6,6.6S14.5,20.4,10.8,20.4z M10.8,3.6
		C5.2,3.6,0.6,8.1,0.6,13.8S5.2,24,10.8,24S21,19.4,21,13.8S16.4,3.6,10.8,3.6z M21.6,0.7c-1.3,0-2.4,1.1-2.4,2.4s1.1,2.4,2.4,2.4
		c1.3,0,2.4-1.1,2.4-2.4S22.9,0.7,21.6,0.7z"/>
</g>
</svg>
