<?xml version="1.0" encoding="utf-8"?>
<!-- Generator: Adobe Illustrator 24.3.0, SVG Export Plug-In . SVG Version: 6.00 Build 0)  -->
<svg version="1.1" id="Layer_1" xmlns="http://www.w3.org/2000/svg" xmlns:xlink="http://www.w3.org/1999/xlink" x="0px" y="0px"
	 viewBox="0 0 24 21" style="enable-background:new 0 0 24 21;" xml:space="preserve">
<style type="text/css">
	.st0{clip-path:url(#SVGID_2_);}
</style>
<g>
	<defs>
		<rect id="SVGID_1_" width="24" height="21"/>
	</defs>
	<clipPath id="SVGID_2_">
		<use xlink:href="#SVGID_1_"  style="overflow:visible;"/>
	</clipPath>
	<path class="st0" d="M23,13.6c0,2.5-2.1,3.7-3.6,4.5c-0.3,0.2-0.6,0.3-0.9,0.5c-0.2-0.2-0.5-0.3-0.9-0.5c-1.5-0.9-3.6-2-3.6-4.5
		V9.5l4.5-2l4.5,2V13.6z M18.5,6.5L13,8.9v4.8c0,3.1,2.6,4.6,4.1,5.4c0.4,0.2,0.8,0.5,1,0.6l0.3,0.3l0.3-0.3c0.2-0.2,0.6-0.4,1-0.6
		c1.6-0.9,4.1-2.3,4.1-5.4V8.9L18.5,6.5z M5.6,18c-0.3,0-0.5,0.2-0.5,0.5c0,0.3,0.2,0.5,0.5,0.5h9.7c-0.4-0.3-0.8-0.6-1.2-1L5.6,18
		L5.6,18z M12.5,15.6H3.7c-0.3,0-0.5,0.2-0.5,0.5c0,0.3,0.2,0.5,0.5,0.5h9.2C12.7,16.3,12.6,16,12.5,15.6z M12.2,14.3
		c0-0.2,0-0.4,0-0.6v-0.4H4.2C2.5,13.2,1,11.8,1,10V9.9c0-1.5,1-2.8,2.5-3.1l0.4-0.1l0-0.4c0-0.1,0-0.3,0-0.4c0-2.5,2-4.5,4.5-4.5
		c1.9,0,3.7,1.2,4.3,3.1l0.1,0.3h2.2c0.7,0,1.5,0.2,2.1,0.6c0.2,0.1,0.5,0,0.7-0.2c0.1-0.2,0-0.5-0.2-0.7c-0.8-0.5-1.7-0.7-2.6-0.7
		h-1.5c-1.2-2.8-4.4-4.1-7.2-3C4.2,1.6,2.8,3.7,2.8,5.9v0.1C1.1,6.5,0,8.1,0,9.9V10c0,2.3,1.9,4.2,4.2,4.2H12.2z"/>
</g>
</svg>
