<?xml version="1.0" encoding="utf-8"?>
<!-- Generator: Adobe Illustrator 24.3.0, SVG Export Plug-In . SVG Version: 6.00 Build 0)  -->
<svg version="1.1" id="Layer_1" xmlns="http://www.w3.org/2000/svg" xmlns:xlink="http://www.w3.org/1999/xlink" x="0px" y="0px"
	 viewBox="0 0 24 22" style="enable-background:new 0 0 24 22;" xml:space="preserve">
<style type="text/css">
	.st0{clip-path:url(#SVGID_2_);}
</style>
<g>
	<defs>
		<rect id="SVGID_1_" width="24" height="22"/>
	</defs>
	<clipPath id="SVGID_2_">
		<use xlink:href="#SVGID_1_"  style="overflow:visible;"/>
	</clipPath>
	<path class="st0" d="M15.4,0.8H7C6.7,0.8,6.5,1,6.5,1.3c0,0.3,0.2,0.5,0.5,0.5h8.4c2,0,3.9,0.9,5.3,2.5c1.4,1.6,2.2,3.8,2.2,6
		s-0.8,4.4-2.2,6c-1.4,1.6-3.3,2.5-5.3,2.5h-2.3c-0.3,0-0.5,0.2-0.5,0.5s0.2,0.5,0.5,0.5h2.3c4.7,0,8.6-4.3,8.6-9.5
		S20.2,0.8,15.4,0.8z M17,20.9H8.6c-2,0-3.9-0.9-5.3-2.5c-1.4-1.6-2.2-3.8-2.2-6s0.8-4.4,2.2-6c1.4-1.6,3.3-2.5,5.3-2.5h2.3
		c0.3,0,0.5-0.2,0.5-0.5s-0.2-0.5-0.5-0.5H8.6C3.8,2.9,0,7.2,0,12.4s3.8,9.5,8.6,9.5H17c0.3,0,0.5-0.2,0.5-0.5
		C17.5,21.2,17.3,20.9,17,20.9z M18.8,14.3c-0.1,1-0.9,1.7-1.9,1.7H6.7C5.2,16,4,14.8,4,13.3c0-1.5,1.2-2.7,2.7-2.7h0.4
		c0.3,0,0.5-0.2,0.5-0.4c0.3-2.3,2.2-4,4.6-4h0c2.5,0,4.6,2.1,4.6,4.6l0,0.6c0,0.1,0,0.1,0,0.2c0,0.3,0.2,0.5,0.5,0.5
		C18.2,12.3,19,13.3,18.8,14.3z M12.2,5.2L12.2,5.2c-2.7,0-5,1.9-5.5,4.4c-2.1,0-3.7,1.7-3.7,3.7c0,2.1,1.7,3.7,3.7,3.7h10.3
		c1.6,0,2.9-1.3,2.9-2.9c0-1.3-0.9-2.5-2.1-2.8l0-0.5C17.8,7.7,15.3,5.2,12.2,5.2z"/>
</g>
</svg>
