<?xml version="1.0" encoding="utf-8"?>
<!-- Generator: Adobe Illustrator 24.3.0, SVG Export Plug-In . SVG Version: 6.00 Build 0)  -->
<svg version="1.1" id="Layer_1" xmlns="http://www.w3.org/2000/svg" xmlns:xlink="http://www.w3.org/1999/xlink" x="0px" y="0px"
	 viewBox="0 0 24 24" style="enable-background:new 0 0 24 24;" xml:space="preserve">
<style type="text/css">
	.st0{clip-path:url(#SVGID_2_);}
</style>
<g>
	<defs>
		<rect id="SVGID_1_" width="24" height="24"/>
	</defs>
	<clipPath id="SVGID_2_">
		<use xlink:href="#SVGID_1_"  style="overflow:visible;"/>
	</clipPath>
	<path class="st0" d="M23,6.5l-7,7l-2.7-2.7c-0.2-0.2-0.6-0.2-0.8,0l-4.7,4.7l-2.4-2.4c-0.2-0.2-0.6-0.2-0.8,0l-4.5,4.5
		C0.1,17.8,0,17.9,0,18.1c0,0.3,0.3,0.6,0.6,0.6c0.1,0,0.3-0.1,0.4-0.2l4.1-4.1l2.4,2.4C7.7,17,8,17,8.3,16.8L13,12l2.7,2.7
		c0.2,0.2,0.6,0.2,0.8,0l7.4-7.4c0.2-0.2,0.2-0.6,0-0.8C23.6,6.3,23.3,6.3,23,6.5z M0.6,14.5c0.1,0,0.3-0.1,0.4-0.2l4.1-4.1l2.4,2.4
		c0.2,0.2,0.6,0.2,0.8,0L13,7.8l2.7,2.7c0.2,0.2,0.6,0.2,0.8,0l7.4-7.4c0.2-0.2,0.2-0.6,0-0.8c-0.2-0.2-0.6-0.2-0.8,0l-7,7l-2.7-2.7
		c-0.2-0.2-0.6-0.2-0.8,0l-4.7,4.7L5.5,9C5.2,8.8,4.9,8.8,4.7,9l-4.5,4.5C0.1,13.6,0,13.8,0,13.9C0,14.2,0.3,14.5,0.6,14.5z
		 M3.3,4.2v4.5l1.1-1.1V4.7H19l1.1-1.1H4C3.6,3.6,3.3,3.8,3.3,4.2z M20,20.9c0.3,0,0.6-0.3,0.6-0.6v-8.2l-1.1,1.1v6.6H4.3
		c-0.3,0-0.6,0.3-0.6,0.6c0,0.3,0.3,0.6,0.6,0.6L20,20.9L20,20.9z M23.2,9.7c-0.3,0-0.6,0.3-0.6,0.6v12c0,0.3-0.3,0.6-0.6,0.6H2
		c-0.3,0-0.6-0.3-0.6-0.6v-1.7c0-0.3-0.3-0.6-0.6-0.6s-0.6,0.3-0.6,0.6v1.7c0,0.9,0.8,1.7,1.7,1.7H22c0.9,0,1.7-0.8,1.7-1.7v-12
		C23.7,10,23.5,9.7,23.2,9.7z M0.8,11.1c0.3,0,0.6-0.3,0.6-0.6V2.2c0-0.3,0.3-0.6,0.6-0.6H22c0.3,0,0.6-0.3,0.6-0.6
		c0-0.3-0.2-0.6-0.6-0.6H2C1,0.5,0.3,1.3,0.3,2.2v8.4C0.3,10.9,0.5,11.1,0.8,11.1z"/>
</g>
</svg>
