<?xml version="1.0" encoding="utf-8"?>
<!-- Generator: Adobe Illustrator 24.3.0, SVG Export Plug-In . SVG Version: 6.00 Build 0)  -->
<svg version="1.1" id="Layer_1" xmlns="http://www.w3.org/2000/svg" xmlns:xlink="http://www.w3.org/1999/xlink" x="0px" y="0px"
	 viewBox="0 0 24 18" style="enable-background:new 0 0 24 18;" xml:space="preserve">
<style type="text/css">
	.st0{clip-path:url(#SVGID_2_);}
</style>
<g>
	<defs>
		<rect id="SVGID_1_" width="24" height="18"/>
	</defs>
	<clipPath id="SVGID_2_">
		<use xlink:href="#SVGID_1_"  style="overflow:visible;"/>
	</clipPath>
	<path class="st0" d="M23.5,5.1c-0.3,0-0.5,0.2-0.5,0.5v2.1l-6.8-7.1c-0.3-0.3-0.6-0.4-1-0.4c-0.4,0-0.7,0.2-1,0.4L12,3L9.7,0.7
		c-0.5-0.6-1.4-0.6-2-0.1c0,0,0,0-0.1,0.1L1.5,7.2c-0.2,0.2-0.2,0.5,0,0.7c0.2,0.2,0.5,0.2,0.7,0l0,0l6.3-6.5c0.2-0.2,0.4-0.2,0.6,0
		c0,0,0,0,0,0l2.3,2.4L7.2,8.1c-0.5,0.6-0.5,1.5,0,2l4.2,4.3L9,16.8c-0.2,0.2-0.4,0.2-0.6,0c0,0,0,0,0,0L1.6,9.7h2.1
		c0.3,0,0.5-0.2,0.5-0.5S3.9,8.8,3.7,8.8H0.5C0.2,8.8,0,9,0,9.2v3.3c0,0.3,0.2,0.5,0.5,0.5S1,12.8,1,12.6v-2.1l6.8,7.1
		c0.5,0.6,1.4,0.6,2,0.1l0.1-0.1l2.3-2.4l2.3,2.4c0.5,0.6,1.4,0.6,2,0.1c0,0,0,0,0.1-0.1l5.9-6.2c0.2-0.2,0.2-0.5,0-0.7
		c-0.2-0.2-0.5-0.2-0.7,0l-5.9,6.2c-0.2,0.2-0.4,0.2-0.6,0c0,0,0,0,0,0L7.9,9.4c-0.2-0.2-0.2-0.5,0-0.7L15,1.3
		c0.2-0.2,0.4-0.2,0.6,0l0,0l6.8,7.1h-2.1c-0.3,0-0.5,0.2-0.5,0.5s0.2,0.5,0.5,0.5h3.2c0.3,0,0.5-0.2,0.5-0.5V5.6
		C24,5.3,23.8,5.1,23.5,5.1z M12.7,13l0.7,0.7l3.4-3.6c0.5-0.6,0.5-1.5,0-2l-3.5-3.6l-0.7,0.7l3.4,3.6c0.2,0.2,0.2,0.5,0,0.7
		L12.7,13z"/>
</g>
</svg>
