<?xml version="1.0" encoding="utf-8"?>
<!-- Generator: Adobe Illustrator 24.3.0, SVG Export Plug-In . SVG Version: 6.00 Build 0)  -->
<svg version="1.1" id="Layer_1" xmlns="http://www.w3.org/2000/svg" xmlns:xlink="http://www.w3.org/1999/xlink" x="0px" y="0px"
	 viewBox="0 0 24 22" style="enable-background:new 0 0 24 22;" xml:space="preserve">
<style type="text/css">
	.st0{clip-path:url(#SVGID_2_);}
</style>
<g>
	<defs>
		<rect id="SVGID_1_" width="24" height="22"/>
	</defs>
	<clipPath id="SVGID_2_">
		<use xlink:href="#SVGID_1_"  style="overflow:visible;"/>
	</clipPath>
	<path class="st0" d="M23.3,17.7h-2.8c1.5-1.9,2.3-4.3,2.3-6.7c0-6-4.9-11-11-11C9.9,0,8,0.5,6.3,1.5C6.1,1.7,6,1.9,6.2,2.2
		s0.4,0.3,0.6,0.2c1.5-0.9,3.3-1.4,5.1-1.4c5.5,0,10,4.5,10,10c0,2.3-0.8,4.6-2.3,6.4V14c0-0.3-0.2-0.5-0.5-0.5s-0.5,0.2-0.5,0.5
		v4.7h4.7c0.3,0,0.5-0.2,0.5-0.5C23.8,17.9,23.6,17.7,23.3,17.7z M17.1,19.6c-1.6,1-3.4,1.5-5.2,1.5c-5.5,0-10-4.5-10-10
		c0-2.3,0.8-4.6,2.3-6.4v3.3c0,0.3,0.2,0.5,0.5,0.5c0.3,0,0.5-0.2,0.5-0.5V3.2H0.5C0.2,3.2,0,3.4,0,3.7s0.2,0.5,0.5,0.5h2.8
		C1.8,6.1,0.9,8.5,0.9,11c0,6,4.9,11,11,11c2,0,4-0.5,5.7-1.6c0.2-0.1,0.3-0.4,0.2-0.6C17.6,19.5,17.3,19.4,17.1,19.6z M11.2,9.3
		c0.1,0.1,0.2,0.2,0.4,0.2h3.8l-4.6,8.9c0.2-0.6,0.4-1.2,0.6-1.8c0.4-1.4,0.8-2.5,1-3.2c0.1-0.5,0.2-0.8,0.3-1.1
		c0.2-0.5,0.2-0.6,0-0.9c-0.1-0.1-0.2-0.2-0.4-0.2H8.1l4.3-8.1l-1.3,5.8C11,9,11.1,9.2,11.2,9.3z M11.9,2.4c-0.1,0-0.2,0-0.3,0
		L7,11.1c-0.2,0.4-0.1,0.8,0.3,1c0.1,0.1,0.2,0.1,0.4,0.1h3.9c-0.4,1.3-1.3,4.3-2.1,7c0.6,0.2,1.2,0.3,1.8,0.3l5.1-9.9
		c0.2-0.4,0-0.8-0.3-1c-0.1-0.1-0.2-0.1-0.3-0.1h-3.5l1.3-6C13,2.4,12.4,2.4,11.9,2.4z"/>
</g>
</svg>
