<?xml version="1.0" encoding="utf-8"?>
<!-- Generator: Adobe Illustrator 24.3.0, SVG Export Plug-In . SVG Version: 6.00 Build 0)  -->
<svg version="1.1" id="Layer_1" xmlns="http://www.w3.org/2000/svg" xmlns:xlink="http://www.w3.org/1999/xlink" x="0px" y="0px"
	 viewBox="0 0 24 20" style="enable-background:new 0 0 24 20;" xml:space="preserve">
<style type="text/css">
	.st0{clip-path:url(#SVGID_2_);fill:#231E21;}
</style>
<g>
	<defs>
		<rect id="SVGID_1_" width="24" height="20"/>
	</defs>
	<clipPath id="SVGID_2_">
		<use xlink:href="#SVGID_1_"  style="overflow:visible;"/>
	</clipPath>
	<path class="st0" d="M22.8,10.5L19,14.3l-4.2-4.2L19,5.8l3.8,3.8c0.1,0.1,0.2,0.3,0.2,0.5S22.9,10.4,22.8,10.5z M23.5,8.9L19,4.4
		l-5.6,5.6l5.6,5.6l4.5-4.5C24.2,10.6,24.2,9.5,23.5,8.9z M14.2,15l-3.8,3.8c-0.1,0.1-0.3,0.2-0.5,0.2c-0.2,0-0.3-0.1-0.5-0.2
		L5.7,15l4.2-4.2L14.2,15z M5,14.3l-3.8-3.8C1.1,10.4,1,10.3,1,10.1s0.1-0.3,0.2-0.5l3.8-3.8l4.2,4.2L5,14.3z M9.4,1.4
		c0.1-0.1,0.3-0.2,0.5-0.2s0.3,0.1,0.5,0.2l3.8,3.8L9.9,9.4L5.7,5.1L9.4,1.4z M15.5,5.2L11,0.7c-0.3-0.3-0.7-0.5-1.2-0.5
		S9,0.4,8.7,0.7L5,4.4L0.5,8.9c-0.6,0.6-0.6,1.7,0,2.3L5,15.7l0,0l3.8,3.8C9.1,19.8,9.5,20,9.9,20c0.4,0,0.8-0.2,1.2-0.5l4.5-4.5
		l-5-5L15.5,5.2z"/>
</g>
</svg>
