<?xml version="1.0" encoding="utf-8"?>
<!-- Generator: Adobe Illustrator 24.3.0, SVG Export Plug-In . SVG Version: 6.00 Build 0)  -->
<svg version="1.1" id="Layer_1" xmlns="http://www.w3.org/2000/svg" xmlns:xlink="http://www.w3.org/1999/xlink" x="0px" y="0px"
	 viewBox="0 0 24 24" style="enable-background:new 0 0 24 24;" xml:space="preserve">
<style type="text/css">
	.st0{clip-path:url(#SVGID_2_);}
</style>
<g>
	<defs>
		<rect id="SVGID_1_" width="24" height="24"/>
	</defs>
	<clipPath id="SVGID_2_">
		<use xlink:href="#SVGID_1_"  style="overflow:visible;"/>
	</clipPath>
	<path class="st0" d="M10.4,15v-2l1.8-1.8l3.1,4.1c0,0,0,0,0,0c0.2,0.2,0.5,0.2,0.7,0.1c0.2-0.2,0.2-0.5,0.1-0.7l-3.2-4.2l3-3
		c0.2-0.2,0.2-0.5,0-0.7c-0.2-0.2-0.5-0.2-0.7,0l-4.8,4.8V7.3c0-0.2-0.2-0.4-0.5-0.5C9.7,6.8,9.5,7,9.4,7.3V15
		c0,0.2,0.2,0.4,0.5,0.5C10.2,15.5,10.4,15.3,10.4,15z M12.5,23c-0.8,0-1.4-0.6-1.4-1.4s0.6-1.4,1.4-1.4c0.8,0,1.4,0.6,1.4,1.4
		C13.9,22.4,13.2,23,12.5,23z M12.5,19.3L12.5,19.3c-1.3,0-2.3,1-2.3,2.3c0,1.3,1,2.3,2.3,2.3s2.3-1,2.3-2.3
		C14.8,20.4,13.8,19.3,12.5,19.3z M1.8,5.7c0-0.8,0.6-1.4,1.4-1.4c0.8,0,1.4,0.6,1.4,1.4c0,0.8-0.6,1.4-1.4,1.4S1.8,6.4,1.8,5.7z
		 M5.5,5.7c0-1.3-1-2.3-2.3-2.3h0c-1.3,0-2.3,1-2.3,2.3C0.8,7,1.9,8,3.2,8C4.5,8,5.5,7,5.5,5.7z M21.7,7.1c-0.8,0-1.4-0.6-1.4-1.4
		s0.6-1.4,1.4-1.4S23,4.9,23,5.7C23,6.4,22.4,7.1,21.7,7.1z M21.7,3.4L21.7,3.4c-1.3,0-2.3,1-2.3,2.3c0,1.3,1,2.3,2.3,2.3
		S24,7,24,5.7C24,4.4,23,3.4,21.7,3.4z M21.2,16.2l-6,3.5l0.5,0.8l6.2-3.6c0.2-0.1,0.4-0.4,0.4-0.6V9h-1V16.2z M3.7,9h-1v7.4
		c0,0.3,0.1,0.5,0.4,0.6l6.2,3.6l0.5-0.8l-6.1-3.5L3.7,9L3.7,9z M12.4,1l6.1,3.5L19,3.7l-6.2-3.6c-0.2-0.1-0.5-0.1-0.7,0L5.9,3.7
		l0.5,0.8L12.4,1z"/>
</g>
</svg>
