<?xml version="1.0" encoding="utf-8"?>
<!-- Generator: Adobe Illustrator 24.3.0, SVG Export Plug-In . SVG Version: 6.00 Build 0)  -->
<svg version="1.1" id="Layer_1" xmlns="http://www.w3.org/2000/svg" xmlns:xlink="http://www.w3.org/1999/xlink" x="0px" y="0px"
	 viewBox="0 0 31 31" style="enable-background:new 0 0 31 31;" xml:space="preserve">
<style type="text/css">
	.st0{clip-path:url(#SVGID_2_);fill:#231E21;}
</style>
<g>
	<defs>
		<rect id="SVGID_1_" width="31" height="31"/>
	</defs>
	<clipPath id="SVGID_2_">
		<use xlink:href="#SVGID_1_"  style="overflow:visible;"/>
	</clipPath>
	<path class="st0" d="M27.3,6.6c-0.5-3.1-2.9-5.5-5.9-5.6l-0.2,0c-2.3,0-4.4,1.4-5.5,3.6c-0.5-0.2-1.1-0.3-1.7-0.3l-0.1,0
		c-2.3,0-4.4,1.5-5,3.7c-0.2,0-0.4,0-0.6,0l-0.1,0C6,7.9,4.1,9.8,4,12.1c-0.1,2.3,2.1,4.5,4.5,4.6l0.5,0c0.8,0,1.5,0,3.6,0l1-1
		c-2.1,0-3.8,0-4.6,0l-0.4,0C6.7,15.7,5,13.9,5,12.2C5.1,10.4,6.5,9,8.4,9c0,0,0,0,0,0C8.7,9,9,9,9.2,9.1l0.5,0.1l0.1-0.5
		c0.4-2,2.2-3.4,4.2-3.4l0.1,0c0.6,0,1.2,0.2,1.7,0.4l0.5,0.2l0.2-0.5C17.4,3.3,19.2,2,21.3,2l0.1,0c2.6,0.1,4.7,2.2,5,5.1l0,0.4
		l0.4,0c1.8,0.2,3.2,2,3.1,4.2c0,2.2-1.6,4-3.5,4c0,0,0,0,0,0l-0.4,0c-0.9,0-2.1,0.1-4.6,0.1l0,1c2.5,0,3.7-0.1,4.6-0.1l0.5,0
		c2.4,0,4.4-2.2,4.5-5C31.1,9.2,29.5,7,27.3,6.6z M12.4,23.6l0.7,0.7l7.1-7.1l0-3.2l-3.2,0l-7.1,7l0.7,0.7l6.8-6.7l1.8,0l0,1.7
		L12.4,23.6z M18.7,23.9C18.7,23.9,18.7,23.9,18.7,23.9c-0.1,0-0.2,0-0.4,0c-0.3-0.9-1-1.8-1.8-2.3L16,22.5c0.8,0.5,1.3,1.2,1.5,2.1
		l0.1,0.5l0.5-0.1c0.2-0.1,0.4-0.1,0.7-0.1c1.3,0,2.4,1.1,2.5,2.4c0,1.3-1.2,2.6-2.6,2.7l-0.3,0c-1,0-3.8,0-6.7,0C8.8,30,6,30,5,30
		l-0.4,0c-1.4,0-2.6-1.4-2.6-3c0-1.6,1-3,2.4-3.1l0.4,0l0-0.4c0.2-2.1,1.8-3.8,3.9-3.9c0.7,0,1.3,0.2,1.9,0.5l0.5-0.8
		c-0.7-0.5-1.6-0.7-2.4-0.7l-0.1,0c-2.3,0.1-4.3,1.9-4.7,4.4C2.2,23.3,1,25,1,27c0,2.2,1.7,4,3.7,4c0,0,0,0,0,0L5,31
		c1,0,3.8,0,6.6,0c2.8,0,5.7,0,6.7,0l0.4,0c1.9-0.1,3.6-1.8,3.6-3.7C22.2,25.4,20.7,23.9,18.7,23.9z"/>
</g>
</svg>
