<?xml version="1.0" encoding="utf-8"?>
<!-- Generator: Adobe Illustrator 24.3.0, SVG Export Plug-In . SVG Version: 6.00 Build 0)  -->
<svg version="1.1" id="Layer_1" xmlns="http://www.w3.org/2000/svg" xmlns:xlink="http://www.w3.org/1999/xlink" x="0px" y="0px"
	 viewBox="0 0 24 24" style="enable-background:new 0 0 24 24;" xml:space="preserve">
<style type="text/css">
	.st0{clip-path:url(#SVGID_2_);fill:#231E21;}
</style>
<g>
	<defs>
		<rect id="SVGID_1_" width="24" height="24"/>
	</defs>
	<clipPath id="SVGID_2_">
		<use xlink:href="#SVGID_1_"  style="overflow:visible;"/>
	</clipPath>
	<path class="st0" d="M1.3,12.8c-0.4-0.4-0.4-1.1,0-1.5l3.1-3.1L8.2,12l-3.8,3.8L1.3,12.8z M4.4,6.7l-3.8,3.8c0,0,0,0,0,0
		c-0.8,0.8-0.8,2.1,0,3l3.8,3.8L9.7,12L4.4,6.7z M8.1,19.2c-0.3,0-0.6-0.1-0.8-0.3L6.5,18l5.3-5.3l0.7-0.7l-0.7-0.7L6.5,6l0.8-0.8
		c0.2-0.2,0.5-0.3,0.8-0.3c0.3,0,0.6,0.1,0.8,0.3l6.9,6.9l-6.9,6.9C8.7,19.1,8.4,19.2,8.1,19.2z M17.2,12L9.6,4.4
		C9.2,4,8.7,3.8,8.1,3.8C7.6,3.8,7,4,6.6,4.4L5,6l6.1,6L5,18l1.5,1.5c0.4,0.4,1,0.6,1.5,0.6h0c0.6,0,1.1-0.2,1.5-0.6L17.2,12z
		 M22.6,12.8l-9.9,9.8c-0.2,0.2-0.5,0.3-0.8,0.3c-0.3,0-0.6-0.1-0.8-0.3l-0.8-0.8l9.1-9.1l0.7-0.7l-0.7-0.7l-9.1-9.1l0.8-0.8
		C11.3,1.1,11.6,1,11.9,1c0.3,0,0.6,0.1,0.8,0.3l9.9,9.8C23,11.6,23,12.4,22.6,12.8z M23.3,10.5l-9.9-9.8C13,0.2,12.4,0,11.9,0
		c-0.6,0-1.1,0.2-1.5,0.6L8.8,2.2l9.9,9.8l-9.9,9.8l1.5,1.5c0.4,0.4,1,0.6,1.5,0.6h0c0.6,0,1.1-0.2,1.5-0.6l9.9-9.8
		C24.1,12.7,24.1,11.3,23.3,10.5z"/>
</g>
</svg>
