<?xml version="1.0" encoding="utf-8"?>
<!-- Generator: Adobe Illustrator 24.3.0, SVG Export Plug-In . SVG Version: 6.00 Build 0)  -->
<svg version="1.1" id="Layer_1" xmlns="http://www.w3.org/2000/svg" xmlns:xlink="http://www.w3.org/1999/xlink" x="0px" y="0px"
	 viewBox="0 0 25 21" style="enable-background:new 0 0 25 21;" xml:space="preserve">
<style type="text/css">
	.st0{clip-path:url(#SVGID_2_);}
</style>
<g>
	<defs>
		<rect id="SVGID_1_" width="25" height="21"/>
	</defs>
	<clipPath id="SVGID_2_">
		<use xlink:href="#SVGID_1_"  style="overflow:visible;"/>
	</clipPath>
	<path class="st0" d="M15.7,11.8c-0.3-1.2-0.9-2.2-1.6-3c1.7,0.3,3.2,1.4,4,3H15.7z M18.5,16h-2.5c0.2-1.2,0.2-2.3,0-3.5h2.5
		C18.8,13.6,18.8,14.9,18.5,16z M14.2,19.9c0.7-0.9,1.3-1.9,1.6-3.1h2.4C17.4,18.4,15.9,19.5,14.2,19.9z M12.9,20
		c-0.9-0.8-1.6-2-2-3.2H15c-0.4,1.3-1.1,2.4-2,3.2H12.9z M7.9,16.7h2.2c0.3,1.2,0.8,2.2,1.6,3.1C10.1,19.4,8.7,18.3,7.9,16.7z
		 M7.4,14.3c0-0.6,0.1-1.2,0.3-1.8H10c-0.2,1.2-0.2,2.3,0,3.5H7.7C7.5,15.5,7.4,14.9,7.4,14.3z M11.8,8.8c-0.7,0.9-1.3,1.9-1.6,3H8
		C8.8,10.3,10.2,9.2,11.8,8.8z M15.2,12.5c0.1,0.6,0.2,1.2,0.2,1.9c0,0.6-0.1,1.1-0.2,1.6l-4.5,0c-0.1-0.5-0.2-1.1-0.2-1.6
		c0-0.6,0.1-1.2,0.2-1.9H15.2z M13,8.7c0.9,0.8,1.6,1.9,2,3.1h-4C11.4,10.5,12.1,9.4,13,8.7L13,8.7z M13.1,7.7c-3.7,0-6.6,3-6.6,6.6
		s3,6.6,6.6,6.6s6.6-3,6.6-6.6C19.7,10.7,16.7,7.7,13.1,7.7z M18.9,4.6h-0.7c-0.2,0-0.3,0-0.5,0c-1.1-2.2-3.3-3.7-5.8-3.9
		C8,0.4,4.6,3.4,4.3,7.3C2.3,7.9,1,9.8,1,11.9C1,13,1.4,14,2,14.8c0.7,0.8,1.6,1.4,2.6,1.6c0,0,0.1,0,0.1,0v0c0.2,0,0.4-0.1,0.5-0.4
		c0.1-0.3-0.1-0.5-0.3-0.6C3.1,15.1,2,13.6,2,11.9c0-1.8,1.2-3.4,2.9-3.8L5.3,8l0-0.4C5.3,6,6,4.5,7.1,3.4c0.5-0.5,1.1-0.9,1.8-1.2
		c3.1-1.4,6.7,0,8.1,3.1l0.1,0.3l0.4-0.1c0.2,0,0.5,0,0.7-0.1h0.7c2.8,0,5.1,2.3,5.1,5.1c0,2.1-1.2,4.1-3,4.9l0,0c0,0,0,0-0.1,0
		c-0.2,0.1-0.3,0.4-0.2,0.7c0.1,0.2,0.4,0.3,0.7,0.2c2.1-1,3.6-3.3,3.6-5.7C25,7.3,22.3,4.6,18.9,4.6z"/>
</g>
</svg>
