<?xml version="1.0" encoding="utf-8"?>
<!-- Generator: Adobe Illustrator 24.3.0, SVG Export Plug-In . SVG Version: 6.00 Build 0)  -->
<svg version="1.1" id="Layer_1" xmlns="http://www.w3.org/2000/svg" xmlns:xlink="http://www.w3.org/1999/xlink" x="0px" y="0px"
	 viewBox="0 0 24 24" style="enable-background:new 0 0 24 24;" xml:space="preserve">
<style type="text/css">
	.st0{clip-path:url(#SVGID_2_);}
</style>
<g>
	<defs>
		<rect id="SVGID_1_" width="24" height="24"/>
	</defs>
	<clipPath id="SVGID_2_">
		<use xlink:href="#SVGID_1_"  style="overflow:visible;"/>
	</clipPath>
	<path class="st0" d="M21.3,4.3c-0.9,0-1.6-0.7-1.6-1.6S20.4,1,21.3,1S23,1.7,23,2.6S22.2,4.3,21.3,4.3z M21.3,0
		c-1.4,0-2.6,1.2-2.6,2.6s1.2,2.6,2.6,2.6s2.6-1.2,2.6-2.6C23.9,1.2,22.8,0,21.3,0z M3.6,10.6c-0.1,0.3,0.1,0.5,0.3,0.6
		c0.3,0.1,0.5-0.1,0.6-0.3c0.4-1.1,1-2.1,1.8-2.8c2.7-2.6,7-2.4,9.6,0.3c2.6,2.7,2.4,7-0.3,9.6c-2.7,2.6-7,2.4-9.6-0.3
		c-0.2-0.2-0.5-0.2-0.7,0s-0.2,0.5,0,0.7c1.5,1.6,3.5,2.4,5.6,2.4c3.3,0,6.3-2.1,7.4-5.3c1.3-4.1-0.9-8.4-4.9-9.8
		C9.3,4.4,4.9,6.6,3.6,10.6z M19.4,6.8c-0.2,0.2-0.3,0.5-0.1,0.7C20.4,9.1,21,11,21,13c0,5.5-4.5,10-10,10S1,18.5,1,13s4.5-10,10-10
		c1.6,0,3.2,0.4,4.6,1.1c0,0,0,0,0,0c0.2,0.1,0.5,0,0.7-0.2c0.1-0.2,0-0.5-0.2-0.7c-1.6-0.8-3.3-1.2-5-1.2C4.9,2.1,0,7,0,13
		s4.9,11,11,11s11-4.9,11-11c0-2.2-0.6-4.3-1.9-6.1C19.9,6.7,19.6,6.6,19.4,6.8z"/>
</g>
</svg>
