<?xml version="1.0" encoding="utf-8"?>
<!-- Generator: Adobe Illustrator 24.3.0, SVG Export Plug-In . SVG Version: 6.00 Build 0)  -->
<svg version="1.1" id="Layer_1" xmlns="http://www.w3.org/2000/svg" xmlns:xlink="http://www.w3.org/1999/xlink" x="0px" y="0px"
	 viewBox="0 0 21 24" style="enable-background:new 0 0 21 24;" xml:space="preserve">
<style type="text/css">
	.st0{clip-path:url(#SVGID_2_);fill:#231E21;}
</style>
<g>
	<defs>
		<rect id="SVGID_1_" width="21" height="24"/>
	</defs>
	<clipPath id="SVGID_2_">
		<use xlink:href="#SVGID_1_"  style="overflow:visible;"/>
	</clipPath>
	<path class="st0" d="M20,10.7c0,8.9-9,12.2-9.1,12.2l-0.2,0.1l-0.1,0c-0.4-0.1-9.1-3.6-9.1-12.3l0-5.4l0.2-0.1
		c1.6-0.4,3.1-0.9,4.6-1.6c1.5-0.6,2.9-1.4,4.2-2.2l0.2-0.1L11,1.3c1.3,0.9,2.8,1.6,4.2,2.2c1.5,0.7,3,1.2,4.6,1.7L20,5.2L20,10.7z
		 M20,4.2c-1.5-0.4-3-1-4.4-1.6c-1.4-0.6-2.8-1.4-4.1-2.2L10.8,0l-0.7,0.4C8.8,1.3,7.4,2,6,2.6C4.6,3.2,3.1,3.7,1.6,4.1l-1,0.2
		l0,6.2C0.5,20,9.8,23.7,10.2,23.8l0.4,0.2l0.4-0.2l0,0c1.5-0.4,9.8-4.3,9.8-13.2l0-6.2L20,4.2z M15,9.3V15H9.8v-1.8h3v-4H15z
		 M6.5,12.3V6.5h5.3v5.8H6.5z M12.8,5.5H5.5v7.8h3.3V16H16V8.3h-3.2V5.5z"/>
</g>
</svg>
