<?xml version="1.0" encoding="utf-8"?>
<!-- Generator: Adobe Illustrator 24.3.0, SVG Export Plug-In . SVG Version: 6.00 Build 0)  -->
<svg version="1.1" id="Layer_1" xmlns="http://www.w3.org/2000/svg" xmlns:xlink="http://www.w3.org/1999/xlink" x="0px" y="0px"
	 viewBox="0 0 24 22" style="enable-background:new 0 0 24 22;" xml:space="preserve">
<style type="text/css">
	.st0{clip-path:url(#SVGID_2_);}
</style>
<g>
	<defs>
		<rect id="SVGID_1_" width="24" height="22"/>
	</defs>
	<clipPath id="SVGID_2_">
		<use xlink:href="#SVGID_1_"  style="overflow:visible;"/>
	</clipPath>
	<path class="st0" d="M18.2,7.1h3V19h1V6.6c0-0.3-0.2-0.5-0.5-0.5h-4c-0.3,0-0.5,0.2-0.5,0.5V8c0.4,0.4,0.7,0.8,1,1.2V7.1z M18.2,19
		v-2.1c-0.3,0.4-0.6,0.8-1,1.2V19H18.2z M6.3,19h1v-1.3c-0.4-0.4-0.7-0.9-1-1.4V19z M3.2,2h3v7.8c0.3-0.5,0.6-1,1-1.4V1.5
		C7.3,1.2,7.1,1,6.8,1h-4C2.5,1,2.2,1.2,2.2,1.5V19h1V2z M23.5,20h-23C0.2,20,0,20.2,0,20.5S0.2,21,0.5,21h23c0.3,0,0.5-0.2,0.5-0.5
		S23.8,20,23.5,20z M12.2,13.5c1,0.4,1.5,0.7,1.5,1c0,0.4-0.6,0.8-1.3,0.8c-0.5,0-1-0.2-1.2-0.5c-0.2-0.2-0.5-0.3-0.7-0.1
		c-0.2,0.2-0.3,0.5-0.1,0.7c0,0,0,0,0,0c0.4,0.5,1,0.8,1.8,0.9v0.6c0,0.3,0.2,0.5,0.5,0.5c0.3,0,0.5-0.2,0.5-0.5v-0.6
		c0.9-0.2,1.6-0.9,1.6-1.7c0-1.2-1.5-1.8-2.2-2c-1.2-0.4-1.3-0.7-1.3-0.9c0-0.3,0.5-0.7,1.1-0.7c0.5,0,0.9,0.2,1.1,0.5
		c0.1,0.2,0.5,0.3,0.7,0.2c0.2-0.1,0.3-0.5,0.2-0.7c0,0,0,0,0,0c-0.2-0.4-0.7-0.7-1.1-0.8V9.2c0-0.3-0.2-0.5-0.5-0.5
		c-0.3,0-0.5,0.2-0.5,0.5V10c-1.1,0.1-1.9,0.8-1.9,1.7C10.2,12.8,11.5,13.3,12.2,13.5z M12.4,8.1c2.8,0,5,2.2,5,4.9s-2.2,4.9-5,4.9
		c-2.7,0-5-2.2-5-4.9S9.7,8.1,12.4,8.1z M12.4,19c3.3,0,6-2.7,6-5.9s-2.7-5.9-6-5.9s-6,2.7-6,5.9S9.1,19,12.4,19z M10.8,4.8h3v1.5
		c0.3,0.1,0.7,0.2,1,0.3V4.3c0-0.3-0.2-0.5-0.5-0.5h-4c-0.3,0-0.5,0.2-0.5,0.5v2.3c0.3-0.1,0.7-0.2,1-0.3V4.8z"/>
</g>
</svg>
