<?xml version="1.0" encoding="utf-8"?>
<!-- Generator: Adobe Illustrator 24.3.0, SVG Export Plug-In . SVG Version: 6.00 Build 0)  -->
<svg version="1.1" id="Layer_1" xmlns="http://www.w3.org/2000/svg" xmlns:xlink="http://www.w3.org/1999/xlink" x="0px" y="0px"
	 viewBox="0 0 21 25" style="enable-background:new 0 0 21 25;" xml:space="preserve">
<style type="text/css">
	.st0{clip-path:url(#SVGID_2_);}
</style>
<g>
	<defs>
		<rect id="SVGID_1_" width="21" height="25"/>
	</defs>
	<clipPath id="SVGID_2_">
		<use xlink:href="#SVGID_1_"  style="overflow:visible;"/>
	</clipPath>
	<path class="st0" d="M3.8,10.8v5.5c0,0.2,0.1,0.3,0.2,0.4l5.8,3.5c0.2,0.1,0.4,0.1,0.5,0l5.8-3.5c0.2-0.1,0.2-0.3,0.2-0.4v-5.5
		l-1,0.6V16l-5.3,3.2L4.8,16v-4.6L3.8,10.8z M10.2,6.5L15,9.4l-4.8,2.9L5.3,9.4L10.2,6.5z M20.1,6.6l-9.7-5.7
		c-0.2-0.1-0.4-0.1-0.5,0L3.6,4.7C3.4,4.8,3.3,5.1,3.5,5.4s0.4,0.3,0.7,0.2l6-3.6l9.2,5.4v10.9l-9.2,5.5L1,18.3V8l8.9,5.3
		c0.2,0.1,0.4,0.1,0.5,0l5.8-3.5c0.2-0.1,0.3-0.4,0.2-0.7c-0.1-0.1-0.2-0.2-0.3-0.2l-5.7-3.4c-0.2-0.1-0.4-0.1-0.5,0L4.3,8.8
		l0.2,0.1L0.8,6.6C0.5,6.5,0.2,6.6,0.1,6.8C0,6.9,0,7,0,7.1v11.5c0,0.2,0.1,0.3,0.2,0.4l9.7,5.7c0.2,0.1,0.4,0.1,0.5,0l9.7-5.7
		c0.2-0.1,0.2-0.3,0.2-0.4V7.1C20.3,6.9,20.2,6.7,20.1,6.6z"/>
</g>
</svg>
