<?xml version="1.0" encoding="utf-8"?>
<!-- Generator: Adobe Illustrator 24.3.0, SVG Export Plug-In . SVG Version: 6.00 Build 0)  -->
<svg version="1.1" id="Layer_1" xmlns="http://www.w3.org/2000/svg" xmlns:xlink="http://www.w3.org/1999/xlink" x="0px" y="0px"
	 viewBox="0 0 24 26" style="enable-background:new 0 0 24 26;" xml:space="preserve">
<style type="text/css">
	.st0{clip-path:url(#SVGID_2_);}
</style>
<g>
	<defs>
		<rect id="SVGID_1_" width="24" height="26"/>
	</defs>
	<clipPath id="SVGID_2_">
		<use xlink:href="#SVGID_1_"  style="overflow:visible;"/>
	</clipPath>
	<path class="st0" d="M23.6,14.4l-0.1,0c-0.1,0-0.1,0-0.2,0c-0.3,0-0.5,0.2-0.6,0.5c0,0.1,0,0.1,0,0.2v6.6c0,0.4-0.1,0.8-0.3,1.1
		c-0.4,0.6-1,0.9-1.7,0.9c-5.7,0-11.4,0-17.2,0c-0.4,0-0.8-0.1-1.1-0.3c-0.6-0.4-0.9-1-0.9-1.7c0-5.8,0-11.5,0-17.3
		c0-0.4,0.1-0.7,0.3-1c0.4-0.6,1-1,1.7-1c1.8,0,3.6,0,5.5,0c0,0,0.1,0,0.1,0c0.2,0,0.4-0.2,0.5-0.4c0.1-0.3,0-0.7-0.3-0.9
		C9.2,1,9.1,1,9.1,1L8.9,1H3.5C1.6,1,0.1,2.5,0.1,4.4c0,5.8,0,11.5,0,17.3c0,1.8,1.5,3.3,3.4,3.4c5.7,0,11.4,0,17.2,0
		c1.8,0,3.3-1.5,3.4-3.4V15c0,0,0-0.1,0-0.1C24,14.7,23.8,14.5,23.6,14.4z M20.6,1h-5.9c0,0-0.1,0-0.1,0c-0.3,0.1-0.6,0.4-0.6,0.7
		c0,0.3,0.3,0.6,0.6,0.6c0,0,0.1,0,0.1,0h5.9c0.4,0,0.7,0.1,1.1,0.3c0.6,0.4,0.9,1,1,1.7c0,1.9,0,3.8,0,5.7c0,0,0,0.1,0,0.1
		c0,0.2,0.2,0.4,0.4,0.5c0.3,0.1,0.7-0.1,0.9-0.4c0,0,0-0.1,0-0.1l0-0.1V4.4C24,2.5,22.5,1,20.6,1z M7.4,18.3c0.2,0.3,0.2,0.6,0.2,1
		c-0.1,0.5-0.4,1-0.9,1.2c-0.8,0.4-1.8,0-2.2-0.8c-0.1-0.2-0.2-0.5-0.2-0.7c0-0.9,0.7-1.6,1.6-1.6v0h0C6.6,17.5,7.2,17.8,7.4,18.3z
		 M6,16.4c-1.5,0-2.7,1.2-2.7,2.7c0,1.5,1.2,2.7,2.7,2.7c0.2,0,0.3,0,0.5,0c1.3-0.2,2.2-1.4,2.2-2.7C8.7,17.6,7.5,16.4,6,16.4
		L6,16.4z M13.5,18.4c0.4,0.8,0,1.8-0.8,2.2c-0.8,0.4-1.8,0-2.2-0.8c-0.1-0.2-0.2-0.5-0.2-0.7c0-0.9,0.7-1.6,1.6-1.6
		c0.2,0,0.5,0.1,0.7,0.1C13.1,17.7,13.4,18,13.5,18.4z M11.9,16.4c-1.4,0.1-2.6,1.3-2.6,2.7c0,1.5,1.2,2.7,2.7,2.7
		c0.2,0,0.3,0,0.5,0c1.3-0.2,2.2-1.4,2.2-2.7c0-1.5-1.2-2.7-2.7-2.7C12,16.4,12,16.4,11.9,16.4z M18.1,17.4L18.1,17.4
		c0.6,0,1.2,0.3,1.5,0.9c0.1,0.2,0.2,0.5,0.2,0.8c0,0.9-0.7,1.6-1.6,1.6c-0.9,0-1.6-0.7-1.6-1.6C16.5,18.2,17.2,17.4,18.1,17.4z
		 M18.1,21.8c0.2,0,0.3,0,0.5,0c1.3-0.2,2.2-1.4,2.2-2.7c0-1.5-1.2-2.7-2.7-2.7c0,0-0.1,0-0.1,0c-1.5,0.1-2.6,1.3-2.6,2.7
		C15.4,20.6,16.6,21.8,18.1,21.8z M19.6,12.3c0.2,0.3,0.2,0.7,0.2,1c-0.1,0.8-0.9,1.4-1.6,1.4c-0.9,0-1.6-0.7-1.6-1.6
		c0-0.9,0.7-1.7,1.6-1.7h0C18.8,11.4,19.3,11.7,19.6,12.3z M18.1,10.3c-1.5,0-2.7,1.2-2.7,2.7c0,1.5,1.2,2.7,2.7,2.7
		c1.5,0,2.7-1.2,2.7-2.7S19.6,10.3,18.1,10.3L18.1,10.3z M12.1,14.6c-0.9,0-1.6-0.7-1.6-1.6c0-0.9,0.7-1.7,1.6-1.7h0
		c0.6,0,1.2,0.4,1.5,0.9c0.2,0.3,0.2,0.7,0.2,1C13.6,14.1,12.8,14.6,12.1,14.6z M12.1,10.3L12.1,10.3c-1.5,0-2.7,1.2-2.7,2.7
		c0,1.5,1.2,2.7,2.7,2.7c1.5,0,2.7-1.2,2.7-2.7C14.8,11.5,13.6,10.3,12.1,10.3z M6,14.7c-0.9,0-1.6-0.7-1.6-1.6
		c0-0.9,0.7-1.6,1.6-1.6l0,0c0.4,0,0.8,0.2,1.1,0.4c0.3,0.3,0.5,0.7,0.5,1.2C7.6,13.9,6.9,14.7,6,14.7z M6,10.3L6,10.3
		c-1.5,0-2.7,1.2-2.7,2.7c0,1.5,1.2,2.7,2.7,2.7c1.5,0,2.7-1.2,2.7-2.7S7.5,10.3,6,10.3z M18.1,8.5c-0.9,0-1.6-0.7-1.6-1.6
		c0-0.9,0.7-1.7,1.6-1.7h0c0.6,0,1.2,0.3,1.4,0.9c0.2,0.3,0.2,0.7,0.2,1C19.6,8,18.9,8.5,18.1,8.5z M18.1,4.2L18.1,4.2
		c-0.2,0-0.4,0-0.5,0.1c-1.5,0.3-2.4,1.7-2.1,3.2c0.3,1.5,1.7,2.4,3.2,2.1c1.3-0.2,2.2-1.4,2.2-2.7C20.9,5.4,19.6,4.2,18.1,4.2z
		 M12.1,5.3L12.1,5.3c0.1,0,0.2,0,0.2,0c0.9,0.1,1.5,1,1.4,1.9c-0.1,0.8-0.9,1.4-1.6,1.4c-0.9,0-1.6-0.7-1.6-1.6
		C10.4,6,11.1,5.3,12.1,5.3z M10.9,9.4c1.4,0.6,3,0.1,3.6-1.3c0.2-0.4,0.3-0.8,0.3-1.2c0-1.5-1.2-2.7-2.7-2.7h0c-1,0-2,0.6-2.4,1.5
		C9,7.1,9.5,8.7,10.9,9.4z M6,8.5c-0.9,0-1.6-0.7-1.6-1.6C4.3,6,5.1,5.3,6,5.3h0c0.6,0,1.2,0.3,1.4,0.9c0.2,0.3,0.2,0.7,0.2,1
		C7.5,8,6.7,8.5,6,8.5z M6,4.2L6,4.2c-0.2,0-0.4,0-0.5,0.1C4,4.5,3,6,3.3,7.4S5,9.9,6.5,9.6c1.3-0.2,2.2-1.4,2.2-2.7
		C8.7,5.4,7.5,4.2,6,4.2z"/>
</g>
</svg>
