<?xml version="1.0" encoding="utf-8"?>
<!-- Generator: Adobe Illustrator 24.3.0, SVG Export Plug-In . SVG Version: 6.00 Build 0)  -->
<svg version="1.1" id="Layer_1" xmlns="http://www.w3.org/2000/svg" xmlns:xlink="http://www.w3.org/1999/xlink" x="0px" y="0px"
	 viewBox="0 0 27 31" style="enable-background:new 0 0 27 31;" xml:space="preserve">
<style type="text/css">
	.st0{clip-path:url(#SVGID_2_);}
</style>
<g>
	<defs>
		<rect id="SVGID_1_" width="27" height="31"/>
	</defs>
	<clipPath id="SVGID_2_">
		<use xlink:href="#SVGID_1_"  style="overflow:visible;"/>
	</clipPath>
	<path class="st0" d="M25.8,21.8L14,28.7L2.2,21.8V8.2L14,1.3l11.8,6.8V21.8z M26.7,7.3L14.3,0.1c-0.2-0.1-0.4-0.1-0.6,0L1.2,7.3
		C1,7.4,0.9,7.6,0.9,7.8v14.4c0,0.2,0.1,0.4,0.3,0.5l12.4,7.2C13.7,30,13.8,30,14,30s0.2,0,0.3-0.1l12.4-7.2
		c0.2-0.1,0.3-0.3,0.3-0.5V7.8C27,7.6,26.9,7.4,26.7,7.3z M17.1,17.8h-4.5V22H7.3C7.1,22,7,21.8,7,21.7V8.3C7,8.2,7.1,8,7.3,8h5.3
		v4.2h4.5V17.8z M18.3,18.4v-6.8c0-0.3-0.3-0.6-0.6-0.6h-3.9V6.8H7.3c-0.9,0-1.6,0.7-1.6,1.6v13.4c0,0.9,0.7,1.6,1.6,1.6h6.5V19h3.9
		C18,19,18.3,18.8,18.3,18.4z M16.3,8h4.3c0.2,0,0.3,0.1,0.3,0.3v13.4c0,0.2-0.1,0.3-0.3,0.3h-4.3v-1.7h-1.2l0,3h5.6
		c0.9,0,1.6-0.7,1.6-1.6V8.3c0-0.9-0.7-1.6-1.6-1.6H15v2.9h1.2V8z"/>
</g>
</svg>
