<?xml version="1.0" encoding="utf-8"?>
<!-- Generator: Adobe Illustrator 24.3.0, SVG Export Plug-In . SVG Version: 6.00 Build 0)  -->
<svg version="1.1" id="Layer_1" xmlns="http://www.w3.org/2000/svg" xmlns:xlink="http://www.w3.org/1999/xlink" x="0px" y="0px"
	 viewBox="0 0 24 25" style="enable-background:new 0 0 24 25;" xml:space="preserve">
<style type="text/css">
	.st0{clip-path:url(#SVGID_2_);}
</style>
<g>
	<defs>
		<rect id="SVGID_1_" width="24" height="25"/>
	</defs>
	<clipPath id="SVGID_2_">
		<use xlink:href="#SVGID_1_"  style="overflow:visible;"/>
	</clipPath>
	<path class="st0" d="M17.4,21.9c-2.4,0-4.4-2-4.4-4.5s2-4.4,4.4-4.4s4.4,2,4.4,4.4S19.8,21.9,17.4,21.9z M23.7,23l-2-2
		c0.8-1,1.3-2.2,1.3-3.5c0-3.1-2.5-5.6-5.5-5.6s-5.5,2.5-5.5,5.6c0,3.1,2.5,5.6,5.5,5.6c1.3,0,2.5-0.4,3.5-1.3l2,2
		c0.2,0.2,0.6,0.2,0.8,0C23.9,23.6,23.9,23.3,23.7,23z M9.1,4.3V1.1h4.2v3.2H9.1z M5.4,14.8V18H1.1v-3.2H5.4z M11.3,14.8
		c0.2-0.4,0.4-0.8,0.6-1.1h-0.1c0,0,0-0.1,0-0.1v-4h6.9v1.3c0.4,0.1,0.8,0.2,1.1,0.3V9.1c0-0.4-0.3-0.7-0.7-0.7h-7.4v-3h2.1
		c0.3,0,0.6-0.3,0.6-0.6V0.6c0-0.3-0.3-0.6-0.6-0.6H8.6C8.2,0,8,0.3,8,0.6v4.3c0,0.3,0.3,0.6,0.6,0.6h2.1v3H3.4
		C3,8.4,2.7,8.7,2.7,9.1v4.6H0.6c-0.3,0-0.6,0.3-0.6,0.6v4.3c0,0.3,0.3,0.6,0.6,0.6h5.4c0.3,0,0.6-0.3,0.6-0.6v-4.3
		c0-0.3-0.3-0.6-0.6-0.6H3.8V9.5h6.8v4c0,0,0,0.1,0,0.1H8.6c-0.3,0-0.6,0.3-0.6,0.6v4.3c0,0.3,0.3,0.6,0.6,0.6h2.4
		c-0.1-0.4-0.2-0.7-0.2-1.1H9.1v-3.2L11.3,14.8L11.3,14.8z"/>
</g>
</svg>
