<?xml version="1.0" encoding="utf-8"?>
<!-- Generator: Adobe Illustrator 24.3.0, SVG Export Plug-In . SVG Version: 6.00 Build 0)  -->
<svg version="1.1" id="Layer_1" xmlns="http://www.w3.org/2000/svg" xmlns:xlink="http://www.w3.org/1999/xlink" x="0px" y="0px"
	 viewBox="0 0 31 18" style="enable-background:new 0 0 31 18;" xml:space="preserve">
<style type="text/css">
	.st0{clip-path:url(#SVGID_2_);}
</style>
<g>
	<defs>
		<rect id="SVGID_1_" width="31" height="18"/>
	</defs>
	<clipPath id="SVGID_2_">
		<use xlink:href="#SVGID_1_"  style="overflow:visible;"/>
	</clipPath>
	<path class="st0" d="M18.6,6.6l0,2l1.7,1l0,2l1.7,0.9l0-4L18.6,6.6z M18.2,13.2l-1.7-1l-1.7,1l3.4,2l3.4-2l-1.7-1L18.2,13.2z
		 M16.1,9.5l1.7-1l0-1.9l-3.4,2v3.9l1.7-1L16.1,9.5z M26.4,16.8L26.4,16.8c-0.1,0-0.3,0-0.6,0c-1.4,0-5.6,0-9.8,0
		c-4.2,0-8.4,0-9.9,0c-0.3,0-0.4,0-0.5,0C3.7,16.8,2,15,2,13.1c0-1.8,1.6-3.3,3.4-3.3l0.1,0c0.3,0,0.6,0,0.8,0.1l1,0.3l0.2-1
		C8,7.1,9.9,5.6,12,5.6l0.1,0c0.7,0,1.3,0.2,1.8,0.4l1,0.5l0.4-1c0.9-2.3,2.9-3.7,5.1-3.7l0.1,0c2.8,0.1,5.1,2.4,5.3,5.5l0.1,0.8
		l0.8,0.1c1.9,0.2,3.3,2.1,3.3,4.4C29.9,14.9,28.3,16.8,26.4,16.8z M26.8,7.2c-0.3-3.5-3-6.3-6.3-6.4c-0.1,0-0.1,0-0.2,0
		c-2.7,0-5,1.8-6,4.4c-0.7-0.3-1.4-0.5-2.2-0.5c0,0-0.1,0-0.1,0C9.3,4.6,7.1,6.4,6.6,9C6.2,8.9,5.9,8.8,5.5,8.8c0,0-0.1,0-0.1,0
		C3,8.8,1.1,10.7,1,13.1c-0.1,2.4,2.2,4.7,4.6,4.7c0.1,0,0.2,0,0.5,0c2.9,0,16.8-0.1,19.7-0.1c0.3,0,0.4,0,0.5,0c0,0,0.1,0,0.1,0
		c2.5,0,4.5-2.3,4.6-5.2C31.1,9.7,29.2,7.4,26.8,7.2z"/>
</g>
</svg>
