<?xml version="1.0" encoding="utf-8"?>
<!-- Generator: Adobe Illustrator 24.3.0, SVG Export Plug-In . SVG Version: 6.00 Build 0)  -->
<svg version="1.1" id="Layer_1" xmlns="http://www.w3.org/2000/svg" xmlns:xlink="http://www.w3.org/1999/xlink" x="0px" y="0px"
	 viewBox="0 0 24 27" style="enable-background:new 0 0 24 27;" xml:space="preserve">
<style type="text/css">
	.st0{clip-path:url(#SVGID_2_);}
</style>
<g>
	<defs>
		<rect id="SVGID_1_" width="24" height="27"/>
	</defs>
	<clipPath id="SVGID_2_">
		<use xlink:href="#SVGID_1_"  style="overflow:visible;"/>
	</clipPath>
	<path class="st0" d="M11.7,9.5c0.8,0,1.6,0.3,2.1,0.9c1.2,1.2,1.2,3.1,0,4.3c-0.6,0.6-1.3,0.9-2.1,0.9c-1.7,0-3-1.3-3-3
		S10,9.5,11.7,9.5z M11.7,16.6c1.1,0,2.1-0.4,2.9-1.2c0.8-0.8,1.2-1.8,1.2-2.9c0-2.3-1.9-4.1-4.1-4.1s-4.1,1.9-4.1,4.1
		S9.4,16.6,11.7,16.6z M13.4,24.7C13.4,24.7,13.4,24.7,13.4,24.7c-0.5,0.5-1.2,0.4-1.6,0c-0.4-0.5-0.4-1.2,0-1.6
		c0.2-0.2,0.5-0.3,0.8-0.3c0.3,0,0.6,0.1,0.8,0.3C13.8,23.5,13.8,24.2,13.4,24.7z M14,22.3c-0.8-0.8-2.1-0.8-3,0
		c-0.8,0.8-0.8,2.2,0,3c0.4,0.4,0.9,0.6,1.5,0.6c0.6,0,1.1-0.2,1.5-0.6C14.9,24.5,14.9,23.2,14,22.3L14,22.3z M3.1,9.9
		c0.4,0,0.8,0.2,1.1,0.5c0.3,0.3,0.5,0.7,0.5,1.1c0,0.9-0.7,1.6-1.6,1.6s-1.6-0.7-1.6-1.6C1.5,10.7,2.3,9.9,3.1,9.9z M3.1,14.3
		c0.7,0,1.4-0.3,1.9-0.8c0.5-0.5,0.8-1.2,0.8-1.9c0-1.5-1.2-2.7-2.7-2.7c-1.5,0-2.7,1.2-2.7,2.7C0.4,13,1.6,14.3,3.1,14.3z
		 M20.3,3.5c0.6,0,1.1,0.2,1.5,0.6c0.4,0.4,0.6,0.9,0.6,1.5c0,1.2-0.9,2.1-2.1,2.1c-1.2,0-2.1-0.9-2.1-2.1S19.2,3.5,20.3,3.5z
		 M20.3,8.8c0.8,0,1.7-0.3,2.3-0.9c0.6-0.6,0.9-1.4,0.9-2.3c0-1.8-1.4-3.2-3.2-3.2c-1.8,0-3.2,1.4-3.2,3.2
		C17.1,7.3,18.6,8.8,20.3,8.8z M23.8,10c-0.3,0.2-0.7,0.5-1,0.6c0.1,0.6,0.1,1.2,0.1,1.8c0,4.5-2.8,8.6-7,10.3
		c0.1,0.4,0.2,0.7,0.2,1.1C20.9,22,24,17.4,24,12.4C24,11.5,23.9,10.7,23.8,10z M19.9,11.1c-0.4,0-0.8-0.1-1.2-0.2
		c0.8,3.8-1.7,7.6-5.5,8.4c-3,0.6-6.1-0.8-7.6-3.5c-0.3,0.2-0.7,0.3-1,0.5c2.2,4,7.2,5.5,11.1,3.3C18.8,17.9,20.5,14.5,19.9,11.1z
		 M5.4,7.2c0.3,0.2,0.6,0.4,0.9,0.6c0.1-0.2,0.3-0.3,0.4-0.5c2.1-2.1,5.3-2.7,8-1.4c0-0.1,0-0.2,0-0.3c0-0.3,0-0.6,0.1-0.8
		C11.5,3.4,7.7,4.4,5.4,7.2z M4,4.5c3.1-3.1,7.9-4.1,12-2.4c0.1-0.2,0.3-0.3,0.4-0.5c0.1-0.1,0.3-0.3,0.4-0.4
		c-1.6-0.7-3.3-1.1-5-1.1c-4.7,0-9.1,2.8-11.1,7.1c0.5-0.3,1-0.5,1.5-0.5C2.8,5.9,3.3,5.2,4,4.5z M4,20.2c-1.1-1.1-2-2.5-2.6-4
		c-0.5-0.2-1-0.5-1.4-0.8c1.1,4.4,4.6,7.8,9,8.9c0-0.4,0-0.8,0.1-1.1C7.2,22.6,5.4,21.6,4,20.2z"/>
</g>
</svg>
