<?xml version="1.0" encoding="utf-8"?>
<!-- Generator: Adobe Illustrator 24.3.0, SVG Export Plug-In . SVG Version: 6.00 Build 0)  -->
<svg version="1.1" id="Layer_1" xmlns="http://www.w3.org/2000/svg" xmlns:xlink="http://www.w3.org/1999/xlink" x="0px" y="0px"
	 viewBox="0 0 24 24" style="enable-background:new 0 0 24 24;" xml:space="preserve">
<style type="text/css">
	.st0{clip-path:url(#SVGID_2_);fill:#231E21;}
</style>
<g>
	<defs>
		<rect id="SVGID_1_" width="24" height="24"/>
	</defs>
	<clipPath id="SVGID_2_">
		<use xlink:href="#SVGID_1_"  style="overflow:visible;"/>
	</clipPath>
	<path class="st0" d="M12.1,23H1V11.9h5v2.3H3.7V20h5.7v-2.4h2.7V23z M11.1,11.9l-2.5,2.3H7v-2.3H11.1z M12.1,16.6H9.4v-1.8l2.7-2.5
		V16.6z M13.1,11.4L19,5.9h5V0.1h-5.7v5.1l-6.1,5.7H7v-5h2.5V0.1H3.8v5.7H6v5H0V24h13.1v-6.4h5.2v2.2H24v-5.7h-5.7v2.5h-5.2V11.4z"
		/>
</g>
</svg>
