<?xml version="1.0" encoding="utf-8"?>
<!-- Generator: Adobe Illustrator 24.3.0, SVG Export Plug-In . SVG Version: 6.00 Build 0)  -->
<svg version="1.1" id="Layer_1" xmlns="http://www.w3.org/2000/svg" xmlns:xlink="http://www.w3.org/1999/xlink" x="0px" y="0px"
	 viewBox="0 0 31 31" style="enable-background:new 0 0 31 31;" xml:space="preserve">
<style type="text/css">
	.st0{clip-path:url(#SVGID_2_);fill:#231E21;}
</style>
<g>
	<defs>
		<rect id="SVGID_1_" width="31" height="31"/>
	</defs>
	<clipPath id="SVGID_2_">
		<use xlink:href="#SVGID_1_"  style="overflow:visible;"/>
	</clipPath>
	<path class="st0" d="M0.8,0.5v28h7.5v-1H1.8v-26h28v26h-6.5v1h7.5v-28H0.8z M20.1,29l-1.7-2.2h-0.7v3.4h0.7V28l1.7,2.2h0.7v-3.4
		h-0.7V29z M12.2,29.2l-1-2.4h-0.8l1.4,3.4h0.8l1.4-3.4h-0.8L12.2,29.2z M16.3,28.3c-0.1,0.1-0.3,0.1-0.4,0.1h-0.7v-1h0.7
		c0.2,0,0.3,0,0.4,0.1c0.1,0.1,0.2,0.2,0.2,0.4S16.4,28.2,16.3,28.3z M16.6,26.9c-0.2-0.1-0.4-0.1-0.7-0.1h-1.5v3.4h0.7v-1.1H16
		c0.2,0,0.5,0,0.7-0.1c0.2-0.1,0.4-0.2,0.5-0.4c0.1-0.2,0.2-0.4,0.2-0.6c0-0.2-0.1-0.4-0.2-0.6C17,27.2,16.8,27,16.6,26.9z
		 M15.8,22.5c-3.3,0-6-2.7-6-6c0-2.6,1.6-4.8,3.9-5.6c1.3-0.4,2.8-0.4,4.1,0c2.3,0.8,3.9,3,3.9,5.6C21.8,19.8,19.1,22.5,15.8,22.5z
		 M13,6.4c0-1.4,1.1-2.5,2.4-2.5h0.7c1.3,0,2.4,1.1,2.4,2.5V10C18.4,10,18.2,9.9,18,9.9c-0.7-0.2-1.5-0.4-2.2-0.4
		c-0.8,0-1.5,0.1-2.2,0.4C13.4,9.9,13.2,10,13,10V6.4z M19.5,10.6V6.4c0-2-1.5-3.5-3.4-3.5h-0.7c-1.9,0-3.4,1.6-3.4,3.5v4.2
		c-1.9,1.2-3.2,3.4-3.2,5.9c0,3.9,3.1,7,7,7c3.9,0,7-3.1,7-7C22.8,14,21.5,11.8,19.5,10.6z M15.8,15.2c-0.7,0-1.3,0.6-1.3,1.3
		c0,0.5,0.3,0.9,0.7,1.2v1.4c0,0.2,0.2,0.4,0.4,0.4h0.6c0.2,0,0.4-0.2,0.4-0.4v-1.4c0.4-0.2,0.7-0.7,0.7-1.2
		C17.1,15.8,16.5,15.2,15.8,15.2z M15.2,11.7c-2.3,0-4.3,1.9-4.3,4.3h1c0-1.8,1.5-3.3,3.3-3.3V11.7z"/>
</g>
</svg>
