<?xml version="1.0" encoding="utf-8"?>
<!-- Generator: Adobe Illustrator 24.3.0, SVG Export Plug-In . SVG Version: 6.00 Build 0)  -->
<svg version="1.1" id="Layer_1" xmlns="http://www.w3.org/2000/svg" xmlns:xlink="http://www.w3.org/1999/xlink" x="0px" y="0px"
	 viewBox="0 0 25 25" style="enable-background:new 0 0 25 25;" xml:space="preserve">
<style type="text/css">
	.st0{clip-path:url(#SVGID_2_);fill:#231E21;}
</style>
<g>
	<defs>
		<rect id="SVGID_1_" width="25" height="25"/>
	</defs>
	<clipPath id="SVGID_2_">
		<use xlink:href="#SVGID_1_"  style="overflow:visible;"/>
	</clipPath>
	<path class="st0" d="M18.1,9.6v10.5h3.2V9.6H18.1z M13.5,11.5v8.7h3.2v-8.7H13.5z M12,20.1l0-4.8H8.7l0,4.8H12z M4.1,12.6v7.5h3.2
		v-7.5H4.1z M21.2,6.2L21.2,6.2c0.1-0.1,0.1-0.2,0.1-0.3c0-0.1-0.1-0.2-0.2-0.3l-2.2-1.2c-0.1-0.1-0.3-0.1-0.4,0
		c-0.1,0.1-0.2,0.2-0.2,0.4l0.2,1.3L15,6.7c-0.3-0.6-1-0.8-1.6-0.5c-0.6,0.3-0.8,1-0.5,1.6l-2,2c-0.5-0.4-1.2-0.4-1.6,0.1L6.5,8.1
		c0-0.1,0-0.1,0-0.2c0-0.6-0.5-1.1-1.2-1.1S4.2,7.2,4.1,7.8c0,0.2,0,0.3,0.1,0.5c0.1,0.2,0.2,0.3,0.5,0.6C4.9,9,5.1,9,5.3,9
		c0.3,0,0.5-0.1,0.8-0.3L9,10.6c0,0,0,0.1,0,0.1c0,0.6,0.5,1.1,1.2,1.1c0.6,0,1.2-0.5,1.2-1.1c0-0.1,0-0.1,0-0.2l2.2-2.2
		c0.3,0.2,0.7,0.2,1,0c0.3-0.2,0.6-0.5,0.6-0.8l3.6-0.7l0.2,1.1c0,0.1,0.1,0.3,0.3,0.3c0.1,0,0.3,0,0.4-0.1L21.2,6.2L21.2,6.2
		L21.2,6.2z M24.7,0.2h-24v24h24V0.2z M23.7,1.2v22h-22v-22H23.7z"/>
</g>
</svg>
