<?xml version="1.0" encoding="utf-8"?>
<!-- Generator: Adobe Illustrator 24.3.0, SVG Export Plug-In . SVG Version: 6.00 Build 0)  -->
<svg version="1.1" id="Layer_1" xmlns="http://www.w3.org/2000/svg" xmlns:xlink="http://www.w3.org/1999/xlink" x="0px" y="0px"
	 viewBox="0 0 25 24" style="enable-background:new 0 0 25 24;" xml:space="preserve">
<style type="text/css">
	.st0{clip-path:url(#SVGID_2_);fill:#231E21;}
</style>
<g>
	<defs>
		<rect id="SVGID_1_" width="25" height="24"/>
	</defs>
	<clipPath id="SVGID_2_">
		<use xlink:href="#SVGID_1_"  style="overflow:visible;"/>
	</clipPath>
	<path class="st0" d="M6.2,20l-0.1-1l-2.3,1.9L6.5,22l-0.1-1c3-0.9,5.2-3.2,6.2-6.1c0.9,2.9,3.2,5.2,6.2,6.1l-0.1,1l2.8-1.1
		l-2.3-1.9l-0.1,1c-3.4-1.1-5.8-4.3-5.8-8c0-3.7,2.4-6.9,5.8-8l0.1,1l2.3-1.9L18.5,2l0.1,1c-3,0.9-5.2,3.2-6.2,6.1
		C11.6,6.2,9.3,3.9,6.3,3l0.1-1L3.7,3.1l2.3,1.9l0.1-1C9.6,5.1,12,8.3,12,12C12,15.7,9.6,18.9,6.2,20z M23.5,23h-22V1h22V23z M0.5,0
		v24h24V0H0.5z"/>
</g>
</svg>
