<?xml version="1.0" encoding="utf-8"?>
<!-- Generator: Adobe Illustrator 24.3.0, SVG Export Plug-In . SVG Version: 6.00 Build 0)  -->
<svg version="1.1" id="Layer_1" xmlns="http://www.w3.org/2000/svg" xmlns:xlink="http://www.w3.org/1999/xlink" x="0px" y="0px"
	 viewBox="0 0 23 23" style="enable-background:new 0 0 23 23;" xml:space="preserve">
<style type="text/css">
	.st0{clip-path:url(#SVGID_2_);fill:#231E21;}
</style>
<g>
	<defs>
		<rect id="SVGID_1_" width="23" height="23"/>
	</defs>
	<clipPath id="SVGID_2_">
		<use xlink:href="#SVGID_1_"  style="overflow:visible;"/>
	</clipPath>
	<path class="st0" d="M15.9,7C12.2,3.2,6.9,1,1.4,1h0C0.6,1,0,1.6,0,2.4c0,0.8,0.6,1.4,1.3,1.4C6.1,3.8,10.6,5.7,14,9
		c3.3,3.2,5.2,7.8,5.2,12.6c0,0.8,0.6,1.4,1.4,1.4c0.4,0,0.8-0.1,1-0.4c0.2-0.2,0.4-0.6,0.4-0.9C22,16.1,19.8,11,15.9,7z M1.5,8.9
		L1.5,8.9c-0.8,0-1.4,0.6-1.4,1.4c0,0.8,0.6,1.4,1.3,1.4c5.3,0.1,9.7,4.4,9.7,9.7c0,0.8,0.6,1.4,1.4,1.4c0.4,0,0.8-0.1,1-0.4
		c0.2-0.2,0.4-0.6,0.4-0.9c0-3.3-1.4-6.5-3.7-8.8C8,10.3,4.9,9,1.5,8.9z M3.3,16.6c-1.7,0-3.1,1.4-3.1,3.1c0,1.7,1.4,3.1,3.1,3.1
		c1.7,0,3.1-1.4,3.1-3.1C6.4,18,5,16.6,3.3,16.6z"/>
</g>
</svg>
